<mxfile host="app.diagrams.net" modified="2024-01-16T07:32:34.334Z" agent="Mozilla/5.0 (Macintosh; Intel Mac OS X 10_15_7) AppleWebKit/537.36 (KHTML, like Gecko) Chrome/120.0.0.0 Safari/537.36" etag="gOq6xZkChneZPp2Agbpg" version="22.1.18" type="device">
  <diagram id="lL5fVkvz8cc9OB-oo2Jn" name="Page-1">
    <mxGraphModel dx="1715" dy="2051" grid="1" gridSize="10" guides="1" tooltips="1" connect="1" arrows="1" fold="1" page="1" pageScale="1" pageWidth="827" pageHeight="1169" background="#FFFFFF" math="0" shadow="0">
      <root>
        <mxCell id="0" />
        <mxCell id="1" parent="0" />
        <mxCell id="c-DlsIj0Viizq32SzEkp-5" value="" style="whiteSpace=wrap;html=1;aspect=fixed;labelPosition=center;verticalLabelPosition=bottom;align=center;verticalAlign=top;fillColor=#F0F6FF;spacingBottom=0;rounded=1;" parent="1" vertex="1">
          <mxGeometry x="101" y="-269" width="760.14" height="760.14" as="geometry" />
        </mxCell>
        <mxCell id="c-DlsIj0Viizq32SzEkp-1" value="" style="outlineConnect=0;dashed=0;verticalLabelPosition=bottom;verticalAlign=top;align=center;html=1;shape=mxgraph.aws3.lambda_function;fillColor=#5294CF;gradientColor=none;" parent="1" vertex="1">
          <mxGeometry x="230" y="-176.5" width="60" height="63" as="geometry" />
        </mxCell>
        <mxCell id="c-DlsIj0Viizq32SzEkp-2" value="" style="outlineConnect=0;dashed=0;verticalLabelPosition=bottom;verticalAlign=top;align=center;html=1;shape=mxgraph.aws3.lambda_function;fillColor=#5294CF;gradientColor=none;" parent="1" vertex="1">
          <mxGeometry x="386" y="-176.5" width="60" height="63" as="geometry" />
        </mxCell>
        <mxCell id="c-DlsIj0Viizq32SzEkp-17" style="edgeStyle=orthogonalEdgeStyle;rounded=0;orthogonalLoop=1;jettySize=auto;html=1;entryX=0;entryY=0.5;entryDx=0;entryDy=0;entryPerimeter=0;strokeColor=#666666;" parent="1" source="c-DlsIj0Viizq32SzEkp-3" target="c-DlsIj0Viizq32SzEkp-32" edge="1">
          <mxGeometry relative="1" as="geometry">
            <mxPoint x="357.5" y="269.5" as="targetPoint" />
            <Array as="points">
              <mxPoint x="324" y="270" />
            </Array>
          </mxGeometry>
        </mxCell>
        <mxCell id="c-DlsIj0Viizq32SzEkp-3" value="&lt;font style=&quot;font-size: 13px;&quot;&gt;Pod&lt;/font&gt;" style="sketch=0;html=1;dashed=0;whitespace=wrap;fillColor=#2875E2;strokeColor=#ffffff;points=[[0.005,0.63,0],[0.1,0.2,0],[0.9,0.2,0],[0.5,0,0],[0.995,0.63,0],[0.72,0.99,0],[0.5,1,0],[0.28,0.99,0]];shape=mxgraph.kubernetes.icon;prIcon=pod;labelPosition=center;verticalLabelPosition=bottom;align=center;verticalAlign=top;" parent="1" vertex="1">
          <mxGeometry x="236" y="241" width="45" height="48" as="geometry" />
        </mxCell>
        <mxCell id="c-DlsIj0Viizq32SzEkp-50" style="edgeStyle=orthogonalEdgeStyle;rounded=0;orthogonalLoop=1;jettySize=auto;html=1;strokeColor=#666666;entryX=0.034;entryY=0.62;entryDx=0;entryDy=0;entryPerimeter=0;" parent="1" target="c-DlsIj0Viizq32SzEkp-3" edge="1">
          <mxGeometry relative="1" as="geometry">
            <mxPoint x="186.95999999999992" y="270.54237288135573" as="sourcePoint" />
            <Array as="points">
              <mxPoint x="230" y="271" />
            </Array>
          </mxGeometry>
        </mxCell>
        <mxCell id="c-DlsIj0Viizq32SzEkp-10" value="" style="sketch=0;html=1;dashed=0;whitespace=wrap;fillColor=#D6D6D6;strokeColor=#ffffff;points=[[0.005,0.63,0],[0.1,0.2,0],[0.9,0.2,0],[0.5,0,0],[0.995,0.63,0],[0.72,0.99,0],[0.5,1,0],[0.28,0.99,0]];shape=mxgraph.kubernetes.icon;prIcon=pod" parent="1" vertex="1">
          <mxGeometry x="690" y="200" width="45" height="48" as="geometry" />
        </mxCell>
        <mxCell id="c-DlsIj0Viizq32SzEkp-11" value="&lt;font style=&quot;font-size: 13px;&quot;&gt;Pod(s)&lt;/font&gt;" style="sketch=0;html=1;dashed=0;whitespace=wrap;fillColor=#D7DCE2;strokeColor=#ffffff;points=[[0.005,0.63,0],[0.1,0.2,0],[0.9,0.2,0],[0.5,0,0],[0.995,0.63,0],[0.72,0.99,0],[0.5,1,0],[0.28,0.99,0]];shape=mxgraph.kubernetes.icon;prIcon=pod;labelPosition=center;verticalLabelPosition=bottom;align=center;verticalAlign=top;" parent="1" vertex="1">
          <mxGeometry x="690" y="294.5" width="45" height="48" as="geometry" />
        </mxCell>
        <mxCell id="c-DlsIj0Viizq32SzEkp-12" value="" style="sketch=0;html=1;dashed=0;whitespace=wrap;fillColor=#D7DCE2;strokeColor=#ffffff;points=[[0.005,0.63,0],[0.1,0.2,0],[0.9,0.2,0],[0.5,0,0],[0.995,0.63,0],[0.72,0.99,0],[0.5,1,0],[0.28,0.99,0]];shape=mxgraph.kubernetes.icon;prIcon=pod;gradientColor=none;" parent="1" vertex="1">
          <mxGeometry x="690" y="243.68" width="45" height="48" as="geometry" />
        </mxCell>
        <mxCell id="c-DlsIj0Viizq32SzEkp-76" style="edgeStyle=orthogonalEdgeStyle;rounded=1;orthogonalLoop=1;jettySize=auto;html=1;fontColor=#000000;strokeColor=#666666;strokeWidth=1;entryX=0.374;entryY=0.777;entryDx=0;entryDy=0;entryPerimeter=0;curved=0;" parent="1" source="c-DlsIj0Viizq32SzEkp-13" target="c-DlsIj0Viizq32SzEkp-44" edge="1">
          <mxGeometry relative="1" as="geometry">
            <Array as="points">
              <mxPoint x="786" y="400" />
              <mxPoint x="517" y="400" />
            </Array>
            <mxPoint x="517" y="300" as="targetPoint" />
          </mxGeometry>
        </mxCell>
        <mxCell id="c-DlsIj0Viizq32SzEkp-13" value="" style="shape=image;verticalLabelPosition=bottom;labelBackgroundColor=default;verticalAlign=top;aspect=fixed;imageAspect=0;image=data:image/png,iVBORw0KGgoAAAANSUhEUgAABLAAAASmCAYAAAA+rlJJAAAABGdBTUEAALGPC/xhBQAAACBjSFJNAAB6JgAAgIQAAPoAAACA6AAAdTAAAOpgAAA6mAAAF3CculE8AAAABmJLR0QA/wD/AP+gvaeTAACAAElEQVR42uzde5ycZX3///fnntlsTgRCSLK7SZBAEMjsbsB4omqNh9ofRSC7y1RtpdLWUg9V2tpW29oaj9X6tZ7aqnhCUBGGHAggVVHiAVAxEHazHCMBkuxsEnLglOxmZ+7P748E5JDD7s49M/d9z+v5eODjISQz9/2+7r3v6/rsdV23BAAAAAAAAAAAAAAAAAAAAAAAAAAAAAAAAAAAAAAAAAAAAAAAAAAAAAAAAAAAkCqez2e2n3vKUSQBAABQW0YEAAAgCTYuPf2YidIxZY0ck8naMQo1RW6TZZripgkmP9pdWTM/2j1olsLJkk2RaYJCHe1mWTM/WtIEuaY85+OPkin7rH/jmihp0hgOcbdM/pzP2CNp+Fn/xrTbXSMmPWHSXjcNWajH3bxkpl0eWsllj1vgQ5LtlesJc42EgXZ5qCcD+e4mK+8eyhyze17h1r1cGQAAoBFQwAIAADWz8cITJk7YNXVmYN5qZrNcfqzLjrHAjnGFx5jbMS4dI+kYyY6R/BiZjpFrOukd1LCk3XLtltluyXebtNul3Wa+OwyDXWba7fLdGfftHvhWC7PbZ6/s3W56TrENAAAgxihgAQCAimzKnznJh3dOzwYTWj0TtgWhpocKWi3wtgOFp1a52mSaLqmF/kdseoG7FKoo0y6ZBiQV3bXLzAZcYdFC7coEwcCsGRM22SVrRwgMAADUt+sCAABwCPeftaB52uRJc8ph2GYKWkPpRAu8TVKrpBPlOkn7Z0wh3T3GXZIecKlo7gPuwQOBwmIYBANZ6YFZO2Y8bGvWlAgKAABUrzsCAAAa1mBX56xyJlxgrhMlm+vS3MD9eDfNk2uupONICaMwIqko6WHJHzYFm0P5Zskfynjmgb1HP7Zh/qUPDhETAAAYLwpYAACk3ENnd0xvatKJZjoxlE4085xMC+VaIOloEkKNep27JD0g6QGTP6BQd7kH/RObJmw4trD2UQICAACH70oAAIDE25RfNCcIw9PMdZKbLzDXAplOOlCkmkRCiLmtkjbIbYMs3OCm35rs/mBycHfL5b1PEg8AAKCABQBAgjx0dsf0pglhTkGwUPKcXAsldUqaRTpIqaKkfpnukqxfYXhXU7l058zV9z5ONAAANA4KWAAAxNDD557SlmmasNCkE59RqFokaSbpAJKeU9hy6YEgyN7ZWrhjO9EAAJA+FLAAAKijjReeMHHiY1M63IIzJD9DbmdIvlDSUaQDjMvDkvoku0PudwTZ4I6WQu9GYgEAINkoYAEAUCPbzz3lqJFMdpECWyz3hZLlJL1YUjPpAFXkekymPpnWWuhr3YP+XU1hX67Qv49wAABIBgpYAABUwe/2qrLFcu3/x3SqpIB0gFgYket+mdbKtFahr1Vp4u1t167dQzQAAMQPBSwAACrkFy1uKm7b16mMv/IZxaqFJAMkTkmu+/YXtewXpvLNLcvvusskJxoAAOqLAhYAAGP08LmntDVlJrzCgwMFK5YBAul1YPmhmf8ilG72sHzL3JX37CAYAABqiwIWAACH8dS+Va7gFQr8leZ6mXgTINDoHpB081NLD3dl9Wv20wIAoLooYAEA8AwPn3tKW6Yp+2pze5Vcr5bpNJ6XAI7gSUm3mtnP3bVmeNrjv55/6YNDxAIAQHTokAMAGtrTywEtfL3cXknBCkAESjLdafIbQ+nmScHEnx1bWPsosQAAMH500AEADWVrT8eJYRi+0k2vkOwPJM0nFQBVVpZpnaSbLbRflLLhj+cV+ncSCwAAo0cBCwCQapt6Tjs5q8zr5Xq1S78vqZVUANRZWdKdkv3MFd40oVS6aebqex8nFgAADo0CFgAgVbblc1NHQr3GXG9khhWAhCjLtG7/ksPgxt1B+DM2hQcA4NkoYAEAEs2XLMkWj9mxyE2vN/PXS3q1pCaSAZBgT0q61d1uNNeNbav61hIJAKDRUcACACTO1p6OE8vS6yV/vUL9oUzTSAVAihUl3Whu17J/FgCgUVHAAgDE3s784qOHS/ve4NLZZvoDl7eRCoAGVZa0VvIfWKjrWk7v/40tU0gsAIC0o4AFAIilwXzn/DD0P3D5OeZ6g6QJpAIAz/OITDdZ6Nc1Zydec2xh7aNEAgBIIwpYAIBY8Hw+Uxy553QP/BwzvVGuxaQCAGNSkvQrd7vWAl3TtrzvHiIBAKQFBSwAQN1syueOzZaC17n5OdpftJpOKgAQmQdkus5l17bNmPBTu2TtCJEAAJKKAhYAoKa2Lm0/qRR4j7neKLPfk5QhFQCouh1y3WCy1TbVvt9yee+TRAIASBIKWACAqtv/1kA/R668pN/j+QMAdTXkphuD0AvsmwUASAoGEACAqij2LMyFHuTNlZdpIYkAQCyVJf1SpkJmRN+bvXr9ViIBAMQRBSwAQGSeLlrJ3yLZC0kEABLl6WJWaWSkcPzqeweIBAAQFxSwAADj5ssUFO/M/Z4Cy8vVLWkuqQBAKoQy3eGu68KMf3teoX8DkQAA6okCFgBgzIo9C3OSXeBufyaplUQAIPWjhrWSLs8GfuWsQv8ggQAAav8oAgBgFIpLTz8htPKbzMK/YHkgADSsA8sM7bLmPXu/N+OGDY8RCQCgFihgAQAOaVN+0ZxMWD7/wNsDX0EiAIBnOPA2Q7tsZza8Jlfo30ckAIBqoYAFAHiWjUtPP2aijZwbBpY31/8nKUsqAIAj2C3pWjcvtO2YeYOtWVMiEgBAlChgAQC08cITJk58fOq5Lv8Tuf1/kppJBQAwTpvd9D0v+3fmrupfRxwAgChQwAKABvaMzdj/UtJxJAIAiJTrLpddlpF9s2Vl7zYCAQCMFwUsAGgwD53dMb1povKSv1Ou00kEAFAD+9z0wyC0y1pmTlhll6wdIRIAwFhQwAKABuD5fGYgvOc1Jr9IrqWSmkgFAFAnRZkKZenr85av7yUOAMBoUMACgBQb6Ok41RRe6G5vk9RCIgCAmI1G1kq6vBz45fMK/TsJBABw6EcGACBVduYXHz1cGjrPzS6Q9Dru9QCABBiS6VqXXdK2vO/HJjmRAACeiUENAKTEwNKOxQrCiyT7U0lTSAQAkNAByobQ7WtWGv5627X3PUIiAIADzwcAQFJtvPCEiRMfPeocN79Y0itIBACQIsMyrXbZJXOW991IHADQ2ChgAUACbe5a9MJMUPoLd3u7pBkkAgBIubvd7VulfbrkBdf37SIOAGg8FLAAICH687kJx5aC89z8IrG3FQCgMT0u+RVhqC/NXdW/jjgAoHEw+AGAmNuUXzQnKIVvNfO/kTSXRAAA0IE3GNol2jfh223Xrt1DIACQ9ts+ACB2XLLi+e1/oFDvlXSWpIBUAAA4qEdM9g3PhP/TVuh/mDgAIJ0oYAFAjNx/1oLmqROb3+Rm/yipnUQAABi10E3fl+zzbPoOAOlDAQsAYmBbPtcyUrZ3mPRuSceRCAAAFbldZl8ZPurxy+Zf+uAQcQBA8lHAAoA6GljasViBXyzpzZKaSAQAgEgNuvQVG9n3323X3vcIcQBAclHAAoAa82UKBvpyZ5vbeyW9nkQAAKi6YUlXBWX7dMs1fX3EAQDJQwELAGpkZ37x0UPh8IVy/b2k40kEAIC6uNncPt+SPXWFFQpl4gCAZKCABQBVNpjvnF8O/X3m/ueSJpMIAAAx4LrXTZ/es3fo2yffsGGYQAAg3ihgAUCVDJ7X0RFm/B8lvUVSlkQAAIilrS59eV+Y/dz8Vet2EwcAxBMFLACI2EBX7pUe2PvNdTb3WQAAEuNxmb5ZGhn51PGr7x0gDgCIFwZWABABl2ygJ/dGc/uApN8jEQAAEmtY0lWeCT4+p9B7L3EAQDxQwAKACvhFi5sGtw+9xWXvl2khiQAAkBqhm74fuH+kdUX/bcQBAPVFAQsAxmHwgs4p4Z7w7XK9T9I8EgEAINVudvNPzVnefy1RAEB9UMACgDHYuPT0YyYGpYtdeq+kY0kEAICGGj79yuQfbV2x/nqyAIAa34GJAACObPu5pxy1LzPhXRb4++WaTiIAADT0IKpXbh9rWdl3tUlOIgBQk3svAOBQni5cmX9A0jEkAgAAnjGYopAFALW75wIAnmtTPndsULb3mnSxKFwBAIDDj6r6LLSPUsgCgGreagEAT9vcdeoMs+x7KFwBAIBxWG/un25Z1P9tW6aQOAAgOhSwAEDPKlz9raSjSQQAAFRgfyEru/A7ViiUiQMAKkcBC0BDGzjnhcdZU/M/uvxdkqaSCAAAiHC01WfuH2lZ0b+cpYUAUOktFQAa0OAFnVPKT/jfsDk7AACogfXm9pHWlX0FogCA8aGABaCh9OdzE6aHwYVy/7CkFhIBAAA1dItk/9y2ou9nRAEAY0MBC0BD8GUKBu/s6HHzT0o6kUQAAEAd3RiG/o9zV/WvIwoAGB0KWABSzSUrdrV3yfQxSaeRCICIbZdpi1ynSJpEHADGIJT0nSATfKil0LuROADg8ChgAUitLT0drzf3T0h6CWkAqJjrLplulfyXZbNfl4564r75lz44NNCVe6XMfka/CsA47XOzrzYF4cdmFfoHiQMADo6OFoDUKS7NvVSmT7jZ60gDQAVc0q3mWlnK+qp5hf4Nz/sDyxQUe9t/JenFxAWgQk9K+vxwmP30/FXrdhMHADwbBSwAqbGp57STM8p8Uq4u7m8AKvCoTN+S7Etty/vuOdwfLPbk3uZulxIZgAjtNNd/PDE09MWTb9gwTBwAsB8DPACJt7nr1BmBsv8m07skNZEIgHEqyvXJYGrw9ZbLe5880h8evKBzSvhkeK+kOUQHoAo2mukDLcvXF2z/jFAAaGgUsAAkVn8+N2F6GPyN5B+UazqJABinbTL7VDmY+qV5hVv3jvYvbeluX2bSh4gPQJUHbLeagr9vWdH7S9IA0OD3QwBIni09uXPM7bOSTiINAOMUSv61iZmJ/3RsYe2jY/mLO/OLjx4qDz8o6RhiBFALbrouK7t49vK+B0gDQCOigAUgUQZ7Fr4s9OAzkl5BGgAqcEvo/q65K/vvHM9fLnZ3/JvLP0KMAGps2F1f2OfZT7DRO4BGQwELQCJsOa99nmX0cUlv5d4FoAIjLn2iLXPaR61QKI/nAw7sffWgpOOIE0Cd7HS3/9ydDT+bK/TvIw4AjYBBIIBY25bPTR0p2z+Y9H5JE0kEwLi57vIgfOuc5XfdUcnHbOnqeL+Zf5JAAcTgxnafefDB1pV9BbIAkHYUsADEszu2TEGxt+OvJP+opJkkAqBCXx+e9sTfzL/0waFKPmTjhSdMbH5s6oOSZhMpgNj0m2Q/ybhd3LKydz1pAEgrClgAYmegp/3F7vqiSS8nDQAVKrnbB+es7PtURPent8p1ObECiOP9TvJvhF7+l7kr79lBHADShgIWgNjYls+1lMr2KUkXcH8CEIGtHqh7ztXrb4nqAwe6238hXiIBIOZdKjf9c1vH+kttmULiAJAWDBAB1J0vWZItznjk3XJ9WNLRJAIgAr8tW/msecvvvj+qDyzmcwu9bP1ECyAhI721YWjvmbuy71bCAJAGAREAqKdid+41xWMfuUOuz4niFYBoRm2/skzTmVEWryQpLNu7yRZAYrgWB+Y3D3S3XzbY1TmLQAAkvodHBADqYSCfO17l4DOSn08aACIbr5muC4Oj/nhe4da9UX7uxgtPmNj86NStMk0jZQAJHPXtcteH2nYe9yVbs6ZEIACSeSsDgBrqz+cmTA/tnXJ9TNJUEgEQoeuf3DvUc/ING4aj/uCBno6lcl9JxAAS7h4Furjt6vU/JAoAScMSQgA1M9jV/sbpZbv7wHJBilcAorRyV8a7q1G8kiSF3kPEAFLgVIX6v2J3+xUPn3tKG3EASBJmYAGouk35RXMyYfkLcnWTBoAqWNl6XPOb7JK1I9X48PvPWtA8ZdLErWKfPgDp8qi5/2vLov4v8bZCAEnADCwAVePLFAz0dFyUKZXvongFoEpuGp72xJ9Uq3glSUdNnPgHongFIH2OdrP/Lva23zbQ0/5i4gAQd8zAAlAVW3oWnmEefEXSS0gDQJX8pqk08tqZq+99vJpfMtDTcYnc/4q4AaRYyU2fy0wOlrVc3vskcQCIIwpYACK1LZ+bWgr1Ebm9R1KWRABUhetelfa9su3a+x6p9lcVu9vvd2kBoQNoAA8Frr9pWbn+OqIAEDcUsABEZrCr/Y2h6b8lvYA0AFTRzrKVXz5v+d33V/uLtpzXPs8yepjIATQSN12nkt4155r1m0gDQFywBxaAim3vPq11oLv9stB0rSheAaiuEZOfX4vilSQFgb+GyAE0GnO90TK6e0tXx/s9n8+QCIA4oIAFYNye2qR9xDP3SLqARABUf1Rlf9O6ov+mWn1daKKABaBRTTHzTxbL99xW7M6xpymA+ncDiQDAeAx2dbaHFn5DbNIOoGa9Fv9s2/L+v6/lVw50td8j0ymED6DBlcz8M0NHPbls/qUPDhEHgLp0BYkAwFj4kiXZgek73mfmH5bUTCIAatRhuXVnxpfkCv37avWdgxd0TgmfDB8TM9YB4Cm/Nbe/bF3Z91OiAFCH/iAAjHIwd15HR5jxb0h6MWkAqKGtpdLIi45ffe9ATe95PQtfFnrwS+IHgGdxyb+azeh9swr9TxAHgFrhN4oAjqg/n5sw0J37SJjxtaJ4BaC2SgqCfK2LV5JU9qCd+AHgeUyyi8plu2Ogu+P3iQNArVDAAnBYm7tyi6aXg19K9m+SmkgEQG35h9uu7v15nTpJi8gfAA5xd5YWSL5moDv3le3nnnIUiQCoQd8MAJ5v44UnTCz25D4ZmP1G8jNIBEDtR0f+89bMwv+o3+DMTqYRAOCwTLKLRrLZ3i09Ha8nDgBVvuEAwLMNdne+PFT4DUmnkQaAOnnUwuzpravWPVivAxjo7lgveY6mAIBRjy4L5cDfMa/Qv5MwAESNGVgAfjdYO2fx5IGe3H+FCn8hilcA6sjN31nP4tWBo5hDSwDAWG6bymfKdmexp+OPCANA1JiBBUCSVOzOvcTdLpfpFNIAUN/eiV/Ttrx/aT0PYfu5pxw1km16jMYAgHG7vKk08u6Zq+99nCgARIEZWECD8yVLslu6Ot7vspspXgGIgR2ZEfvreh/ESKZpLk0BABW5YCSb7eVNhQCiQgELaGBbezpOLB77yBoz/6R4wyCAGHDz98xevX5rDI5kBq0BAJWyEyS/aaCn/fP3n7WgmTwAVIICFtCIA0TJtnS3v6fsvl7SK0gEQCyGObLVc5b3XxGLg8nYZFoEACIac7reO2XyxF8OdnW2EweA8d9MADSUbflcS7G7/VqTviBpEokAiIk9CjMXx+ZoyppKkwBAhFynhxbetqWr4/2+jHEogLHjxgE0kGJXR75UtvWSziYNAHFipmX1f+vgMw9IU2gVAIjcRDP/ZLG3/edbl7afRBwAxoICFtAAduYXHz3Q3X6Zm18liX1dAMSM9bfMaP5crA7JKWABQBX9Xtl0+0BPx0VEAWC0KGABKbelp+P1Q+Xh9ZIuIA0AMeSm8D12ydqROB2UyTM0DQBU9UY7Te5fGehuv3rgnBceRyAAjoQCFpBS95+1oHmgu+Oz5v5DSbwOHkA8uX2vdUX/TbE7rCAYoXEAoCZ61DShd/P5na8jCgCHQwELSKHBfOf8yZMmrpH8byUZiQCIqb2y0j/H8cBcXqJ5AKBmWoMw/NFAT/vn+/O5CcQB4GAoYAEpU+zK/VlYDntNejlpAIg3+0zbirsfimUHKaSABQC1fijI9d7pZfsFG7wDOGj/jAiAdNh+7ilHDXS1X+5m35J4/TuA2NvavHfvp+N6cG4BBSwAqI+XlE23D3R3/AlRAHgmClhACgz0tL+4lG26Xaa3kgaAZPAPzrhhw2OxPTqFT9BGAFAnpmmSf2egu/2rA+csnkwgACQKWECyh3+SDfS0XyzXzS4tIBEACXF/686Zl8a7h2SP0EwAUHdvV9Pw2s1Lc6cTBQAKWEBCFfNnzCx2t18r1+cksdklgMRw93+3NWvivUTPgh20FADEwqlBYLcO9LRf7LycCGhoFLCABBrsyr1W5dI6SWeTBoBEMfW1Leq/Ku6H6aV9zMACgPiYKNfnij25lZu7Tp1BHEBjooAFJIgvWZId6G7/RGj2I5e3kQiAxHU8Qv2LLVMY9+Ocs+ieXVL8jxMAGqszbOcFlr1jS3fuFYQBNB6mYAIJsS2faymV7AqZlpAGgIT6TduK9S9JysEOdLcXJbXQbAAQOyNyf3/ryv7PmeTEATQGZmABSRhEnd/5qnI5WEvxCkCimX08SYfr0oM0GgDEUpPM/muwu2PVxqWnH0McQGOggAXEe/C0/y2DYfhjlgwCSPgN7a7Wjr7VSTpkc9tIwwFAnB8tfm5zUPr1pp72TtIA0o8CFhBTO85aMK3Y3XHVgbcMNpEIgEQPMgL/WBL2vnoW8wdpOQCIvZMzrl8NdOX+iiiAdKOABcTQlp6FZwxPmniH5OeTBoCkM2lDW7DwqsQduDszsAAgGSbK7JKB7vavbbzwhInEAaQTBSwgZga6cn9lHtwi6UTSAJAK7p+zQqGcwE7Sb2k8AEiUv2x+7Khbti5tP4kogPShgAXExMYLT5g40N3+VZldIonfHAFIB9OuTFbfSuKhh6WRXhoQAJLGzyibbi9251jJAKQMBSwgBjb1nHbyxMem/krS20kDQLrGEfryrEL/E0k89LZr73tE0iCNCAAJY5rmsqsGeto/7xctZi9ZICUoYAF1tqU7d24mzPzGJd6eAiBtRkIF/5vwc+ijGQEgkUyu9xa3D/+wmD9jJnEAyUcBC6gTl6zY0/HvJlsp0zQSAZC+kYOWz13RuznZN2ungAUAyX4YLfHyyG1behaeQRhAslHAAupg+7mnHFXsbl/u7h/m5xBAWrnsS4kf9wRiHywASL4XmAc3D3R3/AlRAMnFwBmosU353IKRbNMtkrpIA0CK3d26ou/nKegp3UZTAkAqTJL8OwPdua/4kiVZ4gCS2C0DUDMDPbk/zIT2a0ntpAEgzcz9f0zypJ9HS6H/bkm7aVEASM0T6qLisY/cyL5YQPJQwAJqZKCn/WK5XS/XdNIAkHJPNGcnfjsVw5z9RThmYQFAurzayyO/GVjasZgogOSggAVU2cA5iycXu9uvkOtzkjIkAiDtTCocW1j7aHrOyH9JqwJA6hyvwNcUu3PnEwWQDBSwgCra3N05V03DP3XpzaQBoFG47NI0nY/JfkWrAkAqTXXZVcWe3Cd9GWNjIP59MgBVUezOvcZlV0k6jjQANJCNrSvWn5SG/a+esimfOzZTtu3iF38AkGbXT8w0/2m6ZhAD6UJHDKiCge7c2132A1G8AtBgTPpWmopXkjSv0L9T0jpaFwBS7eyh8vBtW/KdpxAFEE8UsIAIeT6fKfbkPinZVyU1kQiARrsNBqG+ndJzu4nmBYDUO9nK4S3F89uXEAUQPxSwgIhsy+emDpbvWeFu7ycNAA3qltmr1v82jSdmFLAAoFEc66F+UOzJvY0ogHihgAVEYFN+0ZxS2X7q8nNJA0CjcunKtJ5btjTyM0kjtDIANIQJ7nbpQE/759ncHYgPfhiBCg32LHxZplz+jaQXkQaABhaWSyPL03pyM1ff+7hJv6GZAaCBuN5b7O24cuCcxZMJA6g/ClhABYrdufNDD34iqYU0ADR4J/9nx6++dyDlZ/kDGhoAGu4Bd74mDN+85bz2eWQB1BcFLGBc4zTZlq6O97vsSkn8RgZAw7NAVzXA3f/7tDQANGTn//QgY78cWNqxmDCA+qGABYzR/WctaC52t19q5p/kZwgAJElh1sur0n6SLZ39ayVtpbkBoPG4vE2Br9nS1XEeaQD1weAbGIPNXafOmDJp4g8l/RlpAMBT7LaZK+4upv4slymU2//R3gDQsKaa+cot3e3LiAKoPQpYwCht7lr0wsCyv5b0+6QBAM8UXtcoZ2oBywgBoMGZSR8a6G7/X8/nM8QB1A4FLGAUNnd1nBlY+WZJJ5IGADxb6Lq2Uc51qJz9oaQRWh0AGt47i+Fdy3lDIVA7FLCAI9jSnTs3ML9R0nGkAQDP8/Dclf13NsrJzl+1brekNTQ7AEBu56lp+KZi/oyZhAFUHwUs4DAGutrfYbIV4k2DAHBwpsZbUudaQcMDAA54qZf3/WJrTwcrNYAqo4AFHHRsItvS3b5Mpi9JYm07ABz6hvnDRjvlTFkrJYU0PgBgP3th2f2WgaUdi8kCqB4KWMBzx2JLlmSLPR1fMelDpAEAh1UeGbY1jXbSs1ev3yrplzQ/AOCZjwcF/tNid/vZRAFUBwUs4Bm25XNTizO2r5b7X5EGABzRr15wfd+uRjxxc62k+QEAzzHFpWsGejouIgogehSwgAO25XMtpbL9VG5nkQYAHJlLP2rUc7dssHx/BAAAPEtG7l8udnf8G1EA0aKABUjaku88pVS2WyS9iDQAYHQsCH7cqOfeUujd6NKvuAoAAAd7RLr8IwPdua94Ps9+ukBEKGCh4Q12d77cyuHNkuaTBgCM2vDw1Mdua/DRyRVcBgCAwzwpLhos371yU/7MSWQBVI4CFhpasTv3mlDhDyXNIA0AGJPb5l/64FBjd6KC70kqcSkAAA7FpXMypcd+sDO/+GjSACrtewENaktXx3ku+76ko0gDAMbs540eQMvK3m1y/YRLAQBwWGavGirvu2mwq3MWYQDjRwELDWmgu/0CM79a0kTSAIDx9MXtF6QgmRnLCAEAo+BnhBbeurWn40SyAMaHAhYaTrG7/X2SviUpSxoAML5e+L4h3UoM0oS9e1dIGiIJAMAonFh2X7Ml33kKUQBjRwELDWVLV8f7Xfp/kow0AGC8/P4XXN+3ixykGTdseEyy60gCADBK86wc3jLYs/BlRAGMDQUsNMZQS7KB7o7PmvknSQMAKvYbInjmQ8ZZRggAGItjQw9u3NLT8XqiAEaPAhbSP65YsiRb7Or4puR/SxoAEAEL1hLC7zw5NHS9pN0kgXEalrSKGICGM9Xcrxvobu8iCmB0KGAh1e4/a0Fz8dhHrpL520gDACLizMB6ppNv2DBsrhUkgXHYoSD4A5dNIwqgITVLuqrY3XEhUQBHRgELqbUzv/joKRObfySJ32oAQHS8qbTvDmJ4tjDgbYQYs3syZi910zaTv4Y4gIaVdfnXi925dxEFcHgUsJBKm7tOnTFUHv6JzF5FGgAQqQdnrr73cWJ4trbg1JskFUkCo3TTyLD93uzlfQ9YWP5r8XIZoOHH5S77n4Gejg8QBXCYHxQiQNoU82fMzFj2J5JeRBoAEC039ZPC81mhUHbXt0kCo3DZroz/fy+4vm/XpvyZkyS7kEgA7H/I+n8Uezr+nSCAg6OAhVTZls+1eLl0k0udpAEAVeg4uN1FCgdn0jdJAUfwtdbO9X+eK/Tvk6Rs+NgfyzWdWAA8xd0/PNDV/jGSAA7SDyUCpMW2fK6lVA5ulDxHGgBQpY61fD0pHFzbyvV3u/RLksDBmOsbrZ3r/9qWKXz6X4a6gGQAPP+GoX8d6G7/fwQBPBsFLKTClvPa55XL9nOKVwBQZSEzsA475nD/Bing+ReGfbVl0fq/embxauu57bPdbAnhADiE9w10tX/O2SMPeBoFLCTeQD53vGV0k0sLSAMAqqt5eO/9pHCYfIaGr5S0hyTwDF9v7eh7x7NmXkkqZ/QmSRniAXBIpouL3bkv+zLG7YBEAQsJt3Vp+0kq288lnUQaAFB1j8y4YcNjxHBoB/K5miSwf/BpX21d8eyZV88YmL6JgACM4kZyUbG3/SsUsQAKWEiwzV2LXlgOtEbS8aQBADXpRP+WDEaRUsBm7pDcdF1rcOo7TfLn/reBfO54SWeSEoBRenvxzo5v+5IlWaJAI6OAhUQa6Go/LbDyGklzSQMAasPkG0nhyFquXv9TSRT7GvpnRbeGwVF/bIVC+aD/vWx5sa8NgDHdWPwtxek7LqOIhUZGAQuJM9DVfppMP5bUShoAUDvuFGVGNcaQ3GTfIomG9YB5sHRe4da9h/xZks4mJgBjf8D4W4rH7rjCL1rcRBhoRBSwkCiD53V0yPQzUbwCgHrYTASjE5b9Uukg+x4h7baXM/6HLSt7tx3qD+w4a8E0Sa8kKgDj4+cXHxm+kiIWGhEFLCTGlnznKWHGfyjpONIAgDp0mc0HSGF05lyzfpNcN5JEQ9nrgZbOK/RvONwf2jep+Q2SGHgCqERX8ZHhK1hOiEZDAQuJsLlr0QutHN4kqYU0AKBOnYZQg6Qwem76Bik0UnP7n825ev0to/iTZxEXgAj0FI995FLP5zNEgYbpixIB4m7r0vaTAiv/RCwbBIC6Ct2KpDB6+6Y9cY2knSSRfu76f60r+q8+4p+TzE0UsABE5U8Hynd9zZcxrkdj4EJHrA3kc8eXA/1I0hzSAID6jtHbZjczA2sM5l/64JBM3yaJ1LulbWbzv47mD27t6syJX8gBiJDJLhy8s/2rFLHQCLjIEVtbzmufp7KtkTSfNACg7j3k3XbJ2hGCGGts4SWkkGqDTSqfP9qfjVAhm7cDiJyb/mKwN/d5l4w0kGYUsBBLW89tn20Z/VAUrwAgJr1j7SaEsWtdfle/pJtJIpVK5vbmmSvuHv3SWuPtgwCq9Zi2vyl2tX+WJJBmFLAQO4NdnbPKGf1E0qmkAQAxYXqUEMYZnflXSSGF7er659aVfT8d41+jgAWgms/qiwe6cp8hCKQVBSzESjF/xszQ/CcyLSQNAIgRp4A1XqVg2lUy7SKJNI0RbXXLyvVjGiRuOa99nqQXkB6A6t6g7O8HunMfIQikEQUsxMbmrlNnqDxyo+Q50gCA2A3YKWCN07zCrXvN2cw9RbaZ21+Z5GP6W1ln9hWAWj21/22gO/dBckDaUMBCLOzMLz46sOwPXeokDQCIH5c/TgoVDCU8YDP3tPwsuF3UsrJ325ivgVAvJj0ANXzyfLTY3f4+ckCaUMBC3W3KnzlpqDy8WtKLSAMAYtoNlvaRwvi1rOxdb9KtJJH4n4NvzlnZd814/q5bcDoJAqgllz490JX7K5JAWlDAQn1vqhctbsqUHy9I+n3SAIA4d4J9hBQqZczCSrbN+4Zt3LMZTM4scwA1f/DI7EvFnvY/JgqkAQUs1G8wtExBcfu+b0k6mzQAIOb3bAsoYFWolJl6JZu5J1Zo8j97wfV942q/gXzueEnHESOAOsi46/Li0o6ziAJJRwELdVPs7fiMzN9CEgAQfxZ6iRQqs38zd/8OSSTxB8A/37qi/6bx/nUv63RCBFBHEzzwqwe6crxMAolGAQt1MdDV/jHJ/5YkACAZPBAzsCJgZTZzT6CN2jexord5GS+pAVB/kxXY6sHzOjqIAklFAQs1t6W7/T0y/StJAEBymFPAikLLNX19Lv2SJBLUWXa9t+3atXsq/Al6IUkCqDvX9DDjN27Jd55CGEjkM5kIUEvFrtyfmfR5kgCAxPV6WUIYFdNXCSExbbWiZeX66yr/GC0gTAAxMcvK4Q8P7M0HJAoFLNTMQE/HUjf7+v5+HAAgUeN4CyhgRSQMjrqCzdwTYY+Vs++L4oOcAhaAeDle5eD7m7tOnUEUSBIKWKiJwa7ca+X+PUlZ0gCA5HFnBlZU5hVu3euy75JEvJn0762r1j1Y6efsOGvBNEkzSRRAzJ7sucCy399+7ilHkQWSggIWqm6wZ+HLQrNrJDWTBgAktJvLEsJo8wxDlhHGmamv5bjmL0TxUcOTJjP7CkBcvXQk27Ti/rMWME5DIlDAQlVt7lr0wtCD6yRNJQ0ASPB4niWEkZq7sv9OyX5FErHk7v5Ou2RtJC8uMJVPJFIAMfb6qZMmXurLqA0g/rhIUTXF/BkzAytfJ+k40gCAxI/oeQth1JnKmYUVT9+ds6L/5sja2WwOkQKI9/NIby72tv8nSSDuKGChKgbOWTw5LI+slnQyaQBACjoMJmZgRcxGmq+QtJskYmVfxuzfI/3E0FuIFUACvG+gO/e3xIBY90eJAFHzixY3qWnfcpNeThoAkJJ7OzOwItd27do9kq4gifgw2edmL+97IOLudivJAkjIXfAzxa6OPDkgrihgIdoBjmSDjwx/RfL/jzQAIE0De/bAqoYw9EtIITZ2DIWZ/6jCD89sogWQlPqAm182cH7nq4gCsbxAiQBRKnbnPuzSn5MEAKSM+R5CiN7cVf3rJP2aJOJwjeuj81et2x39x3ob4QJIkIkKw2s39bR3EgXihgIWIjPQlfsryf6NJAAglaP7J8igOlxiFlb9/XZX4F+qUvvOJF4ACXN0xrX64XNPoQCPWKGAhUgUu9vPltn/kgQApJO7KGBVSWZK8D25HiOJ+jH5B3KF/n1V+vhjSBhAAr0gm236wcalp3MPQ2xQwELFiktzL3XpSklZ0gCA1A7xKWBVScvlvU8q0HdJom5+07Kif3k1PtiXLMlKmkTEABKqvTkoFfrzuQlEgTiggIWKbO3pONEDWy1pCmkAQHqFTgGrqvmG/mVSqA+Tlpnk1fjszTO3TyNhAAn3+mPL9i2XjChQbxSwMG4D57zwuND9BxJv1wFwULuJID3C8hAFrCqau7L/Tkm3kUTN/aZlxfrvV+vDM+XwKCIGkHQuvbnY3f4xkkC9UcDCuPTncxPUNGG5SwtIA8AhnjBvGhm2Y03+Usne4a6rJG0nmGSaMlKmgFX1EYJ/lRBqHLn5R6o1+0qSAm+igAUgLf6l2JN7GzGgntizCOMyvRRcIvPfJwkAhxTqz15wfd8PtX9WyW2SvuKSFc/vfKWF4Z+7lJc0laCS4dipZzwpbSCIanbKsrqiVNZnJFH0qAXT2rbl/ddV+Tu4xwFIDXf7ysD5nQ+0Xd37c9JAPTADC2M20NPxAZlTfQdwJF3bzz3lqGeP5eRtV/f+vHXF+r/IZrxVrotNNkBUsbfXCoUyMVTXrEL/EzL7HknUaiBW3dlXkhR6mV8WA0iTZoXhiq1L208iCtQDBSyMyUBXe7fcP04SAEZhcqkp2324wXrbyvVfGJr2+Elu9h5JW4kstlg+WCNWDr9GCjVxe9uK/mur3p6mJqIGkDLHlQNdt3Hp6ccQBWqNAhZGbWBpx2KZLue6ATBa7vbHR/oz8y99cGjO8r7/Hg6zp0r6kqSQ5GLncSKojdZV/b+WdCdJVP3eVPXZV5IUujEDC0AandoclAp+0WKK9KgpChEYlU35RXMs0GpJk0kDwBi8bmd+8dGj+YPzV63b3bZi/btM/nK57iK6WNlJBLXjZszCqmrAuqttZd/qmnS0KWABSK/XFx8Z/iIxoJYoYOGINuXPnJQpl1e6vI00AIxR81B539lj+QutK/pvGz76icUyfYH44sIeIYPamRRMuFzSHpKoDg/0mVrMvpKkMBNSwAKQZn890J37W2JArVDAwuE7ecsUZMqPf1fSS0gDwDh1jfUvzL/0waG25esvdunNYvlaDITMwKqhYwtrH5W0nCSqYnDPnqHv1K4jJSNyAOlm/2+wq/2N5IBaoICFw/fyejv+Q9JSkgAw/gGcv2G8eyTMWbH+yqBsr5D0EEHWsw1tOyHUfEDAMsLq+OLJN2wYrllHOwxGiBxAymVC0xWbu3KLiAJVf64SAQ6l2N1xocv/iSQAVDYO17SBR4ZeOt6/3nJNX1+TymdK+g1h1qkJzXaQQm21rej7maS7SSJSe0IvfaWWXxhmRAELQCOYGphdvym/aA5RoJooYOGgBrpyr3T5V0gCQCRcb6jkr89ccXcxmBIskXQjYdaj/VhCWA8mfZ0UoszTvzF35T01Lcaa2TDJA2gQc4Jy+er7z1rQTBSoFgpYeJ4t57XPk9nVkiaQBoCIRnFvqPQjWi7vfXJ42hPnSPo+gdZWKDEDqx4yTZdJ2kcQkSgHFny25h1tL9F+ABqnuye9fOrEif9LEqjac5UI8EwbLzxhomW0QtJs0gAQYYdm8eAFnVMq/Zz5lz449OTeoW6TrSbVWvYWAt5CWAethTu2y3QNSURyF1o5e3nfA7X+1tCzLCEE0FDc9BfFrty7SQJV6ZISAZ6p+bGpX5H0YpIAELEmPVF+WRQfdPING4Z3ZsK8pB8Qa62UmYFVr4FAqK+SQuXM9d91asC9pA+g4Z5dZp8d6O74fZJA1Chg4WkDXbm/k/RnJAGgOp2Z4BVRfVau0L9PI83dkm4h2RooMQOrXtpWrr9R0m9JoiJ3t6zs+1k9vriczTxG/AAaUJPkKwbznfOJAlGigAVJ0mBX7rUy+0+SAFAtLn9FlJ/Xdu3aPZZpWirXvaRbXZlpAZu414lJLtM3SaKSe4++ZJLX47ubVXqUFgDQoGaEYVjYlD9zElEgKhSwoOLS008Iza6UlCUNAFW0OOoPbC3csT3IBmdJYoZQ9TzRcnnvk8RQP6WRkW9KKpHEuDw5KdN8Wb2+fGah/0lJZZoBQENyLc6UH+fN9ogMBawGN3hB5xQPSqskHUcaAKrsuC3ntc+L+kNbCr0bTf7HktgsuTq9zwEyqK/jV9874Kb/I4lxMPvusYW1dZsFdWAGHcsIATSyCw5sVQNUjAJWIw9JJPMnw69JWkQaAGoi66dX42NbV/Tf5NL7CLgqQ/AtZBCDVghZRji+zo59OQYdLgpYABr8IWafHujK/X8EgUpRwGpgA10d/+TSm0kCQO0eOsEZ1frsOSvWf9Fc3yDlyAsAg4RQf7uyfp2k7SQxhktX+mXbit7bY3AovMUTQKPLyOzbbOqOyscSaEhbutr/wMw/ThIAajui9NOq+fFDRz/xbpN6CTrKIoBvJoX6yxX698n1XZIYQyfX/UuxOBDzrbQGAGiGl8NVgxd0TiEKjPvZTgSNZ2tPx4kW6EpJGdIAUEsuO6Wanz//0geHzIM/lbSXtCMaewfMwIqLUM4ywtF7tJSdVojFfc9FAQsAJLnUGT7hXyUJjBcFrAaz8cITJpblV8k1nTQA1KHr8kKXrJrf0LKyd71cf0/WUQ2+nT2wYmLuyv47JbuDJEble/MKt8aikG0uisAA8Lub4luKXbl3EwTGgwJWg2l+/KgvyKN/lT0AjNKULd2dc6r9JW0r139Z0krijqCfKSuSQny4sc/bqHIKdFmMfoiYgQUAz3qW2WeKS3MvJQmMFQWsBjLQ3fEncv8rkgBQ1wdPoNps4Dmy7yJJ20i8MpmQGVhxEgbhdyUNk8Rh3d929fpb4zNQo4AFAM/R7IFdPXDOC48jCoxpHEEEjWGwq7NdYr0xgDiMwH1eLb6m7dr7HnHzvyXwypTLzczAipF5hf6dMq0micO61CSPy8GYBxSBAeAgjzQ1TbjC83n2ZcaoUcBqANvyuamhhVdJmkwaAOrNXfNq9V1zlvdfIdMKUh/vyFu72q5du4cgYtYsZWMz90MLvazL43VIpYdoFgA4qNcXy3f9MzFgtChgNYBSaN+QdBpJAIjFg8fCubX8vmzg75ZpF8mPpxQgZl/FUEvTqT+UxKyeg/vxnGvWb4rTAbXunL1FUommAYCDsWWbz+98HTlgVOMIIki3gZ72i+XKkwSAuHAFLbX8vlmF/kGT/pXkx9On1CZCiGGzFApluV9OEgdN59LYHdGaNSXJN9M2AHBQmSAMv7spv2gOUeBIKGCl2OaujjPl+jRJAIgV95pv2NkSnHaJTGsJf6wjb20khHgKlf2mYrTPUzzuLXqsnJka07ePGssIAeDQZmXK5Sv9osVNRIHDoYCVUgPnvPC4wPxKSdwEAMRsHKeaF7CsUChb2d8lKaQBxlAPcKeAFVNzV955n6RbSOJZ95ZV8wq37o3nD5M9SAMBwGG9orh96JPEgMOhgJXGAccyBWqa8G2pdhslA8AY1OWVya2r+n8ts68T/5g6CQ+QQqyf+JeSwe9YaN+L7bGZfksLAcARb5Z/V+zOnU8QOEzfFGkz2NfxQUl/SBIAYurouvWLguy/SnqUJhgdN2aNxFlTqXSlpCdJQpK0s2XWhBvj+8Oke2giADhyV81lX9uUzy0gChwMBayUGTi/81Xu/u8kASDGJtTri1sLd2yX9CmaYHTKgTMDK8Zmrr73cUnLSUKS2XK7ZO1IbH+WFN5HIwHAqBydCe17/fncBKLAc1HASpFN+dyxCsPvSMqQBoAYy/iSJdm6DSQzR31OEm8EOxLXY/MK/TsJIt6MZYQHLlddFevjy067T+zBBwCjvakvPia0jxMEnosCVppGhGX7utj3CkACbJ45XLcXTMwr3LrXzD9IKxwBbyBMhJYV/Wskf7DBY9jetmPGmjgf4IHN5TdxxQLAKLshrvcNdrW/kSTwTBSwUqLYlXu3pKUkASAJSiN7m+s66O/ov1zSnbTEYXuODxJCAppJcjNd2eAxXG1r1pQScJzsgwUAY3jEhaavbcvnWogCT6GAlQLFnoU5N/s0SQBIikkW1nVfA1um0N0+REscFvtfJac3d1mDj3G+l4SjdFMfFysAjMnsUsm+5cuoW+CpLg8SbeCcxZM9DK6SNIk0ACRFOQyb630MbSv7Vku6ndY4hJA3ECZFa6H/LjXujMJia2ffL5JwoObq5WoFgLHePPWGgd7cPxAEJApYydc0/HmZFhIEgCTJmur+ZhmT3OUfpjUO2UFgBlaCuPy7DXrqq2xZMjZHLxvLlgFgfH02+/jmro4zSQIUsBKs2NWRl/R2kgCQNOWMNcXhONpW9F8r01pa5Pk86xSwktReynxXjfiWO/NrknKojwV+j6R9XK0AMGbZwPzyHWctmEYUjY0CVkIVl55+gptfQhIAEvnwCWw4FmNfZmEdSmmntIEYkmPuit7NLlvTYKf96K5ANyXlYHOF/n2S7uZqBYBxOWl4UvOXiKHBxxBEkDy+ZElWQem7ko4hDQBJZMPhnrgcS9vy/uvE5srPfdI8cGCwjUT9YPl3Gup0pRsSeJ2yjBAAxn/n/5Nid8eF5NC4KGAlUPHYRz7sEmuAAST44TMSmwKWSW6h/z9a5ZmZBPeQQvJM3DN0taS9jXK+obQqacfsZrdxpQJABfdR+X8P9HScShKNOoZAogx0d/y+pA+QBIAkO65l6lCcjqdl5sQrJG2iZQ4UBtzvJYXkmXHDhsdkuq5BTnd44t6hGxLX8S6Hv+ZKBYCKTJH8237R4iaiaDwUsBJkWz431eRfp90AJNyIXbJ2JE4HZJesHTHp8zTN070DZmAllIfWGMsIzX8y44YNjyXtsHc2aZ2kYa5UAKjkYafFxUf2/TtBNGIXFckZ8ZX1RZcWkASAhHc6YrnEKVsauUTSbhpIklHASqq2mRO+L2lH+u8jwTVJPOwDe3b1cqUCQMUPgn8ZOL/zVeTQWChgJcSWro7zTHYhSQBIPNOeOB7WzNX3Pu6mr9FAkpdLLCFM6o/XJWtHZCqk/RItlfZdm9iDN2MZIQBULlAYfn3wgs4pRNFIjY7YG+zqnGXml5AEgJSI7SbTWdmXJIUN3j7b5668ZweXaXK5+7fTfYa27vjV9w4k9ujlv+QqBYBInBzuCXkRTwOhgJUAoYX/K2kWSQBIiV1xPbDZy/secNP3G7x97uYSTba2Ff23SHogtSfonuif0dCDNVylABDVM0F/XexuP5sgGgMFrJgb6M69XVIPSQBIkWKcD85C/58G7wmy/1XCmeRyXZHaK9T8hiQf/9wVvZsl/ZYrFQCieey59I3Brk4mfDQAClgxNpjvnC/Zf5EEgLTd3uJ8cK0r+38g+X2N2w0M2P8qFT08S+cyQtOutp0zf5WCM1nDRQoAkZkVWvgVYmiA7g0RxJMvUxCWyt+SdBRpAEiZbfEeH8vl+nKjNo65U8BKgbblfffItDaFp3ajrVlTSsF5/JSrFAAitXSgu/0CYkg3ClgxNdCb+weZ8VpQAOnj8Z6BJUmhypdJGm7E5gnL6uUiTQv7bupuH6HdkIrzKDMDCwCq4IsD+dzxxJBeFLBiqNizMGeyD5MEgFQOqWXFuB/j3JX37JBpdQM2z84516zfxFWaDqHbVZI8Rafk5fK+H6ThRA78nD3AVQoAkTpaJX3bl1HnSCsaNmbuP2tBszz4rqSJpAEgjdy0NSGj/280YPPcyRWaHnNX9G526VfpOSNbd/zqewdSczbOLCwAiP7maq8q3pm7mCDSiQJWzEyZNOmDLnWSBIC0Cj0YTMJxtmYX/khSg81GMgpYqevHWyE9Z+P/l67WcfbBAoDqPPw+vrlr0QsJIn0oYMXIlp6FZ0j+fpIAkGbN5aFiEo7TCoWyZN9qqP4eM7BS2NMLr1ZKlhGa/EdpahrPMgMLAKpkUqDS11hKmMJuDRHEpBNz0eImU/ANSU2kASDFts1cfe/jSTnYjOmbStceQocVWpkCVsq0FfofTskywr1D0568NW1tI2kjVykAVIHZqwZ6299NEOlCASsmBh/Z9wG5TicJACm3IUkHO3t53wOSbm2QthnZs2ffXVyiaezDp2IZ4c3zL31wKIXN8xOuUACo0vNP+o/BfOd8kkgPClgxMNDVfprL/5UkAKSe2/3JO2S7okE6eXeffMOGYS7SFP7YlbyghM8kdLcbU9o813OFAkDVTAnL4dddMqJIBwpY9e6QLVmSlelbkppJA0D6nzqeuAJWEGSvlFRK/fOI/a9Sa8416zdJ9uskn4MF/uNU3hKnBD+UNMRVCgBV85pid8dFxJCS5yYR1Fdxxo5/kPQSkgDQCExKXAGrtXDHdkk/boC2oYCV6vb1JC8j3N0anHZHGtul5fLeJyXxNkIAqCb3/xzI544niOSjgFVHW/Kdp8j9QyQBoHH6D8GGJB63mad+GWFoRgErze1b1lVK7jLCm/a/FTSdzP1arlAAqOaNVtNUNpYSpgAFrHoN4pYpsHL4DUkTSQNAo2jeuyeRBawJe4ZXKuXLfDKh9XKFpleSlxG6Wao3OncLr+MKBYCqe/1gd8fbiCHZKGDVSfHO3MWSfo8kADSQrTNu2PBYEg98xg0bHjPZD9PaMCYbaFnZu41LNN2SuozQQk/1Et62FXc/JFMfVygAVJeb/9f27tNaSSK5KGDVwaZ8boHMPkYSABrMvcke/YcrUtuhk/+ay7MBOu4qX63kLSMcbFu5/u4GaByWEQJA9e+100cs+BJBJBcFrJr/zMgyZfuapMmkAaChmNYl+fBLga5VWt9GaPYrLtD0a1tx90OJW0Zo+nkjtE3oxjJCAKjJgNzO29KVezNBJBMFrBorduf+UtKrSQJAozG3RL9FbF6hf6ekNelsm5ACVqP8HCZsGaHLftYI7TJnUd+vJG3lCgWAGjwLzT730Nkd00kieShg1dDmrlNnSPYfJAGgEZU9vCPp52DylSlsmnDC3uG1XKGNIWlvI/QwbIgZWLZMoctv4AoFgJqY3dQcfpIYkocCVi3DtuxnJR1HEgAa0L5Hs0r8PjYjpdIqSWHKhs53J3VzfYxdwt5GuHvOov6G2dzcLLiGKxQAanbXffuW7twryCFZKGDVyObzO18n6a0kAaBBOwn9uUL/vqSfxfGr7x2Q7LZUtYw7ywcb7acxOcsIb7FlaSsYH9rwUY//n6RHuUIBoCYCk33ZL1rcRBQJajQiqL77z1rQHIThf0sy0gDQkANm9ztScy4pW+bjARu4N5qkLCN0b4z9r54y/9IHh+S2iisUAGqmvfjI8D8QQ3JQwKqByROb/0XSqSQBoGEHzAl/A+GzBtWm61PVNuXw11yhjWX/MkL9JvYHauEvGvBu+T2uUACoqX/b2tNxIjEkAwWsKtvcteiFZvZPJAGgkaVpBlbr8vVrJQ2m5HT2zNk9cz1XaONx6fsxP8S9e/YO/6bR2qV118wbJW3jCgWAmplUDv1LxJAMFLCq2zm0wMqXSJpIGgAaWCmbTc8MLJPc5f+XjgeVr7U1a0pcoo0nY2Hcl8L++uQbNgw3WrvYmjUlmVZwhQJATTt3b9jSlXszQcQfBawqGujquFDSq0kCQIPrnVXofyJVD0+zVOyD5bJfcnk2ptkdd92meM/0ublhx1GhsYwQAGp97zX73ENnd0wniZj3wYmgOjZ3nTrDzD9FEgAavkOQwoFoc9D8A0kjie8EmLP/VaP+XC5TKPmNcT0+N2/Y4mrLor6fS9rMVQoANTW7aaJ/ghhi3nclgmoF2/QZSTNJAkCjC81vTds5HVtY+6ikxBd/SpnsrVyhDSzGMwkzYaZh345pyxTKvMAFCgA15rpoy/ntv0cQ8UUBqwqK57cvkfmfkQQASObhLans47j/ONHtIm2YV7hzC1doA/9sBk0/kBTG8NB+27Kyt6E3MjfXFVyhAFBzgbm+7BctbiKKmDYQEUQ8oLlocZOH9t/7xwYA0PC2tK24+6FUDjAtSHQBy6Wfcnk2ttbCHdslxfFNfw2/N1vriv7bJP2WqxQAat5B6ihuH/obgognClgRKz4y9G7JcyQBAJJMt6T11HZlwl9KejLBp0ABC3KP3xs13Xi5wIEkLiUDAKhH/9U+tPXc9tkEET8UsCI02NU5S7IPkQQAPC21bxLLFfr3SfpFYk8g4xSwoEwMC5nmdgstI5Uz2W9KKpMEANTc0aWsf5IY4ocCVpQdDSt/StIxJAEAT7s5zSdnpqQuI3ygrdD/MJcnNDXzK0mlGB3R3tbjmvpoGOnAHnU/IAkAqEMfT/a2we7Ol5NEvFDAishgd+fLTfY2kgCApz3euuO4dWk+Qfdk7oNlLB/EAS2X9z4p050x+qH6jV2ydoSWedrXiAAA6tNdChV+0ZdRM4kTGiOKvtYyBaHCL4qN2wHgd/dG009tzZpSms+xtbN3naTdyeuSsXwQzxKbmZIu9r961j3muObrJG0lCQCoixcX78z9JTHEBwWsCBy4qF9MEgDwO+b+49Sf4zKFMr81acftHq7hCsXT13GMCliB7DZa5Bltc8naEXddRhIAUK8bsf3H5q5TZxBEXPoJqMhDZ3dMl9nHSQIAnvOA8cyNDXGibknbyH1T24q7H+IKxVNGRkZicw0HgdbSIs+5xSjzNUlOEgBQFzMylllGDDHpJxBBZbIT9VFJM0kCAJ5l2+yVvf2NcaoJK2C5/YTLE890/Op7ByTVv6hp2jVred9GWuTZ5q688z6l/IUYABDrrpPsnZu7cotIov4oYFWg2LMwZ+5/TRIA8LxH/Y3WIDMGnty791eShpPTCWMDdxz0yrg5BhfnWmOm0UGZ7OukAAB1kwnM/tvZ87ruKGCNfwBg7sH/SsqSBgA89x7ZOLN8Tr5hw7Ck3yTleLMBBSw8n7luqfsxyG6nJQ6RzRQrSHqUJACgbl450JN7MzHUFwWscSp2d7xF0u+TBAAc5OESZn/cSOdr5klZRrhx9vK+B7hC8Vxhxu6IwVGwgfshtFze+6Rk3yQJAKhjf8/t09vyuakkUccxBhGM3cA5iydL/imSAICD+m3rqnUPNtTgPwazV0bV8ZJfz+WJg2ky75UU1rVTagEzsA6jnAn/p95tBAANbk6pZB8ghjr2FYhgHCYM/52kuQQBAM/n0g8abvCf0a+TcaT2f1yhOJhZhf4nJN9Qx0PYyQbuhzev0L/BTd8nCQCoZ1dKf7/lvPZ5BFEfFLDGaLCrc5ZC/RNJAMAhHywNN8CaVegflPRwzA9zOJNx9r/CIbnbujp+PRu4j0aoLxACANTVJMvo48RQt3EGxtRvsPJHZZpGEgBwUHt9pPmmxjx1i/ssrJ/tn2UDHOIKNq2r33c7ywdHoW3l+hsl3U0SAFBXfzqwtGMxMdQeBawxGOhqP02yvyAJADikm9quXbunEU/c474BtbF8EEe4RML6zcAKw/oVzxLVRpKb6YskAQB1FSjwzxBDPYLHWHoNn5WUJQgAODg3u6FhH6hBzGdghX4DVygOJxuU1tWvi2V30gKjvM/ua/6WpJ0kAQB19eotXR3nEUON+9tEMDqDXbnXSvpDkgCAwwyAy41bJMmY/0ZSOaaHt6lt5XqWHeGwZq64uyhpax2+em/rruPupwVG58As12+SBADUl5l/pj+fm0AStUMBaxQ8n8+EgX2OJADgsO6evWr9bxv15A/sLxXXIhFvLsNoravDd/bbmjUloh9DBz4T/I/iWzAHgEZx0jFl+2tiqOHzjwiOrFi+68/l6iAJADgsiiTSHbE8Kva/wmi599fhW1k+OEYthd6Nkq0kCQCocxdL+tDGpacfQxK1QQHrCLblc1Ml+whJAMARHijuDV/AsngOxEcmBhNu4grF6H6Qg3tr/ZVu9ds8PsnCMPy4JCcJAKirGRMypX8lhhp1U4jg8Epl/ZOkVpIAgMPavSOrXzT8gNJiuBG16+ZjC2sf5RLFKK+Xe2r9lebqJfixm7uqf51cPyIJAKgvc71na0/HiSRRfRSwDmNTftEcyd5HEgBwRNfnCv37Gv6hGmRjV8Ay6XouT4z6GnardQHLh8MMBazx/nybf5IUAKDumsviflyTfgoRHCacculjkiaTBAAcYRAlX0UKUmvhju0mG4jVsyywFbQMRqtlZe82STtr943+0PxV63aT/DjvOSv6b5LsVyQBAHXmOn9zV8eZBFHlfi0RHFyxZ2HOZBeQBAAc0d5MRmwS/lT/xcIYzcKyO2Yv73uAVsEY1WwWlilg9lXlIfJbfwCIwd04kH+CGKqLAtahBiAefExShiQA4EhjJ/vRrEL/EyTx1AMkRhtSmy+nQTD2n2nVbCN3V13eepgqrcv7rpG0niQAoO4P0CUDPbk/JIjqoYB1EMWluZdKOo8kAODIQtcqUnjGgNw9PjNKQrF8EOO4bLx2+2C5UcCqeLwkN/dPkwQAxKEjaJ9wyQiiOihgHbwn8Alx0QHAaJSsNHwtMfxOJgziMSB33dW2cv3dtAjGoWYFLA/KdxF35VpmTrxC0kMkAQB196LBnvY8MVQHBazn2NLT8Xo3ex1JAMBoRp/6Rdu19z1CEL/z+L6990kq1/1AjM3bMU6ZTK2WEJbD4Oh7CDyCH/dL1o7I/eMkAQAx6B6H+ogvWZIliehRwHrWOExmro+RBACM8r5pLFF7rpNv2DAsqe4bp4ceXk1rYDz2PLHnQUlhDb7qgXmFW/eSeDRaZ068VNJvSQIA6sx0ysCxj7yNIKJHAesZij25bslfRhIAMCpuGb+GGA7WcfF6L4t6YO7K/jtpCIzHgSLslhp8FftfRXnbuWTtiJl/lCQAIAb3ZOlDGy88YSJJRIsC1lOjsHw+o9A+QhIAMOoH8y/bCv0Pk8RBhLq7vm1jzL5CpTZWv/NFAStqLcHCb6uGe5gBAA5pXvOjU95JDNGigHXAQHj322RaSBIAMMqxp3uBFA7OVOcClpVZ2okKf8Ct6gUsD5wCVtQ/+4VC2c35hSwAxOKmbP+y46wF0wgiOhSwJPXncxPM9UGSAIDRjz2V1XJiONTA3Oq5hHDL7OV3/ZpWQGV9bq96ASuUUcCqgraO/itN6iUJAKi74/ZNmvh3xBAdCliSpof2TknzSQIARjm4ZfngYWUDv0eS1+XLXVdbvb4bqeHVfxFBuXTUE/eRdBXuz8sUuuvDJAEAsXievm/gnBceRxLRaPgC1vZzTzlKrn/hUgCAMTyMWT54WLMK/U9IGqxP49jltAAq73B7tQtYD8+/9MEhkq6O1pXrV0q6nSQAoO6OUrbpn4khGg1fwBppanqvpFlcCgAw+rGth2wSPoqUNtT+S62/bVXfWsJHpcqlUnWXELruJ+Uq3gkkD4Pgn0gCAOJwU7Z3PXzuKW0EUbmGLmBty+emynUxlwEAjMktc65Zv4kYjjA+N/229v0j/xbJIwrzVt9blLS3itcqywerbO7VvT+W9H2SAIC6m5jNNPFLhQg0dAGrVLb3SJrJZQAAY+HMvhrVAN1qPQOrXAoy3yV5RHL97t9H7aGq3UXcmIFVk/tQ+E+SyiQBAHV/sF60vfu0VoKoTMMWsLblc1Ml/T2XAACMSRgqQwFrNAP00Gs7A8v143mFO7eQPCK8pqr4ogZmYNVC6/K7+iX/OkkAQN1NGlGWWVgVatgC1kgpeLck3gYAAGPz87krejcTwygesLVeQmjG8kFEfE2pakuFM0FAAatW9yLP/Jtcj5EEANSbv4O9sCp8pjXiSQ9e0DnFzJl9BQBjHtAaS9RGad9wULslhK7HNDJhFakj0h93Va2AtW/WjhkPk3BttKzs3WaBfYYkAKDuJmYz2fcRw/g1ZAHL94TvEm8eBIAxDzrLQcjywVF6wfV9uyTtrMV3mXR127Vr95A6ohRWbwbWA7ZmTYmEa8cm22dMNkASAFDvG7K9Y+u57bMJYnwaroA1eEHnFHf9A00PAGN94PoN8wr9OwliTB6sUeNcRtSIXFidApbJWD5YYy2X9z4p6V9JAgDqbnI5q38khvFpuAKWPxG+U8y+AoDxDDpZPjh2tVgm9VDLor6fEzUi/5kPrCoFrNDYwL0eWjr7LpN0G0kAQN29c7Crk5rEODRUAWvjhSdMdOPNgwAwDo/7vubriGGsFYDqF7Dc/Vu2TCFhI/JO4mSr1gys+0m3DrejZQpDt4slOWkAQF1NLitkVdh4+iaNdLLNj055p6RWmh0AxshtBXssjWPAGFbvLW4HhNkg4O2DqIqWy3uflGlX5D8XHlLAqpO5K/tulYm9DAGg3n1E07uK+TNmksTYNEwBa+OFJ0w0C6hyAsA4uPw7pDCup2yVZ2DZD2cv73uAoFFFm6P+wFImyxLCet6WguD9koZIAgDqaorKJeoTY+5aN4jmx6a8w+VtNDkAjNm2tl3H3UQMY2ceVLWA5Qq/RMpQdS+yqGcRPjm3cCdvw6ujlkLvRrl/jiQAoN6PWH83e2GNTUMUsPrzuQmSUd0EgPE9Xa/glffjs680XM0C1qa2zMLrSRlVZbYl4k/cYOzBVHdN5dInJG0lCQCoqymhwvcSw+g1RAFrell/JmkOzQ0A4xm/snxwvOa96N5BSfuq0i6yr1qhUCZlVJOHYTHiC5flgzEwc/W9j0v+QZIAgHp3tPU3O/OLjyaI0Ul9AcuXKZAz+woAxun+1hX9vHZ9vH2S/W8H3FKFjx4ZKe37Ogmj6h3FwAaj7ZiJDdxjojWz8JsyrSMJAKiro4fLw28nhlH2S9J+gsW+XJdMp9DUADCesaa+SwqVMWkw+oaxq49ffS/7CKEG9wCLdAaWmTMDKy73pkKhbKa/IwkAqHt/++/2b3uEI0n/EkK3f6KZAWCct1DPUMCq+DGkYtSfGQTlz5MsatJR9GhnYIVmzMCKkdar16+R+TUkAQB1NeeY0N5KDKPol6T55IrduddIeinNDADjctvclXcyW6JC7tHOwHLply3L7/oVyaIWQo1EWoDNlIMNpBqze1SQeb+kEZIAgPox1z/4ssbYo7wSqQ7I3T5AEwPAeJ+kYvP2SB600c5gCUyfJVXUypN7RwYV3VsD97Ss7N1GqvEyp9B7r5tdQhIAUFenFfs6ziWGI/WrU2pzV26RTH9AEwPAuISlkZECMVTOPYyygLWlZUbzSlJFrZx8w4ZhmXZH9HEPkWhMBwRB9sOSHiUJAKhrp/GfCeEIz6u0nljG7AOSjCYGgHH5MZuER9QXCaJbQujyL9gla1nqg9oKI9vH7WHCjKfWwh3bJf0nSQBAXb202NXxamI4tFQWsLb2dJzoUp7mBYDxMXOWD0aVZXRvcXt04t7hL5Moas0tqmWwzgysGCtnjvqspE0kAQB1fOYG4ftJ4dBSWcAqy/9RUobmBYBx2ZMdKa0ghmiEHkQ1A+t/Ztyw4TESRa2ZPKIirFHAirF5hVv3mvm/kQQA1JHbWVt6Fp5BEAeXugLW1nPbZ8t1IU0LAOO2cubqex8nhmjs3btnexQfkynpC6SJOommCOsUsOKupaP/cpnWkQQA1I+5/QMpHFzqCljlrC6WNJGmBYBxPxkuI4TonHzDhmFJT1Q07pe+OXv1+q2kifp0pKPaxy2kgBX3tl6m0Nz/niQAoK534zdtXdp+EjkcbJiSIgPnLJ4s6a9pVgAY5+NSNtBqp/2YJKLmj1Twl8vZUP9Fhqjb1RvRPm4eMgMrCVpX9N8k8xtIAgDqJlM2vYcYni9VBSybMPw2ScfSrAAwPqH7d6xQKJNE1A8o2zH+Ub99e/aq9b8lRNTtvpCJZBP3UtuE03izaVIGCGHmnyTxLACAuvUd9Rc7zlowjSCe83xKy4m4ZO56L00KAOOXCe1yUqhGBUDjLWCVQwWfIEDU9b5g5QhmYPlmiuPJ0bKyd73LeR4AQP0cNTyx+S+J4dlSU8Aa7Ok4S9KpNCkAjNvtLdf09RFDNYxvBpa5vjV35Z33kR/qqRTJJu4sH0zcXUvhMknDJAEAdbsRv9fz+QxB/E56ZmCFfjHNCQAV3Un5bXu1+h8WjqeANRIE9nHSQ73NLfTvkjRU4cdQwEqYthV3PyTXl0kCAOrWgzyhWL77XHL4nVQUsIr53EKZ/oDmBIBxK2Uz+h4xVEc4vhlY35q9vO8B0kPdu8+SS6rwLZhOASuRT4Z9H5PrMYIAgLphos4zpKKA5WV77/7+FQBgXPdR0//NKvQPkkTVjLWANSyVP0ZsiI+KN3J/mAyTp+3a+x5x+edIAgDq5tVbehaeQQz7Jb6A9dDZHdMlvZWmBIAKHgahXUYKVRz6S7vH8ufd9MW2FXczYwUx4hVt5O4WPEiGydSU1aclbSMJAKhTPzLMMAvrqTFL4h+qE/XXkqbQlAAwbruHjn78WmKo4tDfbfRLcEy7wsD/g9QQr95zZRu5exgwAyuhZhX6n5DZp0gCAOr1DPY3b8vnWggi4QUsX7IkK/d30YwAUJEr51/64BAxVE9G4eOjrxPoP+YV+neSGmLV5/KK9sByz07eRIrJNXzU4/8rloECQL00j5TtHcSQ8ALWwIzteUnzaEYAqGBkydsHq5+xabQFrC2l4Kj/JjHEr8PolSwh2zqvcOteUkyu+Zc+OOTSR0gCAOrDpHdtvPCEifRHkj0ieC+XMgBU5LdtK/pvIYbqKnv20VH2Tj7AQB8xVUkBi5k7KdC287hvSbqHJACgLmZOePSotzR6CIktYA32LHyZSS/nOgaA8TPpcpOcJKqr2faNZgbWLa3L13+HtBBHHmQqWEJoFLDS8LxYs6bk0jKSAIA63YfNG34z98QWsEIP3sMlDAAVjknNWD5YA+UpTUfaxD1UaO+lmIjY3iysghlY5gMkmA5tnesLkvWTBADUxaJiV8erGzmARBawBs554XGSerh+AaCSEan/YvbyvgcIovpmX967R1L5MI3xtbZVfWtJCnG1byQY9wwsD40CVkrYMoUu/yhJAEC9bsTe0Ju5J7KA5dnmv5Q0kasXACrC7Kta9TX2z6x64hD/cZdlJnyQlBBn81et2y1peHydzbBIgunR1rm+IFMfSQBA7bnUvfXc9tmNev6JK2D5MgVmfhGXLgBUZGjYmwrEUFMH3QfLQv+31sId24kHCTCuZYSesUGiSw9bptCkj5EEANTFhHJWf9GoJ5+4AlbxztwbJJ3IdQsA4+eu1QdmVKBWgz5p6CD/9lct2YVfJh0k5CIeVwErKAcsIUyZluXrCyb1kgQA1MU7PJ/PNOKJJ66AZRa8k+sVACqTYflgzfnzC1j7zMp/aYVCmXSQkKt4XAWskWyZAlbKmOQyfZwkAKAujh8cuecNjXjiiSpgbe7unOvys7leAaAi22fPbP4BMdTc3ucUAz7Vuvwu3uaFxHDXeDZyH55b6N9FeunDLCwAqKNA72jM007UwZYvkpThagWA8TPpe3bJ2hGSqPno/xkzsPy+4WlPfoJQkKh+mI2rgDV44CUGSN+zxOXGXlgAUI9upfzsge7TXtBwfZHENNBFi5tMwV9yqQJAhUL/NiHUZbj31AyscujBhfMvfXCITJCsznKwbex/R7yBMMVaFvUt542EAFAXGSn79kY76cQUsAYfGTrP5W1cpwBQ0Qj03tZV/b8miHo8cf2pAtan5q7su5VAkMAbyJgLWEYBK9VsmUIPndmkAFCf5/Jf+kWLmxqqO52gQdc7uEABoOK7Ppu312ug5zYk2R27Mv5h0kAiu8nh2JcQuhkbuKdcW3ZhQdL9JAEANdc6+MjQeY01lEmATfncAjd7LdcnAFQ2/gyC4LvEUKfw5Y8GZb0tV+jfRxpI6DU8jhlYzgyslLNCoSzXf5EEANTl4dxQE30SUcDKlPROScbVCQCVPOD8Fy2F3o0EUaf4y/axlmv62CsGiTUhO44ZWK5Bkku/4aOfuFSirQGg5v1Ls9duyXee0ijnG/sC1sYLT5goswu5NAGgYiwfrKM516zfRApIspnbZz4iKRxTRzNkCWEjOPBSii+QBADUnFmpfFGjnGzsC1gTHp2yVNKxXJcAUJGhYW8qEAOAcfeQ16wpSdo5lr9TtpACVoNo3jv0P5J2kwQA1PoBbW/rz+cmNMKpxr6AZbI/54oEgIpvptfOX7WOgQWASm8mY1pGmFWGPbAaxIwbNjxm5l8hCQCo/S14etnOboQTjXUBa8t57fNkej3XIwBUxt2/TQoAKr6XaEz7YJVmL+p9hNQaR9bDz0saIgkAqC2TGmLiT6wLWJbxtykhG80DQIzt2J3R/xEDgMo7yOFYNuoetGVj2zMLyTZzxd1FyS8jCQCoLZfO2t59WmvazzOIcQOYyd7GpQgAlQ44/YpcoX8fSQCI4I4yliWBLB9sQBkLPiWpTBIAUFPZkmXemvaTjG0Bq9jd8SqXFnAdAkCFw01j+SCAyG4oo96U3W1Myw2RErOX9z0g0zUkAQC15Z7+ZYTxXZ7n+gsuQQCo2P2zl9/1a2IAEE33LBz1rKrAtZ3EGpOF9gVSAICaO22wZ+HL0nyCsSxgbcvnpsq8h+sPACoebl5mkpMDgEg6jjb6JYShiw3cG1Tryr6fSrqTJACgtkIPUj0LK5YFrJHQ/ljSVC4/AKiIB5nMd4gBQGQdYwvGsK+V7SCxBn4ASV8kBQCouTcPnLN4clpPLpYFLPPGeAUkAFTZLS2F3o3EACAqE4aHR70HlgJnCWED27N36NuStpEEANTU0cru60rrycWugLWp57STJb2C6w4AKuPSlaQAIEozV9/7uKQnRncTcpYQNrCTb9gwLOnrJAEAtWUKUzshKHYFrIxn/lyScdkBQEXCcmlkOTEAqILRLSMMjAJWgytnMv8jaYQkAKB23Oy1W3s6TkzjucWqgOXLFEh6K5ccAFTsJ8evvneAGABUwagKWF7OUMBqcPMKd25x10qSAICastD9gjSeWKwKWAN3tr9O0jyuNwCokPtVhACgKr3i0c7A0jCbuEMmZzN3AKj1UEC6wFO4si1eSwjN/4RLDQAqNhKqvIIYAFSlU2w+mtmd5TmL7tlFWmhb2f8LSb8hCQCoqZO2dne+LG0nFZsC1sYLT5hobt1cZwBQsR/OXXkPMx8AVIXJRjMDa6ctU0hakCQ3fYkUAKDG916FqZsgFJsC1sRHjzpHpmlcZgBQ8ejye4QAoHod4lEsIXRtJyk8JTM5uFKux0gCAGr6vH6TL1mSTdM5xaaA5eZv4RIDgIoNNe8ZWk0MAKoltODIBSyjgIXfabm890mZ2JsRAGprVvG4R16bphOKRQFrx1kLpkk6i+sLACpkunbGDRv4LTeA6nUey+Fo9sDiDYR4zqAj+DopAEBteZiuiUKxKGANTZqYlzSRywsAKn5MXUkGAKpp2LOj2QOLAhaepWVF7y9N6iUJAKgdc+velD9zUlrOJyZLCI23DwJA5R4vB9O+TwwAqmn+qnW7Je057B9yClg4yGXhfikpAEANmaZly4+dnZbTqXsBa3v3aa0mfzVXFgBUbNW8wq17iQFADQwe/j87b0LF84QqXyZpmCQAoHY8RROG6l7AGrHsWyRluKwAoDImsXwQQK0cfhmhGTOw8DxzV96zw13XkAQA1NTZm/K5Y9NwIvVfQui8fRAAIrBzZ8Z/RAwAasJ02I3cLaSAhUP6GhEAQE1NCMrWlYYTqWsBa3PXohdKejHXEwBUbEWu0L+PGADUhOvhw/+BkCWEOKi2Ret/LPmDJAEAtROkZOJQXQtYZmU2bweACIRB8D1SAFC7Tpw2He4/ly27m5Bw0EtnmUKTXUoSAFA7brbk4XNPaUv6edS3gCWWDwJABAbn2ClriAFADXtxDx3uv2blu8kIh1L2zBWkAAA1lclmsm9K+knUrYC1eWnudMleyHUEAJWOI3WVFQplggBQM26HXUK4I1veTUg4lLkr77xP0u0kAQA1HDKY5ZN+DnUrYAVB0MMlBABRjCN5+yCAGhsZOlwBaw978uHIAymx9B0AajlmkF6+5bz2eUk+h3ouIeziEgKAim1uu3r9rcQAoJbarr3vEUlPHuI/P0ZCOOJAKvAr94+nAAA1YsraeUk+gboUsLbkO0+RPMf1AwAVP4ZWGAMAAPVxqI3cdxENjqSt0P+wpFtIAgBqOHQIPdEr4epSwLJyOc+lAwBRPIRsBSkAqJODbuTu0qNEg9FwM5YRAkBNBw961WBX56ykHn59lhCasf8VAFTukZZdM24mBgB16s89fPC+se0mHIxqIBJkr5RUIgkAqJlMGPjSxD43av2Fg/nO+XKdznUDABW7xtasoeMPoE784DOw3NkDC6PSWrhju6Q1JAEAtXx8e3dSD73mBSwPw/O5YgCgchbaclIAULf+r/yBg96bjD2wMJbriLcRAkCNvXZTPndsEg+89gUsZ/kgAETg0Z1N4Y+JAUDdOpGuDQf79yZjDyyM2r4wu1zSMEkAQM00ZUOdk8i+Ry2/bFN+0RzJX8r1AgCV8utzhf595ACgXvYNBwctYLmxhBCjN3/Vut2S3UQSAFDLoUQyJxbVtICVKZV7JBlXCwBUyMTbBwHU1Quu79slacfzbk/uLCHE2B5pHl5HCgBQOy69YcdZC6Yl7bhru4TQxPJBAKjc3mBy5v+IAUD92fNmYbkHLCHE2AZSWV27fzwFAKiR5qGJzX+UtIOuWQFrsKtzlqRXcJ0AQKXjRf9hy+W9TxIEgPrzDc/vXDoFLIxJW6H/YZP6SAIAajiksCBxE4xqVsAKVT5PUobLBAAqHC66XUsKAGJxP9LzN3IPM8zAwriuJZYRAkBt77xnbcqfOSlJR1yzApYHdi4XCABULGzK+PXEACAOTPrt8zqXZbEHFsYxKAn45QwA1NaUptLjr0vWs6IGNuXPnGSu13J9AEDFw8XbZhX6B8kBQByE/vw9sMphyAwsjNnszt5fS9pKEgBQw+d4oLOTdLw1KWBly4+/VtJkLg8AqIxJzL4CECMj9z3330ya0PwYuWDMz7dlCl1+A0kAQA25znbJknK4NSlguemNXBkAULmyh6tJAUBczF15zw49Z9bM9O1H8ZIJjIsZ+2ABQI3N27I0tygpB1v1ApZLJqeABQAR2DRnZX8vMQCIE5f1P+P/DtmaNSVSwXhkA/1A0jBJAEDtBEFy6jVVL2AdqObN5bIAgIpdZ5ITA4A4MfP1z/i/zL7CuM0q9D8h109JAgBqx2WJ2Qer6gWsTBCcwyUBABEMEkPjDU0A4nh3euYMLApYqOxqCnQjKQBADe+70ku3nts+OwnHWoslhGdzSQBAxZ4cOubxm4gBQNy4hxSwEOXYgWcdANRWEGbtrEQcaDU/fLCrc5bkL+F6AIAKmd84/9IHhwgCQNzsC5soYCEyrcFpd0jaTRIAUDsuT8Q+WFUtYJWD8I2q0ZsOASDdT5WAV4sDiKX5q9btlrTlQA/4CRJBJaxQKJv0c5IAgJr6w/vPWtAc94OsanHJWD4IAJHImH5ECgBiy9V/oPPHDCxUfjm5s4wQAGpr6uTJk14V94OsWgGrP5+bINcfcB0AQMVd+ftmL+97gBwAxJapT5LcKWChcqH0E1IAgBo/ysP4LyOsWgFrutsSSUdxGQBApeNC+wEpAIgzN197oGPJEkJUbM7K/l5Jj5AEANR00HFO3A+xeksIy/ojrgAAiOBZ4vohKQCIszDQbQc6v8zAQgRjKLlMPyMJAKipE7fkO0+J8wFWr4Bl+kPaHwAqti/I+hpiABBncwv9v5W0w5mBhYi4jH2wAKDWyuEb4nx4VSlgbcovmiPpVFofACp286xCPwNCALFmksu1lhlYiG6QUqaABQA1v/fGex/zqhSwglK8q3YAkBTu7H8FIDFukzsFLESiZfldd0naShIAUMOxh7TEL1rcFNfjq0oBy8TbBwEgkoeIhxSwACSk02u3ibcQIrrxhEu6hSQAoKaOKu4ceXlcDy7yApZLJvPX0e4AULGtc1b130kMAJKgKRv+ygP2wEKkbiMCAKixsBzbCUmRF7C2LM0tkjSLVgeAit144DfQABB7swr9g1YO7iMJRMXNKGABQK3vvbLGKWBlMsbyQQCI5OnhPyUEAEnS2nTqOlJAVPaVM78Rv8gBgJoy6SUPnd0xPY7HFv0SQhcbuANABMpBuIYUACSq01solEkBUZm/at1uuZjVBwC1lWma4K+J44FFWsDaeOEJEyW9gvYGgIoV5y2/+35iAAA0OJYRAkCtBfF8MV+kBawJj059laRJtDYAVOwnRAAAAAUsAKg5b4ACliT2vwKASB4a7H8FAEBgwa9JAQBq7qStPR0nxu6ZEOWHmbH/FQBEgf2vAACQ9k57bJ2kfSQBADUej8RwFlZkBazBrs5ZkjppZgCoGPtfAQAgaf6lDw5JWk8SAFBrnt4CVjkov06S0cgAUPHD4iYyAADgaeyDBQC1Znqt5/OZOB1SZAUscy2hhQEgAq41hAAAwFOPRQpYAFCHm+/0gbA/VqvsItwDy36fFgaAyoXKsoE7AAAHZCxkCSEA1IEpiFWdJ5IC1oH9r06heQGgYo/MWXkn+18BAHBA0559d0tykgCAmktfAcvlrxb7XwFAxUy61eikAwDwtBk3bHhM0maSAIAac/2+x6jWE80SQgtZPggAkTwj9EtSAADgee4iAgCoueMGexYujMvBRDMDy+zVtCsARHBTdqeABQDA8wYc3k8IAFCXEUpsJixVXMDalM8dK1eORgWAioVNQ8O/IQYAAJ7NzZiBBQB1uQErPQWsoBS8SpG+zRAAGpNJ6w/s8wEAAJ4ho4AZWABQBy7FZsVdxYUnE/tfAUA0DweWDwIAcDBNe/fcJV5yAgD10Lqp57ST43Aglc+cCtj/CgCi4B5QwAIA4CAOzFDeQhIAUHuBZ2IxcamiAtaOsxZMk+t0mhMAKmfMwAIA4HBYRggAdRmnKPkFrH3Nk14hKUNzAkDFdrcuWn8vMQAAcKgRlLOROwDUx2vicBAVFbDc2P8KACLyG1umkBgAADjE2MONGVgAUB/zBrpPe0G9D6KyPbDMKGABQBSdctM6UgAA4HADF3+AFACgPsyDuu9/Pu4C1v1nLWiWtJhmBIAIHgihrSMFAAAOM3Cx4CFSAID68MDOrPtzYLx/cdLESS+S1EwzAkDlLCivIwUAAA5t1owJmySVSQIA6uLl9T6AcRewAgtfRvsBQCSGW3bMYgN3AAAOwy5ZOyJpgCQAoA5cHdvyuan1PIRxF7BMRgELAKLRZ2vWlIgBAIAjDaD8QUIAgLrIlEtBXbeRGncBy+Uvp/0AIBLriAAAgFEwe5AQAKA+wjovIxxXAWuwq3OWZCfQfABQOTe7kxQAABjVU/NBMgCA+jDzuq7EG1cBqyw/k6YDgKgeBBSwAAAYDZfxJkIAqJ/kzcCqd9UNANLUF59oTb3EAADAqAYiFLAAoH5aB/K54+v15eMqYDkbuANAVDYeW1j7KDEAAHBkYRA+SAoAUD8WWt1mYY25gOXLFJj7i2k2AIjgASD1kwIAAKPzmPSwpJAkAKA+6vlCvzEXsLbe0ZGTaRrNBgCVC033kgIAAKOTK/Tvk1QkCQCoE6/firwxF7DCTMjyQQCIiMnuJwUAAMaEfbAAoH5e1J/PTajHF49jDyx7Oe0FANGwkBlYAACM0VYiAIC6mXhsWYvq8cXj2cSdGVgAEJFMNqSABQDA2GwjAgCon7BOE5vGVMDals9NlXQazQUAEXA9NqvQP0gQAACMhW0nAwCo411Yekk9vndMBayR/dPEMjQXAERy57+PEAAAGCN3ClgAUN+BzIvq8a1jW0JowRk0FABEhuWDAACMkctZQggA9b0TnzpwzuLJtf7WMRWwgtApYAFARMyMGVgAAIxRhj2wAKDut2LLDLXX+kvHVMByMwpYABCRMAwpYAEAMPZxEwUsAKgzD2q/Qm/UBaz+fG6C5AtpJgCIhlmGAhYAAGNHAQsA6j6Y8dNr/ZWjLmAdPaKFkpppJQCIxsiwbyQFAADGZnb2lB2SyiQBAHXkqvlG7qMuYFmmPrvMA0BKPfmC6/t2EQMAAGNjhUJZ0k6SAIC66vAlS7K1/MJRF7ACZwN3AIiMazMhAAAwXsYyQgCor0mDM7e/sJZfOOoClosN3AEgun63NhECAADj5RSwAKDed+JSbTdyH1UBy5cpkNRJ8wBAVHd720IIAACMj7GROwDE4Gbs8Stgbblz0QJJR9E6ABBZz5sZWAAAjJPLHyUFAKj3vdjiV8AyK7N8EACixR5YAACMf9T0BCEAQH2Z+RkuWa2+b1QFrMDYwB0AIr3ZyylgAQAwTm72OCkAQL1vxppe7D7t+Fp93ej2wHI7nZYBgOiUnQIWAAAVDGIoYAFAHFi2ZhOeRvsWwnZaBQCi41n2wAIAYNzPUdeTpAAAcbghhzWrFx2xgLVx6enHSJpDqwBAZPbOK/TvJAYAAMaLJYQAEAseLKzVVx2xgDUhW1pIiwBApLYTAQAAFYyXxCbuABAL5vEpYFnoFLAAINKbvJh9BQBABTIKmYEFAPFwqi9Zkq3FFx15DywTBSwAiJJrFyEAAFDBo9SZgQUAMdG8ZfquE2vxRUcuYLlRwAKAaDEDCwCACrixBxYAxEUQhDWpG43mLYQ5mgMAImRGAQsAgAp4yAwsAIjPTdnrX8DacdaCaeINhAAQKWMJIQAAFdlnWWZgAUB81L+ANTJp8kJJRlsAQHTcKGABAFCJE3YfwwwsAIgLq83KvcMWsMoWsv8VAESNGVgAAFQ2VlqzpiRpL0kAQCzGN6d6Pp+p9tcctoBlzhsIASDyTreziTsAAJU/UDVECAAQCxM366751f6SI2zibmzgDgARK2fYxB0AgIq5SoQAAPEQlKs/AeoIBSxnBhYARH3jLfluUgAAoGIUsAAgJqwGE6AOWcDals9NlTSPZgCAiG/uTSF7dgAAUDkKWAAQF17HGVjlsk4TbyAEgGr0tveRAgAAUTxSAQCxEOi06n/FIbiCk2kBAIhehgIWAABRoIAFAHERquo1pEMWsMy0gBYAgOhlKWABABAFClgAEBemacX8GTOr+RWHnoHlfhItAADRG6aABQBAFIMlClgAEKfbcrlc1TrS4d5CyAwsAKiCicOlEVIAAKBCbhSwACBGQgurWkc6XAGLGVgAUAW7R8rMwAIAoGJOAQsA4nRXdtW+gLUtn5sqaTbxA0D0FtywgQIWAAAVMvbAAoB43ZddtV9COBI6byAEgOoYMcmJAQCAyrgzAwsAYnVftjrMwArCDPtfAUB1MPsKAIAoGHtgAUCsbsuqQwHLA/a/AoAqYQN3AACi4DxTASBmjtu49PRjqvXhB9/E3Z0ZWABQnc52QAgAAETA2AMLAOKmWeWqTYg61ECKAhYAVKezPYEQAACI5KHKL4UAIGY8qN6EKApYAFBbFLAAAIhikMQzFQBix6q4kfvzClib8mdOktRG7ABQnfuuL1mSJQYAACocJMkpYAFA3O7NrtotIWwqPXmSJCN2AKiO4lGP0+EGAKByPE8BIGZcNSxglYPyfCIHgOoZCfc1kwIAABViX0kAiKMTq/XBzytgBaGOJ28AqJ6JGZY8AABQsZACFgDEUKtftLipGh8cHOTfzCNvAKieEr8xBgCgYsbzFADiKFN8ZE9V9lV/XgHLnQIWAFRTlg43AAAV4y2EABDXG3RQlbrS82dgyeaSNgBUT5kCFgAAUWgiAgCIH6/Syr6DFLCcPbAAoIqCIJxGCgAAVIyXogBAHIVBVepKzypg+TIFkrWRNgBUj5czx5ICAAAVm0QEABBDtZiBten2U1rEWnIAqCrP+AxSAABg/DZeeMJEUcACgFgKvAYFrAlNGTZwB4BqC8UMLAAAKpDZ2cyzFABiylWDApa7UcACgGrf0I0CFgAAlZiQoYAFADEe8dRgD6wqTfMCADzzxssSQgAAKhGaU8ACgPiaMXDO4snRj6Oe/f8oYAFAlbmYgQUAQEXPUtd0UgCAGN+nJ45EXl96dgHLAwpYAFB1xgwsAAAqwy+DACDOQq9yAUvMwAIAOt0AAMRbwBJCAIi3UNUtYBkFLACoBWZgAQBQAZYQAkC8BRb9Ru5PF7A8n8+4fDYxA0DVtRABAADj50YBCwBifZ+WWqP+zKcLWFtL986QlCFmAKi6ycX8GTOJAQCAcQ9imM0MAPEW+QSp3y0hDJl9BQC14iOl40kBAIBxPkfZ+gQA4m5W1B/4dAGrnBUFLAColcApYAEAMH4UsAAg3qo3A8tCClgAUDv+AjIAAGAcT9B8PqMq7K0CAIhUFZcQBhSwAKBmTMzAAgBgHIq6a46kLEkAQKxNHThn8eQoP/B3M7AUziJfAKgVYwYWAADj4GWWDwJAIkY8mXKkdaanC1ihMwMLAGqIAhYAAOMaETGLGQAScbvO7Iu0zvS7GVhGAQsAasbpfAMAMM5nKDOwACABym7VKWAp4g8GABzWzMELOqcQAwAAYx7AUMACgAQwqTpLCCVmYAFALY3sCU8iBQAAxsaNAhYAJIJVYQaWSyZpJukCQO1k3NpJAQCAMfKAZfgAkAzRz8DanM9NlzSBbAGglh1wX0gIAACM4dEpmeQnkwQAxJ9F/LLAQJIyJfa/AoDa39GVIwQAAEav2H3a8ZKmkgQAxJ9Xo4AlM5YPAkCNmcQSQgAAxjQaCk4jBABIjCps4m4hBSwAqHUfXDpxU/7MSSQBAMBoRy8By+8BIClMMyJ9BEiSux1DsgBQh254+OipxAAAwCi5MwMLAJJjeqSDpwP/cwy5AkDtmQL2wQIAYPQoYAFAckyIcsXJ/hlY8qPJFQDqIHQKWAAAjB4zlwEgQXx4Z2SzsAJJMrGEEADqwcwoYAEAMAqDXZ2zpGj3UwEAVFdTc/aYqD7rwB5Y0a5LBACMli0mAwAAjszF/lcAkDRhhHuu75+BZWIJIQDUpzPetrm7cy5JAABwpJGL8wZCAEjcrTviApaLGVgAUL+bevhSUgAA4AhCvZgQACBZPFS0e2CJtxACQN2Y2ctIAQCAIwyCAr2EFAAgYWMdhcdE9VkUsACg3h1yOQUsAAAOY+CcxZPlYg8sAEjaWCeIeAmhKGABQD292JcsyRIDAACH0DyyWBLPSgBIGI+w3hQcGDRNIVYAqJspW6ZvzxEDAACHGgE5ywcBIIHMIyxgFY8aOEaSESsA1E8QBCwjBADgkAMgClgAkNA7+DGRjZnKE5uOIVAAqPNtPWQfLAAADsUl3tgLAMm8gx8T1ScFmZHgaAIFgDrf1nkTIQAAB7UpnztW0nySAIAEMk2P6qMCC8JpJAoA9eYLi/kzZpIDAADPlgn1ErHlCQAkU6ipUX1UIAsmkSgA1J2F5ZHXEgMAAM95QHrA8kEASOxNXJOj+qhAHk4mUQCIwb3d7HWkAADAs7n8NaQAAIkVZQFLFLAAIBY9dKeABQDAM9x/1oJmSS8nCQBIrMhW/QUuo4AFAPFw4mC+k01qAQA4YOqUiWdGOfgBANTcJI9oH8NAch4IABATYbnMLCwAAJ5+LrJ8EAASzjbnz5wYxQcFCpiBBQCxubuLfbAAAPjdc1EUsAAg6ffy0q5I6k6BQqbkAkBcuPRa51XhAABo4JzFk2XGGwgBIOEszEZUwAqcGVgAEB+zNve0dxADAKDReXb4FZKaSQIAEn4/DzKRTJwKJGMGFgDESNb1B6QAAGh0ZlpCCgCQgvt5MDIlis8J5GIGFgDEiEvnkgIAgOehXksKAJACFkQ2A4sCFgDEyysGznnhccQAAGhUG5eefoxJi0kCAFLALaI9sMQeWAAQMxnPNp9DDACARtUclP9IUhNJAEAahFHNwOIthAAQNxaE55ECAKBhn4NyfpEDAGkR3QwslhACQAxv8m8YvKBzCkEAABruEXjR4iY3/SFJAEBqxjYRFbDMeTUtAMTPpPIT/npiAAA0msFHhl4p13SSAIB0MEVTdwrkyhInAMRPYM4yQgBAw3EFvI0XANJ0Xw8skrpTIClDnAAQxw68zvUlS/glAwCgoZj8jaQAAKm6r0dSdwokZmABQEzNKB674/eIAQDQKIo9C3MuLSAJAEgTi6yAFRAmAMT0Vi8/nxQAAI0iDDPMvgKAlHEPo1pC6CwhBIC43uylN/lFi5tIAgDQCMz8HFIAgJTd26ObgWUsIQSA+Jo1+MjwG4gBAJB2W85rnyfpTJIAgLSJbg8sZmABQJxv925/SgoAgNTL+FvE9iYAkL7xjKJ7CyEzsAAgzsyX7swvPpogAACpftyZvYUUACCF9/cIN3FnBhYAxNuk4fK+LmIAAKTVQE/HqXKdThIAkEYsIQSABrrnh28lBABAip9zf0IIAJBOzMACgEbq15u9ZnN351ySAACkdHjzZjIAgJSOZTyMbA8sClgAEH9BxkL2BgEApM5gz8KXSTqZJAAgrZiBBQANxaULSAEAkDahZ5h9BQBpHscEvIUQABrszq+Owe7OlxMEACA1j7ZlCiTPkwQApJdFuIm7EScAJEOo8J2kAABIi+L69tdLmkMSAJBm0S0hdMIEgMR4UzF/xkxiAACkguuvCQEA0n6v91IUHxNIKpEmACRGs8ojf0YMAICk25bPtch1DkkAQLqZvBzF5wSSysQJAMnh0jv37xkCAEBylUL7S0lNJAEAKR+/uFHAAoAGddLAne2vIwYAQGIHM8sUyP3tJAEADcAU2RJCClgAkLRngInN3AEAiTW4ruMPJTuBJACgAcYuYgYWADSyczZ3d84lBgBAEnngF5ECADTIPT/CPbDYxB0AkidrCll6AQBInO3dp7VKOpskAKBROEsIAaCRmfTOTfkzJ5EEACBJSsq+XWzeDgANNG4xZmABQIOblQmfuIAYAABJ4UuWZF1s3g4ADXXvj3AJYUicAJDUp4G/3/P5DEEAAJJgYPr28yUdTxIA0EiYgQUAkE4shnctJQYAQCKGMBb8LSkAQKPd+xXVHljOHlgAkGRu7ycEAEDcFc9vXyL5y0gCABpsuBLdDCyjgAUAyfaSYlfHq4kBABBnoet9pAAAjSi6PbAoYAFA0h8J5v9ICgCAuNqS7zzFXH9EEgDQeCz0iJYQGntgAUAK/NFgV2c7MQAAYjp4eZ/2//IcANBgIltC6K4h4gSAFIwNLGQWFgAgdga7OmfJ/a0kAQANOlAxi6TuFEi2hzgBIBXeMpjvnE8MAIA4Kav8bkmTSAIAGpR5JHWnIKoPAgDUXVO5XP53YgAAxMXgBZ1TzOxdJAEAjSuU743icwKT9hInAKSDyS4Y6Ok4lSQAAHFQfrL8bknHkQQANC63TEQzsEKWEAJAimTk4b8RAwCg3gYv6JxisveRBAA0uHJUSwgDZwYWAKSKvXlzV24ROQAA6il8MnyvpFkkAQAN/0SIagYWe2ABQMoEQWDshQUAqJtt+dxUSX9HEgAAKRvNHliygAIWAKSNq6vYnXsJQQAA6qFU1t9KmkkSAIDo3kIolhACQCofE7IPEQMAoNZ25hcfLRmzrwAAkiTPlCMqYDkFLABIqbMHzu98FTEAAGppb3n47yQdSxIAgP2mRbSEMAieJEwASKkw/CghAABq5aGzO6abdDFJAAAO8LmFW4ei+CBmYAFAur16oKu9mxgAALXQNMHfJ+kYkgAAHLDXJI/igwJjDywASDfTp+8/a0EzQQAAqmlTftEcmf6WJAAAzxDZiwMDhSwhBICUO3HypGaWcwAAqipTCj8uaQpJIGacCIC6imzSVKAsM7CAGDxV/1emD7r8Usl+pQir1IAkmdu/DnZ1ziIJAEA1DHR3vkjmF5AE6mybZP8n6RMyPz9jdpLLbiIWoK6D3cjGtlkPg8ekkFCBOgqkcuvy9R9/5r97+NxT2jJN2cVyWyzTYnMtltRKWhgX07RQ5Y9K+mvCAABE/pjx8n+6WUASqKGim9bKtTZw61dQvqt1+V39z/wDgxd0TrEnw1cQFVDXccijkX3U1p6OE8vuvyVVoK62tx7XPMcuWTty2D/UfVprKcyeroxeEspfYq6XSmJWDUarXDa9aN7y9b1EAQCIypbu3Lkmu4YkUCUu6QGZbpfsdim8w4IJt7cW7th+pL9Y7On4I3e/ngiBuvpR24r1b4jig7L7gnB3pmxECtTXzMFHht8g6bAP2Jkr7i5KKkq64al/N9B92gvMMi/z/cWsl0haLPafwMFlArfPSnodUQAAIqksXLS4qbh9+D/FcALRKEu6T9LtJt0h+e1DYdMd81et2z2+CzQ8S1ycQH2Zdkf1Udm5WvhoUXe7+MkG6u2tOkIB62DaVtz9kKSHJF0lSZ7PZwbD/lMV2mIPbLH2Lz18sSTeQgeZ/LVbujrOm7Oyj9+UAwAqVtw+/E6ZTiEJjENJrvtkWivTWoW+NpiauaPl8t5IXjLmkhVl5xEzUGfuu6Iby0ga6Gp/VKZpJAvU1d7mvUMtM27Y8FjUHzxwzuLJ3jR0xv4lh8FLZP5SSScRecN6oJw5qn1e4VZe4gEAGLeNS08/pjko3S/pONLAEQxJ6pN0u8xul/z2J/cM9Z18w4bhan1hcWnupR7Yr4geqC93fXrOyvX/FMVnZSU9NaWLAhZQX5P2TZrULenSqD+47dq1eyTdfOAfSdLmrlNnZLzppcroJe7+1PJD9tNqDCdmSo/9u6R/JgoAwHg1W2mZKF7h+Z6QdKdp/55VJfPb5+447i5bs6ZU00GzqYumAOrPTJHNwMpKkkm7XTqeaIH6cvmfqgoFrIOZu/KeHdq/l9bT+2kd5M2Hr5R0DC2TyifJP2xemrty7qr+dYQBABirTT3tnXK9myQavvP6mEx9Mq210Ncq8LUtQe4eKxTKMejsUMACYjHsiG4PrP1LCLvbfyrp94kWqLuwnMkcP69w55ZY9Eny+czm8O5c4HqJSWdKepmkhZJ4TXYaHibSrS2d619pyxSSBgBgLP2DYvnuW7V/9jYax7b9bwH0O0x+e2DB7bOX9z0QxwMt5nMLvWz9NBkQg2eG+Z/MWd5/RRSfdWAJoe+Ss4c7EANBNiz/iaRPx+FgDvz2rPfAP1+XpG353NRSSacrsMWSXiHXEkkzaboEPkykM4t3tl8krf8yaQAARmsgvOedRvEq7YpuWhvI+xXqLgW+tnX5XYkpCHlZ3TQhEA8WRryEUGGwW+YkC8Thgev6U8WkgHUwswr9T0j6xYF/Pi/tX3rYlJnwCg/8lbz1MHE+tSm/6Nq4zPoDAMTbtnyupVT2j5JEqhTdtFautTJf2xTotlmF/sGED5lZPgjERGCZ3VF9VvbAkHk3sQKxsWjwvI6Olmv6+pJywMevvndAUuHAPxo4Z/FkZYdepMAW7y9o+askO4GmjWP/TtOCUvm/JL2JMAAAR1Iu2+fE/phJ9qxiVRBM+GVr4Y7taTrBge7TXiDpDJoaiIfQoqs3ZSXJTbtZQAjEh2f0VknvT+rxH3jr4VOztJ7uTLgHZ5rs5W56mUkvkjSB1q4/M/1xsafjW63L+75PGgCAQxYGenJ/6M4vPBJiRLYyFxYAAF1gSURBVNJdLr/jwL5VtzdldOeBmfQpF3TpwF7PAOovG4S7Ixu37B9Y5v5Wss8SLRAbm1s7178gzZtr33/WguZJEye9KND/396dh8dV0Psf/3zPTJq2lK2lbWbaAsWylCyARaGKP3uvKyJLEuJ2RXEDFxT3FaXqVcEdca2iLF5RhySlZXHBe0FBBAyUJNOyb22TtKWlQJdsc76/PyjKUtomnZmcc+b9ep4+j/f38JvMvM/JmXO+OUt4rMuONdOx4mmoY8gfCvZI1dVc1rmZFgCA51rZMn9CqvBkl6QXUSNyBiR1SX67FNxuCm/v32tz1+yLH+qvxBirm+puNulYVgsgIhuovTZNKNb2KC1JpmCji3tgAREyc3V3w39InX9J6gc8+Nr7BiTdvO2fpKfupZVOVx3jrvkmP1Zm8yRNZHUoBzsw3BJ+W9IHaAEAeK7U8JNfkDG8ioBNku406fbQ7Q5XePuMqeOX26KOIdJIK1tq51hBx1ACiIz+Yg7T/3UJIfMrIFqCMHyXpL9U0mfedi+t9m3/5C0tqb4wf5hCm+eml8vtOJnmitPCS8N1Zm9z/VIuJQQAPNPq5sOPkuvTlCj79/ITMnXJ1GGhdyjwjpqg9q5tT4nG9vafC/Z29hOBSHmsmC/21CWEpza8QmH4V9oCkbJ1fKo6MznX8Tgp/q235aipNjx0TCgda/Jj3eylkvakTLG+FKxnOBXWz8rlN1ADAPDg6QeOr35iz39KXkuNklon6XZJt5vbHUGgjumtXQ+QZde5ZL1NdXdLOpgaQGR0Z9u664v1YmlJCgu2JmBODUTNhP5w8M2SFpHi37Y9Keeqbf84S6voO3+eTQ0HP5T0NmoAAMY9OemrDK+KrtdNHYE8r1DLFXhHTevy5Sauidkda5oajpFChldAhJj7mmK+XlqSJqbTa/oLnIkKRG6Y4P4uMcDa8UbxqdPo89v+XSpJ64+fs1f/xAkvlftxMs0z13Hikd8j+aZ56+qmuitntHX/jhgAULlWNdbPN/ePUWK39LqpQ64OmXdUBbptWi7fR5YS7Der8F/8/RKI2O+lqagDrH/9hvc01W2VNJ7EQLRYymszufxySuzGhnPBgnTv5A0Nbv4ycz9W0sskzabMDq2vUqF+atuKXlIAQOXpOXHeRFUNLBOXY+2qUNI9crvD5Leb/PatXnX77MXLNpKmDPt6Z8yr6n10YLWkqdQAovTLqQuy7d0fLdbLpZ/xv9eKR9gD0dsbGrbTJW6cujvs+uuHte2+EpJ+KElrTqqbPlzlL5XbPJNerqf+TaDWv0wZUuoSl17HJQ0AUIHfnVX957uM4dX2Dct1j0wdMnW4LB8G4e3cP3Ls9K4bOFHG8AqInMCKesbpM8/AulXSSygMRE5fZr/q/Xk8cmn5GfOq1qzf+uJQwbHmmu9PnaU1iyMYOzPb2sVlrABQSTsejbX/GZpdJ67HkqQBSV2S3y4Ft1sY3tG/z+bOYj4WHruvp6nuaklvoAQQsWMs03tmtHb/smiHJk//j9XNdUvN9UYSA1EcIvip2dZ8KyHKa2XLETPSheH5bnqZuR3r0oslVVdYhk0ye0m2tesu1ggASL71x8/Za2DC+E5JB1Tgx98s6U6T3x56cLt7eMeMaePz/BEx2lY1NcwMFD4kKUUNIFoC14k17d1XFev10v8+Pi7uzbUAFFFoZ0higFVms3J3rpZ0xbZ/T91La5/1Ryjlx8k1T9JxSv69tCbJPddz4rxjsks7trBWAECyDYwf/yNVwvDK9YRMXTJ1WOgdCryjJqi9a9vDYRAjKfm7nOEVEM3D2EBFvYTwuffAAhBFplevaa4/aHpr1wPEGMPF8NS9tDq2/ZMk9bTU7u+hXm6yY+WaL+lISVUJ++h1qhr4gaT3shYAQHL1NNW+V9LbE/jRNkn6h9z/aQpuD9xvn7a4+4Hn3+ORZ+bEjS9U0Nvp76IEENVf0sK6Yr5c+hkHyGu4TS8QWUEhDN8n6XOkiJZsLv+IpEckXS5JK1vmT0j55qM9LMw32XxJx0qqScBHfU9Pc9312dbuX7PUASB5+hob6kKFFyTk46yR6Sa5/01mN2bW77ds2x+hkDA9XfX/aXKeLA1E1MBeW4t6pd+/74HVWPsWM7ucxEB0d8Yy+1XP4j4M8fPISYdmU1XpeYH0cnc7Tk/dSyuOTzzcLNdLsu3dK1iqAJAcfac17BFuCm+V6fAYvv2CXHc/9URAu9FUuKmmdflynqBbGXqb6i536S2UACLp8Wxb9z7FfMF/nYEVmNawlQcibXrfo/0na9v9mBAf+y+5u0dSj6SlkpRvqR03JfSjwjA4RubH6KkzteLw18M9FOh3K1vmHzMrd/NWliwAJINvDi+MzfDK9YSkf7jpZgv09+rN/f+Ycu19T7AUK8+qxsOmuNRICSCyin6bqmdcQuhr5TwpF4j4Ttv7xQAr9mpz+UFJt2z7J0nqa2yYVrDCsSY7RtJ8SUdL2jOC62B9qvDkheJ+WACQCD3NdW93V5TvIXS/pL+b6eZh6aaZqbl5brQOSUoF6Xe7V9zToYE4KfoA618Tq54TD9lPVePW0RiINLeU12Vyee4ymvQF3dKSWjN41+FhKjxG0kskO1pSvaJyg3jTadwPCwDibXVLw6FWCP8paVJE3tIGyW51D28NzG5VqurWTO4Ojk+w3f2k3sLy+yQ7kBpARJnasq3dzcV8yX+dgZWZd8+G3s66ISXv6VlAojYDYcE+JOlDpEj4gn7qr8td2/79QpLuPX5O9aTq6iMU6GjJjnbT0XIdrrF4dLTrJ32NDctq2ju7WVoAED8Pnn7geHsi/J3Gbng1INkyk9/qplsLKtwyq3XFvSwZ7IqewvITjOEVEG2uNcV+yWddM9jTVPeIpFmUBiJt0/hU9czJuY7HSQE/Y15V79rBBqX8OLnmyTVPpsMkBWX46Q9ZatxL+es4AMRPb2PdRW56dzl/pEw3SrpJoXcM7L35n7MvfqifJYHR6Gmq+7OkV1MCiDDTOdnW7q8V8yXTz/m/V4oBFhB1k/rDgdMlXUAKbHsqZce2f5KkdScduudQKn2EApv3jKHWXD3njxZF+OkH+vBga76l9tXb7usFAIjDwX9j7cdKPLx6XNJtLt0k8w4bHLo5u/SeRymP4qy/dXMlvYoSQMSPU0JfWezXfNYAy6SVPIkQiAHXh3yhLrSFComB55q65O4nJd247Z8kaWVL7eSU29Fye7GHfpSZjpL0Iu3umVpmr5hc8O9I+jDlASD6Vp3a8CqF4TeLd4Sixyz020PZ7TJ1BGH6lsziZQ9RGiXbDQ7sQ+Y8fQyIOpNWleA1/211c923zPVJUgMx2CCE9obM4q5rKYHRWttSO2l4KDjULKz1p8/Wkl4sacLIV0g7M9vatYiqABBdvacceaAHw7dJ2m+UL7FRUl6mDgu9Q4F31LQuX24SfwNHWTx1lnnVKpn2ogYQbalQc6Yv7r6/mK/57DOwQq0Us2wgFjwVflgSAyyM2rRcfpP+ffnhpdJT99Rava7/8FSgIz20o2Q6UtKRkvbe8QrpF/Y01i7PtudvpCwARE/faQ17+ObhK7Xrw6teSbdLfrssuN2HvWPGld0rKYmxNJiuOt3E8AqIw+Hqln02rS72iz73Ju6NktpoDcRjo2AW1mdal+dJgVJb01x/UEHhUfLgSMmP0lNDrRnP/c+U8pdmc/lHKAYAEdphkKy3ue53crW8wH+yUua3m4LbLfTbBwtDt++/5O4eyiFy63Fj3QqZDqUGEHlrs23d04v9os++iXtojyjgDGAgJkwefEIq6xOEUKGmt3Y9IOkBSa1P/789eMqR+1TbUN2zbhYfWlvfaQ2vrLmsczPVACAaepvrPv+M4VWvmzrk6pB5R1Wg26bl8n1UQtT1NNe+0ZzhFRATJfmD9rMGWKnQVxUCSgNx4dJ/PXLSoefwV1KMhdmLl23Uc24W33dawx5Vj25JUQcAoqGvsWGah+FAGNhrwiC8fVYuv4EqiCNz417NQHyU5JJze87BsPU21W2RNJ7eQEy+zM3Pz7TmP0sJAAAAJFFvU+1LXHYrJYCYcF2Qbe/+aLFf9lnnW217gshqagMx2jaE9oENLfP2pgQAAAASub9rxh9rgRgxK80ZWM+/YNDF00WAWG0dtFd/OPgeQgAAACBp1jTXHyTXyZQAYnWMWqYBlomnRwFx4/6xfEvtOEIAAAAgSQrun5bE/TWBGDEPSjJX4gwsIBlmTh7WW8gAAACApOhrbJgm6R2UAOJlWFpVitfdzhlYxgALiCE3O8dbWvjrFAAAABIhNP+wpAmUAGJlaEbq0N5SvPDzBlilutkWgJI7uGd4eQsZAAAAEHd9pzXsIfkHKQHETq/lcoVSvPDzBlge+oP0BuLJZF/0hds5sxIAAACIkXBL+F5JkykBxM79pXrh5x3obu7vf0BSgeZADJkO772z7hRCAAAAIK7yLbXj5PoYJYA4HpPafaV66ecNsA6+9r4BleiGWwDKINAXXTJCAAAAII4mF/ReSQdQAogfD8t4BpYkuex+sgNx3WLoyJ7m2jcSAgAAAHGTb6kd57JPUwKIp8DC8g6wTOF9ZAfiy9wWchYWAAAA4mbysN4nzr4CYqsQqnyXEEqSlfCaRQBl8eI1jXUnkAEAAABxce/xc6rd7DOUAOKrOhwu8yWEJbxmEUB5hIG+zhMJAQAAEBeTxle/V9IsSgCx1Td1yd1PlurFt3twWwjEGVhA3Lnqe+6sfRMhAAAAEHXbzr76LCWAWCvpyVDbHWClBqvvk+S0B+LNzL7iZ8yrogQAAACibNvZVzMpAcSYl/Z2VNsdYGWXdmwxWS/1gdg7uHdd/+lkAAAAQFRx9hWQDGZjcAaWJLmcywiBRGxEgoUrW+ZPoAQAAACiaOLECe8TZ18BsRdaWP4zsCTJnPtgAUng8my68OQHKQEAAICouff4OdXmzpMHgQQISjxHeuEzsIwnEQJJ4dJn1x8/Zy9KAAAAIEomTRh/ljj7CkiEwYFgjM7AMs7AAhJkv4EJ1Z8kAwAAAKLiwVOO3Melz1ECSIQNB1zd9Vgpf8ALDrBChffSH0gS+8Sqpgb+ugUAAIBIGJ8a+qykKZQAEqHkJ0G98BlYgxPulhSyDIDEmBi4/zcZAAAAMNZWthwxw90+TAkgGVy+vNQ/4wUHWNmlHVskPcRiABLE/LSe5rqjCQEAAICxFBSG/1vSREoACfmdNhu7AZYkuWk5iwFI1nZFrm+TAQAAAGOl7+T6epOdRgkgQVxjO8AK3BhgAcnzyp7m+lPIAAAAgLEQpsPzJaUoASTqFztf6h+xwwGWLGSABSSR+7fvPX5ONSEAAABQTr2N9a+U2/GUABJlS82Ryx4p9Q/Z8SWEsjzLAUikF+0xofoDZAAAAEC5uGSh+XmUABJnuS0s/UMAd3wJ4cRghXgSIZBQ9sWVLbWT6QAAAIBy6GuuazHpWEoAiVOWq/d2OMCquaxzs+SPsCyARJocFOyrZAAAAECp+RnzquT6GiWABP5+l+n+6cHO/xMuIwSSyqQze5oaXkwJAAAAlFLvuoEPuDSHEkACBWE0Blju4kbuQHKlpPCnvnBXhtkAAADAyK1qPGyKTF+iBJBMaQVlOfFppwetgRkDLCDZXtLTVXc6GQAAAFCSg05LnydpCiWARNoyrb7robJsS3b6X4QhAywg4cz1zVWNh7FTAQAAgKLqOaV+nqR3UwJI6sGkVpTjCYTSLgywUlVaLslZKkCiTTFLf4UMAAAAKBaXzAP/ocTtKoAE/6KX7aSnnW5IpuXymyStZKkAyWbS+3tPqX0pJQAAAFAMPc117zLpWEoAST6QtOgMsLbpYqkAiReEgV3ADd0BAACwuza0zNvbXF+nBJD0g0jvLtvP2rX/zO5gsQDJZ9KxPZ1176IEAAAAdkf/8MCXJU2nBJBsQ+lU2eZFuzbAcmeABVQIk77Z19gwjRIAAAAYjd6W2sNl+iAlgMRbOyt35+py/bBdGmAF6YABFlA5JodW+B4ZAAAAMBpesB9KqqIEkHhlnRXt0gBreq7zIUkbWDZApbC3rW6uPZEOAAAAGInVTXVvlvQflAAqQJmv1tulAZZJLulOlg5QOczth2tbaidRAgAAALui58R5E006nxJAhRwzBha9AZYk7oMFVJ79hwvBV8kAAACAXVI18AVJBxACqAxhEJT1RKddH2AFPIkQqDz+kVWN9fPpAAAAgB1Z3dJwqKRPUAKoGJuytZ33lvMH7vIAyxQywAIqT5Ay/6mfMY+bcAIAAGC7XDIrhD+RVE0NoGIss4UKy3pwuqv/YU1Qe5ekLSwjoOJ2SBp61g1+nBIAAADYnt7m+veJG7cDFcXK/ARCaSRnYOVyBUndLCagAjdO5ueubKmdQwkAAAA809qW2hrJz6MEUFlC07Jy/8xghP89lxEClWlCqmCLXDJSAAAA4GmFgn1frn0pAVQW82BZuX/mCAdY3MgdqGD/0dNUdxYZAAAAIEk9jbWvd+nNlAAqzuDmrVvy5f6hIxpgWciN3IFKZtI3uJQQAAAA6046dE+Z/ZQSQEUeGC4/+Nr7Bsr9Y0c0wBqu2qtL0jBLC6hYe6QK9itfOOLLjwEAAJAgg+mq8yQdQAmg8piPze2lRnQQOit381bJulhcQEU7rrer/qNkAAAAqEy9jfWvNOkDlAAqk8tuGYufO4qzKPwfLC6g0rdY/vXe5sNrCQEAAFBZek6cN1HmvxAP9wEqVhiG8RhgmfktLC6g4lW7py7ylpYUKQAAACpI1eDXXOKeqEDl2jxj49TusfjBIx5guQIGWAAk+TG94V2fogMAAEBl6GtqOFbyD1MCqOTDQN1m118/JvdGH/EAK9PadbdMj7HUAMh9YV9jQx0hAAAAku3B0w8cHyr8lSTOwAcqmJndOlY/e+SXEEou160sNgCSqkPzS/2MeVWkAAAASPBO35N7fF3SYZQAKpubbh6rnx2M6g1L3MgdwNNbhKN6Hh34Ah0AAACSqffUugVyO5sSAIaHBuNzBpYkBaFxHywA/2LSF1afWvcySgAAACTL+uPn7OWhLh7tsSOARHl4/yV394zVDx/VRmi4KrxFkrPsAGyTtlC/Xn/8nL1IAQAAkBz9E6ovkHQAJQDYGF+NN6oB1qxcfoPk97L4ADzD7IHxE35ABgAAgGRY3VR7kslOpwQASXL3Mb0abzdOAzXugwXgOZsFf+fq5tq3EgIAACDeek48ZD+TLaIEgKeFCuJ3BpYkmZz7YAF4/rbB7cc9LbX7UwIAACDGxlX9QtJ0QgDYZnBo7yfvGMs3MOoBlocBAywA27OPhvVrb2lJkQIAACB+eptqPyi3kykB4BmWzb74of6xfAOjHmBlpo3rlLSFZQjgecxe0Rve9SlCAAAAxEtvS+3hLvsWJQA8+xhPY34bqdFfQrioY0iuW1mKALbL/Ss9zXVHEwIAACAeHjz9wPEq2OWSJlIDwLMO70K/eazfQ7BbH0D+VxYjgBdQZa7L15106J6kAAAAiL7qxyed51IDJQA8V6EwPObzn90bYKVSDLAAvPA2QpozVDXuO5QAAACItt7m+jfI9BFKANiOe/dfcnfPWL+J3RpgBQNVN0saZFkCeEHu7+ttrnsTIQAAAKJpzUl10939l5KMGgC2IxInL+3WACu7tGOLSR0sSwA74q6LVjUecQglAAAAIraftlBBIaVLJU2nBoAXcEMU3kSwuy/g7jewLAHsxKQgKPzm3uPnVJMCAAAgOvq66s+R6bWUAPDCCvE/A0uSLAj+xsIEsFOueXuMH38+IQAAAKKht7H+le7+JUoA2IGV2bYVD0fhjez2AGvclq03SiqwTAHslOkjPU11jYQAAAAYW32NDdNk+o2kFDUA7MD1UXkjuz3AmnLtfU/ItIxlCmAXmKRf9rU0zCYFAADA2PCFCkILf+3yLDUA7GSL8deovJMgaR8IQOTtExbC3+ZbaseRAgAAoPx6Ouu+JOk1lACwMwULI3Pf86IMsDwMuJE7gJF46T6hfY0MAAAA5bXq1IZXmXQOJQDsgt5ZrSvujcqbKcoAK0yHf5MUsmwB7CpzfWJ1Y/3JlAAAACiP1SfXzQrC8HJx3ysAu3LMJkXqaruiDLBm5fIbZMqzeAGMZHtogf+qp2nuAaQAAAAorXuPn1NtKV0haSo1AOwaT94AS5LMncsIAYxwe6h95cFlvmBBmhgAAACls8eE6h9IeiklAOwq81QyB1hu0Xm0IoA4bRXtFX2T13M/LAAAgBJZ3Vz3bsnOoASAEVg7vb0zUlfaFW2ANdQf/K+kAssYwEi5/FO9TbWnUgIAAKC4Vp1Se6S5fkgJACM8SrvOJI/SOyraAOuAq7sek9TBQgYwCuayX/Y01s0lBQAAQHGsbKmdHATWJmkCNQCM6ABNwZ+j9p6Cor6a688sZgCjtKdMv+87rWEPUgAAAOzmodmCBelUwX4raTY1AIxUQXZd1N5TUQdYJmOABWB31Pnm8BdkAAAA2D29Ux79jqTXUALAKKyY2da5KmpvqqgDrA3p8GZJm1jWAEbLpbesbq4/ixIAAACj09tc+065PkIJAKM8KPtTFN9WUQdYtbn8oKQbWNoAdoe5f7ensfY4SgAAAIzM6lPrXuZuP6MEgFEfj1k0bw8VFP+Tch8sALutSma5dU1zM6QAAADYNT1Ncw+wUO2SqqkBYJQGUymP5IlJRR9gWeAMsAAUQ82QUv/jCxakSQEAALBjK1vmT5ClWiVNowaA3XDztFw+kreGKvoAK5PLL5e0imUOoAj+o3ffdV8lAwAAwAtzyYLhJy+Wax41AOyWCF9VF5TiRV1+HUsdQHE2oPaZ1Y31JxMCAABg+3ob675qpjdRAsDuChReF933VorjTQVcRgigaJsUM79kZfPcg0kBAADwbL1N9afL9AVKANj9Iy89Nj2o/WdU315JBliB23WSnKUPoEj2TnlqyYaWeXuTAgAA4Ck9TfX/z+U/pQSAonD7i+Vyhai+vZIMsGraO9dK6mTpAyiiw/rD/kt8YWm2WwAAAHHS01x/mMwXiycOAiiWCN//SlLpDgRN9keWPoCicju5p7PuS4QAAACVrK+xYZrcr5FrX2oAKJYgsMocYLl0NYsfQLGZ9KXexvoWSgAAgEq0smX+BLdwsaTZ1ABQRN01uc4Ho/wGSzbAyqQOu0nSetYBAEVmbv7LvsaGOlIAAIBK4pKlhjdd5NJ8agAo7gbGr4r6WyzdJYS5XEFyLiMEUAqT3ML2h0+o57R5AABQMXqba78j87dSAkDRpVLXRP0tlvRmyG66irUAQEm2L9Kcqmr/nbe0pKgBAACSbnVT7afl9jFKACiBDZlHJ98c9TdZ0gHWcH/wB0nDrAsASuQ1PcMrvkEGAACQZD1N9W8z2XmUAFASrmvs+usjP7sp6QDrgKu7HpN0E2sDgFIx06d6m+pPpwQAAEiiVac2vEryX0kyagAoBZfH4iF8Qal/gBlPIwRQ8g3uT3qbal9CCQAAkCS9TbUvCcJwsaRx1ABQIsPDg0Es7l9e8gGWh9wHC0DJjXfZFX2NDdNIAQAAkmBlS+0cly2VNIkaAErGdeO2q+cir+QDrGx79wpJ97NWACix/UMLc37GvCpSAACAOFvXNDeTKujPkqZTA0ApmeJz1VxQlp/inIUFoCz+X++jAxeSAQAAxNWqxsOmDCn1J8kOpAaAUnMGWM8JEhgDLADlcmZvU90nyAAAAOJm/fFz9gosfa2kOmoAKIMHtl01FwtlGWBlp4y7QdLjrBsAysGlb61urn0rJQAAQFysbJk/YWD8+Csl8WAaAGViS+L0bssywLJFHUOS/ZmVA0C5tsTmdtGqxvr5pAAAAFHnZ8yrShWezMm0gBoAyrbtsfhcPiiV6x5YkszDpaweAMpoQmC+uK+lYTYpAABAZA8gW1pSvY8O/kbSCdQAUEaPbwzCv8bpDZdtgNXvVUskDbKOACijaWEhvObhE+r3JQUAAIgal6y3sOKnkp9KDQBl3gAtrc3lYzWjsXL+sJ6muj9Ieh1rCoAyb5yv98C+RggAABCpgzH3UyWdSQkAY6Ap29bdHqc3nC7vQaS3yowBFoAy7x1qgbkvIAQAAAAAaIuGqv8YtzcdlPWnDQ+1SxpmXQEAAAAAACg/d12VXdqxJW7vu6wDrOzSex6V60ZWFwAAAAAAgPILArXG8n2X+wd6YK2sLgAAAAAAAGXXnx4aujaOb7zsA6wwCNolhawzAAAAAAAAZWT+x6lL7n4yjm+97AOsWbk7V5t0C2sNAAAAAABAGXl8r4oLxujnchkhAAAAAABA+QwNDdhVcX3zYzPACtOtkpx1BwAAAAAAoAzMrzvg6q7H4vr2x2SAlVm87CFJd7D2AAAAAAAAlJ57vB+qF4zhz+YyQgAAAAAAgNIrBKmqJXH+AGM2wAo9dQXrDwAAAAAAQGm57IZM7o51cf4MYzbAmtl+5z0mdbIaAQAAAAAAlE5gHvuTiMbyEkK52eWsRgAAAAAAACUzbGEQ+9s4BWP708PfiKcRAgAAAAAAlISb/lDT3rk27p9jTAdY2Vz+EUk3sToBAAAAAAAUn3kyrn4LxjyknMsIAQAAAAAAim9LOhUuScIHGfMB1nBKv5U0yDoFAAAAAABQTL54Wi6/KQmfZMwHWLNy+Q2S/sxKBQAAAAAAUDyBJ+fheUEk3oXzNEIAAAAAAIAi2rA+7X9KyoeJxAArmGSLJW1i3QIAAAAAACgC0+9rc/nE3LIpEgOsmss6N8ttKWsXAAAAAABAESTsarcgOm/Ef8PaBQAAAAAAsNtWZhq6bkzSB4rMAGv61Oo/SnqUdQwAAAAAAGD0THa5LVSYpM8UmQGWLeoYkukKVjMAAAAAAIDRK4Rh4h6WF0Tq3VjAZYQAAAAAAACj5Vo+c3F+WdI+VqQGWJkrOm+UdD9rGwAAAAAAwMi57NIkfq5IDbBMcpNdwuoGAAAAAAAwYsOFwuBlSfxgQdTeUEH2K0kF1jkAAAAAAIBd56Y/7L/k7p4kfrbIDbBmtnWukvS/rHYAAAAAAAC7zkL9KqmfLYjim3LzX7HaAQAAAAAA7LL1m/v7r07qh4vkAGtwz83tMj3GugcAAAAAALAr7LKDr71vIKmfLpIDrNkXP9Qv6XesfAAAAAAAADsXenhxkj9fENU3ZgUuIwQAAAAAANgFt89sz9+Z5A8Y2QFWZnH+VpM6WQcBAAAAAABemJsl/iSgIOLv71JWQwAAAAAAgBc0aIMDv036h4z0AMs8uEzSEOsiAAAAAADA87lrcXbpPY8m/XNGeoBV0965VubXsDoCAAAAAAA8n6ky7iEe9UsI5WHAzdwBAAAAAACeb3UmffifK+GDRn6AlZ067hpJfayTAAAAAAAAz+C62HK5QiV81MgPsGxRx5BcF7FWAgAAAAAA/Etonv5FpXzYIA5v0kP9TFKBdRMAAAAAAEBy0zWZxcseqpTPG4sB1owru1e66VpWTwAAAAAAAClw/bSiPm983qj9hNUTAAAAAABAj9Sk5v6hkj5wbAZYNfVdf5D0IOsoAAAAAACocD+rlJu3Py02AyxbqFDSz1lHAQAAAABABRsaHh66uNI+dBCnN2upql9IGmBdBQAAAAAAlciktv2X3N1TaZ87VgOsTO6OdSYtZnUFAAAAAAAVKaism7f/+2PHjXMzdwAAAAAAUJHuqrmi+4ZK/OCxG2Bl2rtukCzPOgsAAAAAACqK6acmeSV+9CCW79p9EWstAAAAAACoIFsLgV9WqR8+lgOs8enqSyRtZt0FAAAAAACVwKTfzsrlN1Tw54+nnqa6X0h6D6swgJ1s5TokPUAIAAAQYa+Wa18yANjhoU3ox2QW52+t1M+fjusbDzz4fmjhuxXjIRyAsmzmF2Vbu7jsGAAARFZPU12HxAALwA6OaqSbK3l4JcX1HliSato7uyVdz2oMAAAAAACSLJQuqPQGQZzfvLtdwGoMAAAAAAASbHV2v+q2So8Q6wFW9oiupZLfw7oMAAAAAACSyN0utEUdQ5XeIdYDLFuoUGY/ZnUGAAAAAAAJtMU19AsyxHyAJUlVQ0O/lPQ4ixIAAAAAACTMJTPb71pPhgQMsKYuuftJmf+SRQkAAAAAABLE5bqQDE8JkvAhrFD1A0kFFicAAAAAAEiIa7Pt3SvI8JREDLAyi5c9JGkJixMAAAAAACRCoAuI8MwcCWFuLFgAAAAAABB/ruWZK7r/TIh/S8wAK9PedYOkf7JIAQAAAABArAV2gUlOiGckSdKHMfMfskgBAAAAAECMbQgm2v+Q4dkSNcDatGXgt5L6WKwAAAAAACCmflZzWedmMjxbogZYB19734BMnIUFAAAAAADiaGB4eIi5xnYESftA44PqH0p6nEULAAAAAADixS/Zf8ndPXR4vsQNsCbnOh53089ZtAAAAAAAIEYKBQu/TYbtC5L4oaoC/46kfhYvAAAAAACIBVPbrNYV9xJi+xI5wJqWy/dJ4o79AAAAAAAgFgKF36HCjvoklKeCb0kKWcQAAAAAACDirqtpXX4LGV5YYgdYM3Kdd8u0mEUMAAAAAACizM3Op8KOBUn+cOZ+HosYAAAAAABElmlZtrXrL4TYsUQPsDJt+dsk/R+LGQAAAAAARJGF9nWTnBI7FiR/TXBOwwMAAAAAAFH0QE36sDYy7FziB1jZ1vwfZepgUQMAAAAAgGixb1ouV6DDzgWV8CHd9S0WNQAAAAAAiJA1hdSkS8mwaypigJVNzb1C0v0sbgAAAAAAEBEXzMrdvJUMu6YiBlhPnY7HEwkBAAAAAEAkbBwI0z8hw64LKuWDZvYbf4mkB1nkAAAAAABgLJnsu7MXL9tIiV1XMQMsW9QxJDPOwgIAAAAAAGPp8f4wdSEZRiaopA+bmTLuV5I/xGIHAAAAAABjwYyzr0ajogZYtqhjSG7ns9gBAAAAAMAYeHywX5x9NQpBpX3gzNTqizgLCwAAAAAAlJtL3z/g6q7HKDFyFTfAskUdQ2b2TRY9AAAAAAAoo8eHB+wCMoxOUIkfekPgF0l6mMUPAAAAAADKwd0v4Oyr0avIAVZtLj9o7t9i8QMAAAAAgJJzPRGmxdlXuyGo1A++qX/gF5JWsQoAAAAAAICSMr9gVi6/gRCjV7EDrIOvvW/AJe6FBQAAAAAASmmThoZ+QIbdE1Tyhx/ca9PPJa1mNQAAAAAAACXhuiC79J5HCbF7KnqANfvih/rlnIUFAAAAAABK4slQw98jw+4LKj3AY2n/qaQHWRUAAAAAAEAxufTdme13rafE7qv4AVZtLj/opv9mVQAAAAAAAEX06Pit/d8lQ3EEJJCywdxLJK2gBAAAAAAAKAqzb0y59r4nCFEcDLAkWS5XMPmXKAEAAAAAAHaXyXoKwaSfUKJ4GGBtU9OWb5XsFkoAAAAAAIDd4QrPnZW7eSsliocB1jYmuQLOwgIAAAAAALvl3syGqReTobgYYD1D9oruP7nsfykBAAAAAABGw0zn2PXXD1OiuBhgPTdIGH5OklMCAAAAAACMhEmdNfXdV1Ci+BhgPUdmcf5Wky2lBAAAAAAAGJHQPmsLFRKi+BhgbYe5fUFSgRIAAAAAAGAX3ZhZ3HUtGUqDAdZ21LR3dkv6DSUAAAAAAMCuMLdzqFA6DLBeaMUL01+SNEAJAAAAAACwE1dn2rtuIEPpMMB6AZnFyx4y+c8pAQAAAAAAdiAM3b9AhtJigLUDwymdK2kDJQAAAAAAwAv41cz2/J1kKC0GWDswK5ff4PLzKQEAAAAAALZjU5UKXyRD6THA2omNKX1f0v2UAAAAAAAAz2Rm35ratqKXEqXHAGsnanP5QXfnSQIAAAAAAOBfTNZjE+07lCgPBli7INue/52kmygBAAAAAAC2+ULNZZ2byVAeDLB2gUkeKPikJKcGAAAAAAAV786ahq5LyVA+DLB2UU1b5z8ka6UEAAAAAACVzV2fsoUKKVE+DLBGEitln5Y0QAkAAAAAACqTSUtntHf/mRLlxQBrBGpynQ/K/UeUAAAAAACgIg3Lws+RofwYYI3QgFd9VdJ6SgAAAAAAUFnc7GeZ1uV5SpQfA6wRmr142UaZvkoJAAAAAAAqypPpIWceMEYYYI1CZkr1jyXdSwkAAAAAACqDu31t+pLuNZQYGwywRsEWdQwFro9TAgAAAACAinD/4N5PXkCGscMAa5Rq2ruvknQ1JQAAAAAASDaTzp598UP9lBg7DLB2QyrU2ZJYgQEAAAAASCrXnzJt3ZzAMsYYYO2G6Yu775f0PUoAAAAAAJBIg6FSHybD2GOAtbuGqv9b0sOEAAAAAAAgcb49s/3Oe8gw9hhg7abs0o4t7v5ZSgAAAAAAkCir0in/BhmigQFWEcxoz/9W0v9RAgAAAACAZHDpk9Ny+U2UiAYGWEViFn5Y0hAlAAAAAACIvRuzbd2/J0N0MMAqkkzr8rxMP6EEAAAAAACxViiYPmSSkyI6GGAVUfWW/i9K6qMEAAAAAAAxZfrRrNbuTkJECwOsIppy7X1PuHQOJQAAAAAAiKW1A4X0uWSIHgZYRZZt6P6VZLdQAgAAAACAeHHp87MXL9tIiehhgFVktlChzM+SVKAGAAAAAADx4NI/njopBVHEAKsEsq3d/zTpx5QAAAAAACAWhj30D9hChaSIJgZYJZIeHvqCpFWUAAAAAAAg2kz23ZmL88soEV0MsEpk6pK7n5T5RykBAAAAAECkPZJKhV8lQ7QxwCqhbGu+1WRLKAEAAAAAQDS5+VnTcvlNlIg2Blil/kVIhR+WxC8CAAAAAABRO2Z3/X5Ga34pJaKPAVaJZXP5R8z1ZUoAAAAAABAhrifCdOrjhIgHBlhlUPPYft+X7A5KAAAAAAAQDWb+uVm5O1dTIh4YYJXjl+L664dN4ZmSCtQAAAAAAGDM3VaTOvxnZIgPBlhlkmnL3+ZmP6UEAAAAAABjatgtPNNyOU4yiREGWGU0fsvWz0vi9EQAAAAAAMaIu743o3U5t/mJGQZYZTTl2vueMLePUQIAAAAAgDHxSFXav0KG+GGAVWaZ9q6cSTyiEwAAAACAMjOzD0zL5TdRIn4YYI2BtApnyvQYJQAAAAAAKBO3SzKtXdcQIp4YYI2BqW0rel36JCUAAAAAACiLvkI6/DgZ4osB1hiZ0dr9S8n+QAkAAAAAAErM9aFZufwGQsQXA6wxVEgF75W0kRIAAAAAAJSGSb/Ntne3USLeGGCNoVm5O1eb6fOUAAAAAACgJB41D84mQ/wxwBpjNa3dP5X0Z0oAAAAAAFBcLp1V0965lhLxxwBrjJnkFqbPkMRjPAEAAAAAKN7x9tIZbd2/o0QyMMCKgMziZQ/JdA4lAAAAAAAoiseHU6kPkCE5GGBFRKa++0K5/40SAAAAAADsHnP/yKzcnaspkRwMsKLyy7VQYaj0eyVtpQYAAAAAAKM9wPZrM+35SwmRLAywImRm+533uHwhJQAAAAAAGAXXEz5sZxIieYwEEftda2lJ9RVW/M2l+dQAirKZ+4NZeCcdAABAZI8B3E6XNJ0SQBF+n6T3zmjrvogSCTyyI0H0rGmuP6jgvkzSntQAAAAAAGDnTLYk09Z1MiWSiUsII2h6a9cDcn2aEgAAAAAA7JJ1wbCfQYbkYoAVUdn27p9KupoSAAAAAADshPkHpi/pXkOI5GKAFeWF48G7Ja2lBAAAAAAAL+iibGu+lQzJxgArwmraO9fKeHoCAAAAAAAv4MHqrf0fJ0PyMcCKuGxr12JJl1ECAAAAAIBnCc3tXVOuve8JUiQfA6wYGJ+q/rCkhykBAAAAAMA27t/MtHfdQIjKwAArBibnOh5XEJwmKaQGAAAAAACWH9h785fpUDkYYMVE9orOv8n8AkoAAAAAACrcQMH8bbMvfqifFJWDAVaMbN4y8DmZuigBAAAAAKhUJn1hVmt3JyUqCwOsGDn42vsGXOE7JQ1SAwAAAABQgW6oaej+HhkqDwOsmJnRuvwOM51DCQAAAABAhdkoFd5pC7k/dCVigBVDNa3d33bTVZQAAAAAAFQKl96fbVvxMCUqEwOsGDLJU2HwHkm91AAAAAAAJJ1LP57R1v07SlQuBlgxVdPeuVaBTpc4dRIAAAAAkGSWD1N7fpIOlY0BVoxlr+j+k7u+QwkAAAAAQEL1F8zfNit381ZSVDYGWDGXfWy/z7v0D0oAAAAAABLH7OxZrd2dhICRIP7WNNcfVAj9Dpn2ogYAAAAAICFas23dp5IBEmdgJcL01q4HLND7KAEAAAAASIiVhZSfQQY8jQFWQmRau3/v8ospAQAAAACIuWGXv3VWLr+BFHgaA6wESe2ROkvSXZQAAAAAAMSWaeGMtvxNhMAzMcBKkJrLOjcHBXuTpH5qAAAAAABi6IZMMPc8MuC5GGAlTM2VXV0ufZoSAAAAAICYWTs8PPQ2y+UKpMBzMcBKoBlt3RfK9WtKAAAAAABiIlSg0/ZfcncPKbA9DLASKp32D0haQQkAAAAAQOSZvpS9ovtPhMALYYCVUNNy+U2BB2+StJkaAAAAAIAIuyZT3/0NMmBHGGAlWE17Z7ebv48SAAAAAICIWqmhwXfaQoWkwI4wwEq4Ga35yyX9jBIAAAAAgIgZ8kBvyS6951FSYGcYYFWAzVv7z5apgxIAAAAAgKgw+UdnXNH9d0pg19YXVISeprkHSKkOSVOoAQAAAAAYSyb9LtPW/RZKYFdxBlaFyLateNikd0pyagAAAAAAxozr7nFb+88gBEaCAVYFybR1Xy338ykBAAAAABgjmy3tTVOuve8JUmAkGGBVmEz68HMkXUcJAAAAAMAY+EAml19OBowU98CqQGtbamuGC3a7pAw1AAAAAADl4GY/mtHadRYlMBqcgVWBpuXyfYGCJkkD1AAAAAAAlMHfNwbhx8mA0eIMrArW21z7Tne7mBIAAAAAgFIefg4PDx29/5K7e0iB0eIMrAqWac1fIuknlAAAAAAAlEi/hX4KwyvsLgZYFS6zX/XZkm6gBAAAAACg2Nz0oczi/K2UwO7iEkJozUl10wtp3SZpFjUAAAAAAEXhuiDb3v1RQqAYOAMLmr6ke41beLKkLdQAAAAAABTBjY+l/dNkQLEwwIIkaUbr8jtkOpMSAAAAAIDd9Iilqppqc/lBUqBYGGDhX7Kt3b+W7PuUAAAAAACMUr9MzZncHetIgWJigIVnyaQO+6SkP1ICAAAAADBSJvtAtrX7n5RA8dct4DlWttROThXsNkkHUQMAAAAAsCvc9a0Z7d3c9wolwRlYeJ5ZufyGMPRmSZupAQAAAADYBX/Opud+jgwoFc7AwgvqaaprlHSFGHQCKPu3k31C0iZCAMBI+evkaqIDgDK7ayBMz5+9eNlGUqBkhwgkwI6sbqz/jJmfRwkA5VSlQnZq24peSgDAyPQ213/J3b9MCQBltL5ghfmzWlfcSwqUEmfWYIdmtHedL/kiSgAop0KqajwVAGDk3L2aCgDKaMjkLQyvUA4MsLBTmf3Gn+Wy/6UEgHIJQw7AAGBU3PkDAIBybnM+lGnL/x8hUA4MsLBTtqhjKEyFLZKYqgMoi7AQcgAGAKM5ljRj+wmgXL6ebc//nAwoFwZY2CWzcvkNngpOlOkxagAotXSQ4gAMAEazc+9i+wmg9ExtmYbuLxICZf2OIwF21Yxc591yO0XSIDUAlJIHnIEFAKPafhqXEAIouduDicE7bKFCUqCcGGBhRLJtXX+V+1mUAFDiI7CJRACA0bAJNABQQquGh4dOrLmsczMpUG4MsDBi2fb8z+X+XUoAKJ1wKg0AYFSmkwBAiWwxedP+S+7uIQXGAgMsjErmiPynZH4lJQCUQhgGNVQAgFFhgAWgJLtn7va2TFv+NlJgrDDAwqjYQoXpQG+XaRk1ABR9GxOEHIABwOiw/QRQgp0z+9SM9i5OYMCYYoCFUZuWy2+q8sIbJH+IGgCKyjkAA4CRWttSO0nSJEoAKLKfZFu7uIUMxhwDLOyWqW0reuX2BkkbqAGgWFxcQggAIzUgse0EUFQmW5JJzf0wJRAFDLCw27Lt3SsCC98gaQs1ABRlZ8mdgzAAGOmOfYGzVwEUkfvf+vd68s2WyxWIgUh8z5EAxVDTuvwWmb9DUkgNAEX4dsoQAQBGxowzsAAUzYpCWqfMvvihflIgOocIQJFkW/Otcn2IEgB2m2vfVY2HTSEEAIxk22mHEAFAEfRKheNn5fLcJgaRwgALRZVt7/6pu75FCQC7y1LpQ6kAACPgxnYTwO560i08Idu24mFSIGoYYKHosu3dn5F0KSUA7N6BmA4jAgCMgLHdBLBbhhTo1Bmty+8gBaKIARZKsO8kz+xX/V5Jf6YGgFF/QXEmAQCMkLPdBDDqDYiZvy97RfefSIHIHh+QAKVgizqGqrf2nyrTMmoAGN1eVMiBGADsorUttTWS9qEEgNEdwNnnM635SwiBKGOAhZKZcu19TwwPDZ0gieunAYwcZ2ABwC4ruHH5IIDR7nQtyrZ2nUcHRB0DLJTU/kvu7jELT5C0nhoARuhF9x4/p5oMALArx5+aSwQAo9CaSR3+QTIgDhhgoeQyrcvzJj9e0pPUADACVXtOmHgUGQBg50L3l1IBwEiY+182b+3/L8vlCtRAHDDAQllk2vK3mfxkSf3UALDLB2QWHkMFANiFA1HZsVQAMIKtxi2ptE45+Nr7BmiBuGCAhbLJtOX/z+VvljRMDQC7JDQGWACwExta5u0t6RBKANhF3YVU+IZpufwmUiBOGGChrGa05ZfI9C5JITUA7JQ5ZxQAwE5sHR54Kfv1AHbR/VUqvHZWLr+BFIgbvuhQdtnW7l+b+0coAWAXzF5zUt10MgDADnbojcsHAeycyXqCVPCaqW0reqmBWH7fkQBjIdOe/5G7f4USAHZmOO1cRggAO+BiOwlgpzYWwvCEmlzng6RAXDHAwpiZ0Z4/1+Q/pASAHX9RBS+nAgBsny9UIIkzsADsyKbAwtfPXJxfRgrE+7gAGEM1bfmPmOuXlADwggdn5q+lAgBsX9+y2qMlTaEEgBcwKPeWmtblt5ACcccAC2PKJK9Jzz1DUis1AGyX64h1TXMzhACA7UgFrycCgBdQMLe3Z9vzfyAFkoABFsac5XKFQmrP0+S6nhoAtreZGLaAs7AAYDvc/XVUALD9zYO9L9PelSMFkoIBFiJhVu7mrRquPkHSDdQA8Lw9sDDgAA0AnuPhE+r3lfRSSgB47q6Tyc+a0d71K1IgSRhgITKySzu2BHsEJ8j9b9QA8Czmr9l2o2IAwDbjxvtrJKUpAeBZu02mz2Ta8j+mBJKGgwFESs1lnZvHp8efKOk2agB4hv223agYAPC0UJydCuDZzD6Xae3+FiGQRAywEDmTcx2PD4Tp18rUQQ0AT/PATqYCAGzbJra0pNx0AiUA/IvpnGxr13mEQFIxwEIkzV68bKMGB18vqZsaALZ5i0tGBgCQen3FqyRNpwQASXLpy9nW7q9RAknGAAuRlV16z6OBB6+Sazk1AEg6aE3z4dysGAAkWai3UAGAJMn9uzPauhcSAknHAAuRVtPeuTZV0H9KWkENAKHszVQAUOnyLbXjXOKyagCS64Jse/4ThEAlYICFyJu+pHtNqOC1ku6nBlDpO2n2Fm9pSRECQCXbZzg4XtJkSgAVzuznmfbujxEClYIBFmJhZlvnKi/oPyQ9SA2gomX6fMUryACgoo9ZJc5GBSp9O+D6Zaa+6/0mOTVQKRhgITZmXNm9MhXqNZJWUQOoXB76W6kAoFKtbamdJPMTKQFU8L6Q/OKaI7rfZwsVUgOVhAEWYmX64u77pcJxkh6gBlCp7G3rj5+zFx0AVKLhQvBfkiZRAqhYF2Ub8u9heIVKxAALsZNtW/GwUv4fJt1HDaAiTRoYP/5tZABQmfwMGgAV+/u/KNPQfQbDK1QqBliIpWwu/0gq5a+Qazk1gMpjpg9QAUClWdVYP1/SiykBVKSfZNry72d4hUrGAAuxNS2X70sV9J+SuqkBVBaXGlY31b6cEgAqasfdnOE9UIn7PaZvZ9u6P8gN21Hx34MkQJxNX9K9JvDgVTJ1UQOoLCbjQA5AxVjVeNgUSS2UACpsf8f8/Bmt3Z+iBMAACwlQ0965dqjfXinpNmoAFaWlr7FhGhkAVIJUkH63pPGUACqHmZ+fac1/lhLAUxhgIREOuLrrsYEw/VrJbqEGUDHGeeDvJwOApPMz5lW5+wcpAVTUb/4XGV4Bz8YAC4kxe/GyjeNT415n0s3UACpk18797HUnHbonJQAkWd+jg/8l2YGUACpj90buH8+25f+bFMCzMcBCokzOdTxuewSvkfR/1AAq49d+OF3FI+UBJPdIdqECd+f+N0CF/MrL9dFse/57pACejwEWEqfmss7N6ZSfJNf11AAqYU9Pn3jw9AO5LwyAROrrrG2S6XBKAIkXyv3MbHv3D0gBbB8DLCTStFx+0+b+/tfL1EYNIPEy1Y9POp0MAJLIzbgHDpB8w2b+7mx7/uekAF4YAywk1sHX3jeQCea+yaRfUQNIONOnfcGCNCEAJEnvKfXHyzWPEkCibbHQTsq05i8hBbBjDLCQ7GPaXK5Q09D9XpP/kBpAos3u2Xf9aWQAkBQumQL/IiWARHtc7q/LLO66lhTALhzfkwCVYnVj/WfM/DxKAMn9NddQ9SHZpR1bSAEg7nqbak91WY4SQGKtdQtfP6N1+R2kAHYNZ2ChYsxo7zrf3M+SFFIDSOavuaoGziYDgLjzM+ZVuezrlAAS65HQU69geAWMDAMsVJRMe/5HMr1T0jA1gET63JqT6qaTAUCc9Tw68H5JB1MCSKS7vKDjZrbfeQ8pgJFhgIWKk23t/rWbN0nqpwaQOHsWqvR5MgCIq3UnHbqnSV+gBJBIt1uq6v/NuLJ7JSmAkWOAhYo0ozW/1AIdL9cT1AASxvWBlc1zOXMBQCwNpdKfl8SZpEDy/HV8qvo/M7k71pECGB0GWKhYmSu6rzf310jaQA0gUapSnvoGGQDETU/T3ANkxr38gIRx01WF1J6vn5zreJwawOgxwEJFyyzO32oW/j9JnMYLJEtzb3P9G8gAIE5MqQslTaAEkCiXZqdUN83K3byVFMDufk8C0LqmuZkhS10j15HUABLj4WCPoLbmss7NpAAQdT1NdY2S2igBJOpo+weZ1u6PmuTEAHYfZ2ABkqa2rehNB/4KSX+kBpAYB4SbCueQAUDUrTvp0D0l/YASQGIUTP6hbGv32QyvgOJhgAVsMy2X3/RYyk+S/DfUABLC7JOrGmuPIASAKBtKj/uKpJmUABKh3+RvybTlf0wKoMi79iQAns0l62mqO9ekc6kBJOKr7pZMQ9fLbKFCWgCImpXNdQ0pV4ekNDWA2Nsg95Oz7fkbSQEUH2dgAc891JV8Rlv3Qpk+KnHAC8SfH9PXVXcmHQBEbuu0YEE65bpIDK+AJHgg9NR8hldA6TDAAl5AtrX7AkmnSuKJIUDcDxJd31rVeMQhlAAQJT37rvuipKMpAcSbSZ2FVOr/zWy/8x5qACX9XQOwI31NDceGCpdK2o8aQKy/8ToyU6rn26KOIWIAGGs9zXVHy/V3SVXUAGLtuuqt/c1Trr3vCVIApcUZWMBO1LR1/sNS/kpJD1MDiDHXvL5HBz5PCABjre+0hj3k/j9ieAXEfN/CLsnsV/0GhldAeTDAAnZBJpdfXkilXi7pTmoAMd7PlM7pPaX2pZQAMJbCzYXvSsZlzUCMdync/SuZ9q53cWY3UD5cQgiMwNqW2kmFQvA/Lj+JGkBs3Z9O+ZHTcvlNpABQbj2Nta+X2TXshwOxNWjmZ2Ra85eQAigvzsACRmBaLr+pJnVYk2TfpwYQWy8aLvA7DKD8VrYcMUNml4jhFRBXj8r9VQyvgLHBlycwSj1Nte+V7Mfi/hVALLn03hlt3RdRAkBZtjlnzKvqXdf/F5m9ghpALN3rqeDEGbnOu0kBjA3OwAJGKduW/4WbvUHSRmoA8WPSD3ua63h8PYCy6Ht04DsMr4DYum4gTL+U4RUw5vvvAHbHyua5B6fC1FKZDqUGEDuPaGhwXnbpPY+SAkCprG6qe7NJv6UEEEu/yOxX/UFu1g6MPQZYQBGsbKmdnCpYm6RXUgOInesyqbmvt1yuQAoAxba6peFQGw5vlWkvagCxUnC3L8xo7zqfFEA0cAkhUASzcvkNm7f2v07SZdQAYufVfYUV55ABQLGtO+nQPa0QLmZ4BcTOJjdvZHgFRAtnYAFF1tNcd7Zc3xUDYiBOXLK3Z9u6fkMKAEXZqLS0pPoKd7W5/CRqALGyWqGdnF3c1UEKIFo4wAaKLNvafYG5vUXSVmoAsWGSX7SqsX4+KQAUQ2+44ocMr4DYua1KhZcwvAKiiQEWUAKZ9q5cGPrLJH+IGkBsjA/Ml65snnswKQDsjt7muk/J9X5KADHidrmGqhdMbVvRSwwgmriEECihVY2HTUkp9Ts3exU1gNi431JV8zO5O9aRAsBI9TTXNsvt9+IPxUBccLN2ICYYYAEl5gsWpPumrPtvd/sMNYC4/OL63zb3D7zm4GvvGyAGgF3V01x3tFw3SJpIDSAW1rvZW2a0dl1HCiD6GGABZbK6sf5dZv4TSdXUAGLxBfnbmobu/7KFCqkBYKff8y0Nh1oh/JukqdQAYuHOIBU01uQ6HyQFEA+c2gyUyYz2rl9JwcskPUINIPpcektPZ+1Fzh97AOxET0vt/lYI/yiGV0AsmPS7YI/g5QyvgNj97gIop96Wo6b68NDvZVpADSAWX5QXZtq6P0IJANuzsuWIGalC4a+SDqIGEHnu0leybd1fNsnJAcRuvxxA2b85FyxI90559DtycVAMxOPr8r+zbV1fpAOAZ+o58ZD9lB53g0yHUwOI+g64nnDz02a05ZcQA4jpHjkJgDHc8W2uP0PuF0oaRw0g8j6fbev+BhkASNKGlnl794cDf5FrHjWAiHPdrcBOybZ23UUMIL4YYAFjrKex9jiZ5STVUAOI/LfmR7Ot3RcQAqhsG1rm7b21MPAHk46lBhD57+62qqGh06cuuftJYgDxxk3cgTGWbc/fGHhwhLn/hRpAxLm+39tUdy4hgMr18An1+/YXBv/I8AqIvGGXvpyp725heAUkA2dgAVE5Ll6wIN0z+dFzTPqiGC4D0f7yND8/05r/LCWAyrLmpLrpYVp/cqmBGkCkrQ2D4G0zr+jkD8RAkvbBSQBEy+rm2hNNdolc+1IDiLSfZBq6z7KFCkkBJF9PS+3+Kth1kg6mBhBpf61S4S1T21b0kgJIFgZYQBR3kpvmHiClcpJeQg0gwly/zjy237vs+uuHiQEkV19Lw+ywEF4n6SBqABH+VjZdmJlS/Ulb1DFEDiB5GGABEbWyZf6EVOHJCyW9hxpApL9If7sh5e+szeUHqQEk8Pu4ua4h5fqjeNgKEOUv48dc/s4ZrfmlxAASvd8NIMp6mupOk/RTSROpAUTW3zU0eHJ26T2PkgJIjtXN9a829ysk7U0NILKHtHekQm+Zvrj7floAycaNooGIy7Z1XybX0ZJWUAOIrJdZ1bibVzUecQgpgGRY3Vz3bnO/RgyvgCi7rJCa9HKGV0Bl4AwsICbWnXTonkNVVRfJ1UINILLWy/2UbHv+RlIA8eSS9TTVnWvSudQAIqvfpbNmtHVfRAqgcjDAAmK2U93bWPtRmZ0naRxFgEjaKvPTsq35VlIA8fLg6QeOH//EpItdejM1gMhaEXjwppr2zm5SAJWFARYQQz2n1M9T4JeLR3kDURXK7AuZ1q7zTXJyANG3tqW2ZrhgV0h6OTWAyPqFhqrPzi7t2EIKoPIwwAJiat1Jh+45lK76kaTTqAFE9kt2aX+Yfsfsxcs2UgOIrtVNtS8PFPze5VlqABHkesIDf/+M1vzlxAAqet8aQJz1Nta3uPkiSftQA4jkXvc9gaeaudQBiKae5voz5H6huDQfiKrbUqHeyo3aATDAAhKg95QjDwyD4ctNOpYaQCRtMrd3Z9q7cqQAomHb/a5+7NK7qAFEkst0YWZK9SdtUccQOQAwwAKS8g2/YEG6Z/Kj55j0RUkBRQB2xAFsX09L7f4qWKuko6kBRNJaub8z257/AykAPI0BFpAwq5vrX23ul0rKUAOIHpf+kQ71di6FAMZGb2N9iwf+M7n2pQYQSX9Op/wd03L5PlIAeCYGWEAC9TU2TAvNL5H89dQAIsj1hAJ9KNva/WtiAOWx/vg5ew1MqP6WZGdQA4ikIZe+nm3o/ootVEgOAM/FAAtI6vHxQgW9nXWfkfRlSVUUASLp0uqt/R+ecu19T5ACKJ1VjfXzA/P/kTSbGkAk91zvkVJvzbZ13k4LAC+EARaQcCub6xrSrstcaqAGEEkPy/3t2fb8jaQAinxI3NKS6hm+65Nm/lXxxxwgqi5Lp/yD03L5TaQAsCMMsIAKsLJl/oR04cnzXTqL33sgkobd/esb0/pabS4/SA5g961uaTjUCuEvJb2MGkAk9Vpo78ks7rqWFAB2BQeyQCXtzD91g/dfSZpJDSCS7jW392Xau24gBTA6vmBBunfKox+S6+uSJlIEiKRWDQ2+P7v0nkdJAWBXMcACKsyGlnl79xf6v8lNbIHICiX/RTqlT3A5BTAyK5vrGlKuiyQdTQ0gglxPKLBPZVu7FhEDwEgxwAIqVG9jfYub/0TSFGoAkdzLf0iBnZm9ovtPtAB27MHTDxw/7olJnzXpc5LGUQSIpL+nQr1j+uLu+0kBYDQYYAEVbGXLETNSw4VfyvRaagCR5C6/JOWpz9S0d64lB/B8T10eH/5IskOoAURSv0nn1DR0f88WKiQHgNFigAVU+tGxZL3N9e+T+3cl7UERIJI2utt5G9Ph97jJO/CUVU0NMwOFX5d0GjWAyOoOQz9t5uL8MlIA2F0MsABIknqa6w+T+6WSXkINIKJcyz2ws2e0dl1HDFTs99WJ8yZ6uv8zZvYpSRMoAkRSwcy/vSHQl/jDC4BiYYAF4N/HxgsWpHv2Xf8JM18oaTxFgIj+rpquSsvOnt7a9QA1UElWN9eeaK4fSHYgNYDIHmDe57L3ZNu6/koNAEXevgDAs/W21B4eFuwik46lBhBZWyV9fyBMf3P24mUbyYFEfy+dUvtSNztfpgXUACJrWNK3Bvba9JXZFz/UTw4AxcYAC8B2+UIFvV317+XeWEDkv8kfc9cPxg0PfWfqkrufJAiSpKexbq4CfVmuU9lvBSKt2+TvzrTlbyMFgNLt9gLADqxprj+o4P4LSf9BDSDS1rnbd7b0b/3+wdfeN0AOxNnqk+tmWcrPkew9klIUASJryMy/u2nLwLl89wAoNQZYAHbKFyro6az7kElflzSJIkCk3S+3czNHdF3O48oRN2tOqpsepvUFl86UNI4iQKSPJDsK0rtntXZ3EgNAeTY7ALCLek858kAPhn8u6dXUACLvfpku3Lyl/6f8VRxR19NSu79C+4Rc75U0kSJApA2Z+Xdrpoz/oi3qGCIHgHJhgAVgRFyyvsba09zse5ImUwSIvEdk+q4Gq3+eXdqxhRyIkjWn1L2okNJH5DpTUjVFgMjvB/7DXO/OtnevoAaAcmOABWBUVp9cN8vS/jO5HU8NIBbWyXTBQCH9I55aiLHW01x3tFyfldQoKaAIEHlbZPbFTHDYBZbLFcgBYCwwwAKwW1Y31r7Fnjobq4YaQAy4npD8Fym3H09f3H0/QVC2VW+hgp7O2jea7MPiUnQgTq4JUsFZNbnOB0kBYCwxwAKw2za0zNu7Pxz4ilwfEk+LAuIilPS/5raoJn1YG39RR4m/I06X62xJsykCxEafuX8m056/lBQAooABFoCi6WlqeLEsXCTXPGoAsXK/u/3cNfSLme13rScHimF18+FHmdv7JXu7uDE7ECcu6deFlH90Vi6/gRwAooIBFoDi7vGcMa+qZ93gx838SxywALGzWdLlLr8425b/uz11EAPssnUnHbrnYFVVi7neI+llFAFid3DYaQrOrGnr/Ac1AERwGwUAxdfX0jA7DAs/4ibvQGw9YuaXBwoWTW/teoAceCG+UEHvnbUvk+k0yd4maRJVgNjZ6tI3N6b867W5/CA5AEQRAywAJbW6ufZEc/uxpJnUAGIplHSzzC5NB+FvpuXym0gCSeppqd3fh4O3mvkZkg6iCBBb11iY/lBm8bKHSAEgyhhgASi5B085cp/qYPjrks4Uj0sH4myTSVdJ3upD46/JLu3YQpLKsqa5/qBQ3uxuzZK/lH1JINZ6ze3sTHtXjhQA4oCdDgBl09fUcGyo8EeSXkwNIPa2yPQHubWOT427enKu43GSJFNPY91cBWrSU0OroygCxN6wTD8eH1R/iW03gDhhgAWgrHyhgt7O+vdJ/jVJUygCJMKApOtcag9TqT/Myt25miQx3k63tKTWhPmjQ7cT5NYs0+FUAZLyC67rg9A+UnNlVxcxAMQNAywAY+LhE+r3rRrvC+X6kKQURYBEeUDy69x01eCem/88++KH+kkSbX2NDdNc/kq38NWSnSgpQxUgSQd91iMPP1fTnr+MJ8wCiO+2DADG0KpTao8MArtQ0nHUABJpi6Tr5fqjpf26mlx+BQdPY6/nxHkTfdzgyxT6awPT61xqoAqQSAOSvhvsEXyt5rLOzeQAEGcMsABEwranFf5I0ixqAAnmekKmW126SWY3Du755I2coVV6fY0N0wpB4ZhAerm7HSfpaEnVlAES7Tq5PpJt715BCgBJwAALQGSsO+nQPQerqr5krrMlVVEEqAj9cr9NZn9z83+4p+6Y2da5iiyj52fMq1q9tr/WUvbiwHWcy18u2SGUASrG/YHrozXt3VeRAkCSMMACEDkrm+cenPLU9yW9gRpARdooKS9Th4XeocA7aoLauyyXK5Dm2da21E4aHgoONQtrPbB5cs3TU096nUAdoOJscelbg3ttOo8zWwEkEQMsAJHV01TXKOnbkg6iBlDxNkvWLfndMt1j0r2hwnurArt3Wi6/Kekf/pGTDs1Wjas6xAt+sMsONtPBkh8u2RxJAasHUNHcpN+HBX1qxpXdK8kBIKkYYAGItHuPn1M9acL4s1w6R9I+FAHw/J0Z63H3e2S6z8xWhvJVQcF6zWzlsAZ7Z7bftT7SR55nzKta/ejQdLnPCuQZSTMt8GwY2mwzO1jygyVNYkkD2M7B3M0Ft0/MbO+6mRoAKmCbBwDRt6rxsCkpS5/r0vvF/bEAjEy/pNVy75EFa2R6zEPfaKaNJt/oCjaaaWNovjEw3xiEQb8keWibBgZ9SJLCqU9u3d4lOeuPn7PXpmBCSpLSaZ+UTluVJA2rsHfgto/L9nG3fUzhPi7tY4HtI9c+Ju3rpqxcWUnTxVlUAEbmQZc+l23r/j1PdgVQKRhgAYiVlc1zD04p9TW5WqgBAAAqzCaXvsN9rgBUIgZYAGKpr6nhWFf4XZfmUwMAACTcsOS/TA3bl6Yv6V5DDgCViAEWgNhyyfoa6091C78p2YEUAQAACXRd4MHHato7u0kBoJIxwAIQeytb5k8Ihjd9xOSfl2kvigAAgNhzLbfAPpVp7bqGGADAAAtAgqxtqa0ZLujLkr1bUpoiAAAghla627nZI7ousYUKyQEAT2GABSBxek858kAPhj4n2XvFk70AAEA8rHe3b4XpST+Ylbt5KzkA4NkYYAFIrL7GhrowCL/EEwsBAECEbTbzH1YH478xOdfxODkAYPsYYAFIvFWN9fMD829IeiU1AABARAxKfjFPFgSAXcMAC0DFWN1c/2pzfVPyo6gBAADGSChTaxAEn6nJdT5IDgDYNQywAFQUl6yvsf5UN/+apIMpAgAAyrUb4qarU8P2+Zoru7rIAQAjwwALQGXuQZ4xr6p3/eC7zHWuy7MUAQAAJXSdTJ/Ltnb/kxQAMDoMsABUtJ4T5020qoEPuPQpSdMpAgAAisZ1vckWZtq7biAGAOweBlgAIOne4+dU7zFxwjs5IwsAABTBTWEQnDvzis6/kAIAioMBFgA8w9ODLLl/SdIMigAAgBFgcAUAJcIACwC2I99SO27fMDidQRYAANgFNwXuX6ppz/8vKQCgNBhgAcAOPGOQ9UVJMykCAACe4SaTfzHTlv8/UgBAaTHAAoBdwCALAAA8w00W6JzMFd3XkwIAyoMBFgCMwL3Hz6meNL76vW72KUkHUAQAgIrhkq4JFPx3TVvnP8gBAOXFAAsARrMHu1BBT1ftCSY7V655FAEAILFCN11j0pezrd3/JAcAjA0GWACwm3oaa4/zwD5jrjdSAwCAxBiQ9PuCFb46q3XFveQAgLHFAAsAiuQZg6wT2L4CABBTricU6OIqL5w3tW1FL0EAIBo4wAKAIutrbKgLLfy0pLdIqqIIAACxsMaln05IVX9vcq7jcXIAQLQwwAKAEulpmnuALPVxud4jaQ+KAAAQSffLdOHAnpt+Nvvih/rJAQDRxAALAEqs58RD9vOqcWeZ9CFJ+1EEAIBIHAjd7GbfzNR3LbGFCikCAJHfbgMAyuHe4+dUTxpf/WYP7JNy1VMEAICyC910jdzPm9GWv4kcABAfDLAAYAz0NNYep8A+IleTpBRFAAAoqcdlukSBfyebyz9CDgCIHwZYADCG1pxS96JCSh+R692SJlEEAICiHuzc56YfBhODX9Rc1rmZIgAQ6206AGCsrT9+zl4DE8e/S66PSTqAIgAA7Jab3Pz8bGv+KpOcHAAQfwywACBCfKGCnq7aE8ztI5JeTREAAHbZgKTfBx58s6a9s5scAJAsDLAAIKJ6m2pf4rIPS2qRNJ4iAABsjz8kC34WhkM/n9l+13p6AEAyMcACgIh78JQj96lOFd4k10ckr6UIAAAKJf2vuS2qeWxKu11//TBJACDZGGABQIw84+mFp0iqoggAoMKsMfOLLUj9rCbX+SA5AKByMMACgBha21JbMzQcvNPMPyBu+g4ASP5RS4eF/oOaqeMvt0UdQwQBgEr8KgAAxNZTN32v/0+TnyFXk6QUVQAACfG45L8LPHUhN2UHADDAAoCEWHNK3YvCwM5w+bskTaUIACCmhyi3mPTT4dSk383K3byVHgAAiQEWACROvqV23D6hXmey07hXFgAgJkclj8k95+Y/ndG6/A6CAACe/1UBAEisdU1zM0OWepO53u1SA0UAABFSkPR/5rZoQzq8sjaXHyQJAOCFMMACgArRc0r9PKX8HXK9XdJkigAAxshd7nZxVTq8ZFou30cOAMCuYIAFABXmwdMPHD/+8T1PdPMzJL2K7wIAQMm5npDpSje7NNva9ReTnCgAgJHgoAUAKtjqk+tmKbC3mfmZkmZTBABQRKGkm2V2aTDR/qfmss7NJAEAjBYDLACAfKGCvs7aV7rsv2RqkmtfqgAARnmA0Rm6/cbS4eXZXP4RigAAivT9AgDAv917/JzqiROrX2tuLZKaJO1BFQDATqyUqV0eXJJt67ydHACAYmOABQB44aORlvkT0sOb3hgG/g5zvU5SFVUAANtskHQ197UCAJQDAywAwC5Z2VI7ORUGp8r9HZJexncIAFSkrTJd5fLLslPG/8EWdQyRBABQDhx8AABGbE1z/UEFD98mt7fKdDhFACDRBk32h1D+GxuqXppd2rGFJACAcmOABQDYLWua6w8qyE+Uq0WcmQUASdHvpuuC0HPV6fFXTs51PE4SAMBY4iADAFA0vacceaCnhk9mmAUAsbTVTX8JQs+lC8PtU5fc/SRJAABRwYEFAKAkVp9cN8vSapLrjZIWSEpTBQAiZ6NMf7bQr7JJqdaayzo3kwQAEEUMsAAAJddz4iH7WbrqDWFgLTzNEADG3LanB3puY6A/1ubygyQBAEQdAywAQFn1nHjIfl417mSTTpD0Wkl7UAUASu5+ma4OQr9yevrwGyyXK5AEABAnDLAAAGPGFyxI9+677lgL9EYP7RSZDqUKABRFQaZl7rrKQluaXdzVQRIAQJwxwAIARMYznmj4RkmvFJcaAsBIbJDpL5JdlxryK6cv6V5DEgBAUjDAAgBE0sqW2snp4eBVbn6iTG+Ua1+qAMDzPCDTVS5bmp0y7gZb1DFEEgBAEjHAAgBEni9YkO6bvO4VodkbAtdrXarnOwxAhdos6QaX/pA2u3p6a9cDJAEAVAJ2/gEAsdPbctRUDQ8vcAtfLdnxkmZRBUBChTLdYfLrQgXXbdmy9W8HX3vfAFkAAJWGARYAIPaeuneWXi35qxXqdTLtRRUAMdYn098s9KsKKlw9s/2u9SQBAFQ6BlgAgETxBQvSvfusP8JNrzbzEyXNlxRQBkCEbZZ0s7tdZ67reGIgAADPxwALAJBoPScesp+NG/efoeuVJnul5Ifz/QdgjG2W9HeT/S1U+L/ZDVNvseuvHyYLAAAvjB14AEBFWX/8nL36J054aaDw1e52nKSXSqqiDIAS2iTpHy7dJLMbuY8VAAAjxwALAFDR1rbUThoKg2PlfpxJL5f0CknVlAEwaq4nZLrV3a4zhTdlpo6/xRZ1DBEGAIDRY4AFAMAzrG2pnTQ0bPPN7P/Jw1fK7GhJEygD4IV3qK1H8r/J/W+m1A3T2zvzJjllAAAo5vctAAB4Qb5gQbpvytpDFdo8N71cbsfJNJfvUKBiDcnUKekmC71DgXdkWpfnyQIAQGmx8w0AwAg9fR8tuR8n0zxzzZc0hTJAIvXKdKOkmxR6x+b+gdu4fxUAAOXHAAsAgN3kCxX05WsPC4eDY8zCY012rEu1klLUAeL0y/zUvask+0fgfks4PPiP7NJ7HiUMAABjjwEWAAClOA4+Y15V3/qthyi0eR7YPLnmSTpK0kTqAJHYC35MruUydTx9KWBN/fIVtlAhcQAAiOJXNwAAKIt/308rdXhoXrvt8sNjJE2lDlBSvW7qkKtD5h1pBfnprV0PkAUAgPhggAUAwBhb01x/UEHhUfLgSMmPkrxWsgP4ngZGbKtkd8nVqcDvsNCWVafHLZuc63icNAAAxBs7xgAARFC+pXbc5NAPfvpsLTMdrlC1Mh0mKaAQKtygXPcpUN5dywO3vILC8pqg9i7L5QrkAQAgeRhgAQAQIzsYbB0qbhqP5GFQBQAAJDHAAgAgEXpOnDfRx209NHB7kVswR+5z5HqRTHMkzeA7HxHWL9cDZnafe3ifme73wO4LLLh3em3nw9xUHQAAiJ1ZAACSL99SO26/MJg5LB1k0kGm8KBQVmuuwyXtLylNJZTYgKTVkh6QablkeZceSEsPTAsOe5izqQAAwM4wwAIAoILlW2rH7T2cPjAIhmfLNctlMyU/IHj6f5v2lzSBUtiJdZJWmmyV5A/LtDKUr5LrkaqU7p+Wy/eRCAAA7A4GWAAAYId6W46aGoYDM+U2S7IDAtlMd82S+f566gyu6ZLGUSqhXE9IWiXTSkkrzWylFD5csNQqFWylpyeunJW7eSuhAABAKTHAAgAAu21ly/wJ48JNmUIYZj3QvkGofUMFGQs8K9e+kjJyZWXb/jfGWr+kHkm9bnrM3Htc1mumxyy0HlfYa4E/Vh1MWDU51/E4uQAAwFhjgAUAAMqq58R5E4PxQ9OHh70mFWhfd+1jCvdxs31d2sdc+0i2j3m4rwe2z7YB2D7b/gUU/Jd+SY9J2mjSRjffKNdjLtto0kYzbXT3x0zaWAhSj7mH68Z7Yd1+qbq13HMKAADEDQMsAAAQG+uPn7PXwISqfUMP9rGU7SG3iQq1RyCNcwv3NrOqMLS9gkDVUjhRrj1cGmeyvf2pm9XvLWmcTHs864Vd+2xnv2hv2XMGZq499dTrbJZp8Fk7VW5bXd7/nNcYkGnLM/7/u6SNMh+SbJNcWyXvl+xJMx8Ow+CxwHzYzZ60MOyXgq1ybQpTGjL5Rsk2pYNw4+Y9Nm+cffFD/awRAACgUvx/gv7EM8QcHP0AAAAldEVYdGRhdGU6Y3JlYXRlADIwMjItMDctMjhUMTM6MTk6MzIrMDA6MDDLk0TJAAAAJXRFWHRkYXRlOm1vZGlmeQAyMDIyLTA3LTI4VDEzOjE5OjMyKzAwOjAwus78dQAAAABJRU5ErkJggg==;" parent="1" vertex="1">
          <mxGeometry x="746" y="78" width="80.67" height="80" as="geometry" />
        </mxCell>
        <mxCell id="c-DlsIj0Viizq32SzEkp-18" style="edgeStyle=orthogonalEdgeStyle;rounded=1;orthogonalLoop=1;jettySize=auto;html=1;strokeColor=#666666;strokeWidth=1;curved=0;" parent="1" target="c-DlsIj0Viizq32SzEkp-13" edge="1">
          <mxGeometry relative="1" as="geometry">
            <mxPoint x="730" y="-34" as="sourcePoint" />
          </mxGeometry>
        </mxCell>
        <mxCell id="c-DlsIj0Viizq32SzEkp-77" value="&lt;div style=&quot;&quot;&gt;manages&lt;/div&gt;" style="edgeStyle=orthogonalEdgeStyle;rounded=0;orthogonalLoop=1;jettySize=auto;html=1;entryX=0.652;entryY=0.999;entryDx=0;entryDy=0;entryPerimeter=0;fontColor=#000000;fontSize=12;strokeColor=#666666;align=left;" parent="1" target="c-DlsIj0Viizq32SzEkp-37" edge="1">
          <mxGeometry x="-0.0007" relative="1" as="geometry">
            <mxPoint as="offset" />
            <mxPoint x="695" y="-70" as="sourcePoint" />
            <Array as="points">
              <mxPoint x="695" y="-120" />
              <mxPoint x="695" y="-120" />
            </Array>
          </mxGeometry>
        </mxCell>
        <mxCell id="c-DlsIj0Viizq32SzEkp-81" value="" style="edgeStyle=orthogonalEdgeStyle;rounded=1;orthogonalLoop=1;jettySize=auto;html=1;entryX=1;entryY=0.5;entryDx=0;entryDy=0;entryPerimeter=0;fontColor=#000000;strokeColor=#666666;strokeWidth=1;fontSize=12;exitX=0.111;exitY=0.5;exitDx=0;exitDy=0;exitPerimeter=0;curved=0;" parent="1" source="c-DlsIj0Viizq32SzEkp-14" target="c-DlsIj0Viizq32SzEkp-2" edge="1">
          <mxGeometry x="-0.687" y="-15" relative="1" as="geometry">
            <mxPoint as="offset" />
          </mxGeometry>
        </mxCell>
        <mxCell id="c-DlsIj0Viizq32SzEkp-14" value="" style="shape=image;verticalLabelPosition=bottom;labelBackgroundColor=default;verticalAlign=top;aspect=fixed;imageAspect=0;image=data:image/png,iVBORw0KGgoAAAANSUhEUgAABdwAAAXdCAYAAADzaZ/BAAAACXBIWXMAAC4jAAAuIwF4pT92AAAgAElEQVR4nOzd33Oc13kn+IMflkUvJ4RUguWeSCYl27JsV0w4PRtP4t0l/BcIuZ8qQlW87sBdtdem7qc4dF93lYGrvQxYu/chtiqTcSY9Jp2VY8uORESy23LTFCArIi0R6K1XOdBAFH/gx9vd73nP51OFUtlVibvPedXd7/d9zvNMDYfDAAAAAAAAHM+09QMAAAAAgOMTuAMAAAAAQAkE7gAAAAAAUAKBOwAAAAAAlEDgDgAAAAAAJRC4AwAAAABACQTuAAAAAABQAoE7AAAAAACUQOAOAAAAAAAlELgDAAAAAEAJBO4AAAAAAFACgTsAAAAAAJRA4A4AAAAAACUQuAMAAAAAQAkE7gAAAAAAUAKBOwAAAAAAlEDgDgAAAAAAJRC4AwAAAABACQTuAAAAAABQAoE7AAAAAACUQOAOAAAAAAAlELgDAAAAAEAJBO4AAAAAAFACgTsAAAAAAJRA4A4AAAAAACUQuAMAAAAAQAkE7gAAAAAAUAKBOwAAAAAAlEDgDgAAAAAAJRC4AwAAAABACQTuAAAAAABQAoE7AAAAAACUQOAOAAAAAAAlELgDAAAAAEAJBO4AAAAAAFACgTsAAAAAAJRA4A4AAAAAACUQuAMAAAAAQAkE7gAAAAAAUAKBOwAAAAAAlEDgDgAAAAAAJRC4AwAAAABACQTuAAAAAABQAoE7AAAAAACUQOAOAAAAAAAlELgDAAAAAEAJBO4AAAAAAFACgTsAAAAAAJRA4A4AAAAAACUQuAMAAAAAQAlmLSIAAJSr2eovhBDmHvL/dKvXaVyz7AAAUC9Tw+HQlgIAwCM0W/0iQC+C9DP3/IX43586xhpuhxD2Avjin1v7/9nrNLbsDwAAVJ/AHQAA7hEr1O/9O06gflx7gfzVEMKNGMKrkAcAgIoRuAMAkL1mq78YQtj7O5fIeuwP4a/2Oo2rFXhNAACQNYE7AADZabb6RSuYpfiXSsD+KNt74XsIYb3Xadyo9ssFAID6EbgDAJCF2CZmOYbspzN4z9dDCKvCdwAAGB+BOwAAtRUr2ZfjXw4h+4MI3wEAYAwE7gAA1E6z1d8L2evSLqZMV2LwvlqftwQAANUgcAcAoBZiNftKDNpP2dVH2oxV75d7ncZWxV8rAAAkQeAOAEDSmq3+YgzZz9vJI1sLIVzUbgYAAI5H4A4AQJJi0H5R25hSFcH7aq/TuFqj9wQAAGMjcAcAICmC9rHYKE4NqHgHAIDDEbgDAJCE2KN9VdA+VlrNAADAIQjcAQCotGarP1cM9tSjfaJeMVwVAAAeTeAOAEBlNVv9ldg+5pRdmrjtEMJKr9NYzXwdAADggQTuAABUTrPVX4jtY87ancrR3x0AAB5A4A4AQGXE9jFFRftf2ZXKe6XXaVzMfREAAGA/gTsAAJUQq9rXQwin7Ugyrsdq92u5LwQAABSmK/AaAADIXLPVLyqlfyxsT07R8udq7LUPAADZU+EOAMDENFv9M7GqXa/29F2J1e5buS8EAAD5ErgDADARzVZ/KQ5GPWUHamM7hLCoxQwAALnSUgYAgLGLLWT+WtheO8V+/liLGQAAcqXCHQCAsWm2+nOxqv0lq157a71OYzn3RQAAIC8CdwAAxqLZ6i/EsF2/9nxcjy1m9HUHACALAncAAEYuhu1XtZDJ0mYIYUlfdwAAcqCHOwAAI9Vs9ZeF7Vk7Xex/fOgCAAC1JnAHAGBkYtj+Q2F79k7F0F1PdwAAak1LGQAARmJf2A77vdzrNFatCAAAdaTCHQCA0gnbeYgfqnQHAKCuBO4AAJRK2M4BCN0BAKglgTsAAKURtnMIQncAAGpH4A4AQCmE7RyB0B0AgFoxNBUAgGMTtnNM3+p1GtcsIgAAqRO4AwBwLM1WfyGE8GOryDFshxAWhe4AAKRO4A4AwJHFsP1qCOGUVeSYitD9TK/T2LKQAACkSg93AACOpNnqz4UQ1oXtlKS4jq7G6woAAJIkcAcA4KiKyvbTVo8SnQ0hXLagAACkSuAOAMChNVv91RiOQtnON1v9FasKAECK9HAHAOBQmq3+cgjhh1aNEftur9O4apEBAEiJwB0AgAMzJJUxMkQVAIDkaCkDAMCBxGGWq8J2xuRUHMoLAADJELgDAHBQF/VtZ8zONVv9ixYdAIBUaCkDAMAjNVv9pRDCX1spJuRbvU7jmsUHAKDqVLgDAPBQ+1rJwKS4/gAASILAHQCAR9G3nUk7q7UMAAAp0FIGAIAHarb6iyGEv7FCVITWMgAAVJoKdwAA7ksrGSrI9QgAQKUJ3AEAeJCVEMJpq0OFFK1lVmwIAABVpaUMAACf0mz1z4QQ3rAyVNB2COFMr9PYsjkAAFSNCncAAO5H6w6qqhjge9nuAABQRSrcAQD4BINSScRzvU7jhs0CAKBKVLgDAHAv1cOkwCkMAAAqR+AOAMDHmq3+cjGY0oqQgHPxNAYAAFSGwB0AgP0uWg0S4noFAKBSBO4AAHwkVrefthokRJU7AACVInAHAGCPamFS5LoFAKAyBO4AAKhuJ2Wq3AEAqAyBOwAAQZUwiXP9AgBQCQJ3AIDMxepg1e2krKhyP2MHAQCYNIE7AAAr2a8AdaDKHQCAiZsaDod2AQAgU7Eq+A37Tw1shxDO9DqNLZsJAMCkqHAHAMib6nbq4lQIYcluAgAwSQJ3AIC8Lee+ANSKB0gAAEyUwB0AIFPNVn8pVgVDXZxttvoLdhMAgEkRuAMA5Et1O3XkugYAYGIE7gAAGWq2+nMhhJfsPTUkcAcAYGIE7gAAeTJckro6FdslAQDA2AncAQDyJJCkzlzfAABMhMAdACAz2smQAYE7AAATIXAHAMiPMJK6K9rKLNhlAADGTeAOAJCfRXtOBgxPBQBg7ATuAAD5UeFODjxYAgBg7ATuAAAZiW02TtlzMnC22eqfsdEAAIyTwB0AIC+qfsmJ6x0AgLESuAMA5EU7GXIicAcAYKwE7gAAeVmw32RE4A4AwFgJ3AEAMqF/Oxk6/Z/+82+/aeMBABgXgTsAQD5U+5Kdx2bD9XZ3sNruDgxQBQBg5ATuAACZmJ0J/5u9Jje/+/3w7RDC+RDCG+3uYL3dHXjwBADAyEwNh0OrCwBQU+3uYC6EsBxCWPm7f7r7+AcfhqftNTn5o89NvfmtL888e89b3gghXLx0Yf6qiwEAgDIJ3AEAaigG7Svx76O+7Rs/uWuryc7sTHjnO9+YfeIB77sI3lcvXZhfdWUAAFAGgTsAQI3cL2gvvHd7GHq/2LHVZOncN2cf9bY3Y8W74B0AgGMRuAMA1EAcCHkx9qr+lJvvDsOrNwTu5Ons8zNh7uTUQd77Zvz3aP3ShfktlwsAAIclcAcASNijgvY9v/z17uavbu6ettfk6IVnpm83npw+cYi3vh1CuFz8Cd4BADgMgTsAQILa3cFCbBvz0KB9zz++sfPmrd8P7x0cCVn446emN7/876eP8sBJ8A4AwKEI3AEAEtLuDhZjRfu5w7zqv//ZzubtD4Yq3MnSH31u6s1vfXnmuA+c1mKf9xuuIgAAHkTgDgCQgKMG7Xv+9tW779zdCU/Ya3J04rGpzT97caasB06CdwAAHkjgDgBQYe3uYDm2jjl7nFe58ZO7tplszc6Ed77zjdmyHzhdia1mrrqyAADYI3AHAKigGLQXFe2lVOUK3MnduW/OjmoFNmLFu+AdAACBOwBAVbS7g7kQwlKZQXth671huP76jn0mayMM3PcUwfvqpQvzq7mvNQBAzgTuAAATFoP2lfh3quxXI3CHEJpfmQknT0yNYyU2Y8W74B0AIEMCdwCACRl10L5H4A4hnH1+JsydHEvgvmcznlZZv3RhfssWAADkQeAOADBm7e7gTAzZl0cZtO/p39q9/dpbuyfsMzmbQOC+Z7sYrhoHrAreAQBqTuAOADAmMWgvKl7Pj3PNf/nr3c1f3dwtrSc8pGiCgfsewTsAQAYE7gAAIzapoH2PwB0qEbjvtxb7vN+oygsCAKAcAncAgBFpdweLMWg/N8k1FrhDCM/MT7/9pcb00xVbCsE7AEDNCNwBAEpWlaB9j8AdQvjjp6Y3v/zvp6v678GV2GrmagVeCwAAxyBwBwAoSbs7WIrDUCsRtO8RuEPlA/c9G7HiXfAOAJAogTsAwDG1u4PlWNFeyTBP4A7JBO57NmLF+3o1Xg4AAAclcAcAOKKqB+17BO6QXOC+ZzNWvK9W4+UAAPAoAncAgENodwdzsW3MctWD9j0CdwjhhWembzeenD6R6FII3gEAEiFwBwA4gH1Be/F3KqU1E7hDCGefnwlzJ6dSX4ntotVMbDezVYHXAwDAPQTuAAAP0e4OzsRq9uSC9j3/3N99+63B7tPVeDUwGTUJ3PcI3gEAKkrgDgBwHzFoL/qzn099fbbeG4brr+9U4JXA5NQscN9TBO/rsd3MjWq8JACAvAncAQD2qVPQvkfgDrUN3PdbE7wDAEyewB0A4N+C9sXYOqY2QfsegTuE8J1vzIbZmSwWogjeVy9dmL9agdcCAJAdgTsAkLUYtBcV7efqug53PhiGH/1M4E7ezn1zNrf3vxEr3gXvAABjJHAHALKUQ9C+38ZP7lbnxcAEZBi479mIw1XXq/FyAADqTeAOAGSl3R0sx6D9dE7vW+BOzk48NrX5Zy/OZPXv/H1sxor31cq9MgCAGhG4AwBZyDVo3/P3P9vZvP3BMPfAkUwJ3D9B8A4AMEICdwCgttrdwVwIYSnnoH3Pf//5zq/e/8Pwj6vxamC8nn5i6lcvPjvj+v+k7aLVTGw3s1WlFwYAkDKBOwBQOzFoX4l/p+xwCL/89e7mr27uqvAlS8/MT7/9pcb003b/vgTvAAAlErgDALUhaH+wf/nt7jtv/Gb3iaq+Phils8/PhLmTU9b44YrgfT22m7lR5RcKAFBlAncAIHnt7uBMbBuzJGi/v633huH66ztVfGkwcs2vzISTJwTuh7AmeAcAOBqBOwCQrH1B+3m7+HB3d0L421fvVvklwsic++asxT2aInhfvXRh/mqKLx4AYBIE7gBAcgTtR/P//uPd28NhOJHia4ejeuwz4e0//9qs/u3HsxEr3gXvAACPIHAHAJLR7g4WY9B+zq4d3n//+c6v3v/D8I9Te91wHE/+u6k3/+S5mWctYik24nDV9Rq8FwCAkRC4AwCVJ2gvxy9/vbv5q5u7p+vwXuCgnvvC9Dtf/Py0gcHl2owV76t1elMAAGUQuAMAldXuDpZDCMuC9nLcfHcYXr1hcCp5MTB1pATvAAD3ELgDAJUTg/aiol01dokMTiVHBqaOxXbRaia2m9nK4P0CADyQwB0AqAxB++j97at337m7E7TXIAuf++zUr/7Xr86YWzA+gncAIHsCdwBgotrdwVwIYSX+nbIbo/WPb+y8eev3QwMkycIz89Nvf6kx/bTdHrsieF+P7WZuZPbeAYDMCdwBgIkQtE9G/9bu7dfe2j2R43snP2efnwlzJ/Vvn7A1wTsAkBOBOwAwVu3u4EwchCponwB93MmJ/u2VUgTvq5cuzF/NfSEAgHoTuAMAYxGD9qI/+3krPln/7Z/u3vzDh+GpnNeA+vujz029+a0vz2ifVD0bseJd8A4A1JLAHQAYKUF79fxzf/fttwa7+lpTay88M3278eS09knVtRGHq67nvhAAQL0I3AGAkWh3B4uxbcxLVrha3rs9DL1f7OS+DNTct1+cCY8/pn97AjZjxftq7gsBANSDwB0AKFUM2ouK9nNWtrr+9tW779zdCU/kvg7U02c/E27+x6/NapuUFsE7AFALAncAoBSC9rT8/K3dm7+5tSuQpJae+8L0O1/8/LQHSmnaLlrNxHYzW7kvBgCQHoE7AHAs7e5gOQbtp61kOrSVoc60k6kFwTsAkCSBOwBwJIL29GkrQx1pJ1M7RfC+HtvN3Mh9MQCA6hO4AwAH1u4O5kIIy3EYqqA9ca/3d7ffHOyeyn0dqJcXnpm+3Xhy+oRtraU1wTsAUHUCdwDgkWLQvhL/BLQ1ceeDYfjRz7SVoV6+843ZMDtjU2uuCN5XL12Yv5r7QgAA1SNwBwAeSNBef//w2s7b/3pn+HTu60A9PPnvpt78k+dmnrWd2diIFe+CdwCgMgTuAMCntLuDM7E/+3mrU2/9W7u3X3trV/sNauHs8zNh7qRhqRkSvAMAlSFwBwA+JmjPk+Gp1IFhqYQQNmPwvmoxAIBJEbgDAEXQvhDbxgjaM2R4KnVgWCr7CN4BgIkRuANAxtrdwWKsaD/nOsjX3Z0Q/utP794eDoOwkiRNTYXb/8efzLp+uVcRvBeh++VLF+a3rA4AMA4CdwDIkKCde716Y+ftm+8ankqanp2f3n6+Me2UBg+yXYTugncAYBwE7gCQkXZ3sBxbx5y17+x354Nh+NHPdqwJySmq2//i67MnZmfsHY+0va/i/YblAgBGQeAOABmIQXtR0X7afvMgqtxJkep2jmgt9nkXvAMApRK4A0CNCdo5DFXupEZ1OyVYixXv1ywmAFAGgTsA1Ey7O5iLbWOKP1WfHIoqd1Kiup0SbcSK96sWFQA4DoE7ANSEoJ0yqHInFarbGRHBOwBwLAJ3AEhcuzs4E0P2ZUE7ZXi9v7v95mDXtUSlqW5nxDZj8L5qoQGAwxC4A0CiYtBe9Gc/bw8p092dEP7up3fv7A7D4xaWKpqdCdvf+cassJ1xELwDAIcicAeAxAjaGYf+rd3br721e8JiU0VfPz3z/vypqc/ZHMaoCN5X44DVLQsPADyIwB0AEtHuDhZj65iX7Bnj8N/+6e7NP3wYnrLYVMnJx6duNl+YcV0yKdtF6C54BwAeROAOABUXg/aiov2cvWKctt4bhuuvG6BKtXz7xZnw+GNTdoVJ295X8X7DbgAAewTuAFBR7e5gKVa0C9qZmJ+/tXvzN7d2VRNTCQalUlFrsc+74B0AELgDQNW0u4PlWNF+2uYwacUA1R/97O723Z0g5GSiPvuZcPM/fm3Wwx+qbC1WvF+zSwCQL4E7AFSEoJ2q0lqGKmh+ZSacPKGVDEnYiBXvV20XAORH4A4AE9TuDuZi25hlQTtVprUMkzR/amrj66dnFkJw0oKkCN4BIEMCdwCYgH1B+4oAiRTE1jLv3N0JT9gwxux6r9NY8LlJwjZj8L5qEwGg/gTuADBGAiMS9VFYtPGTu0Vf4h/bRMZoO4Sw2Os0Pu6J7XOUhAneASADAncAGIN2d3Am9mc/b71JyKfaITRb/eI6/r5NZExe7nUa9w0nY/C+ZPYFCSqC99U4YHXLBgJAvQjcAWCEBO0k6qF9h5utfvHfn7O5jNhar9NYPsj/hKHTJKo4wXFZ8A4A9SJwB4ARaHcHi3EQqqCdlFyJwc9DB/w1W/2isviacJMRuh5byRwqhIzB+7IHQiRme1/F+w2bBwBpE7gDQIli0H5R2ENi1mJF+4GDnmarvxBCuKqHNiPwqb7th+WzmIQd+vMYAKgWgTsAlEC4Q6KOFew0W/2ikviHNp+SfbfXaTz0lMVBxc/mYrjqSzaJxKzFivcjP3gCACZD4A4AxxDbFxRhzlnrSCL2egavllFBaYgqJXvgkNTjME+DhD10pgYAUD0CdwA4AgP6SNDIhvM1W/1VQSYlOPCQ1KMSvJMwwTsAJELgDgAH1O4OikGRS4J2ErO5bxhfqUH7fs1W/6qWShzDyMP2/eLn+Ur8M4eAlGzG4L30kyAAQDkE7gDwCIIZEjXWUKbZ6s/FIaraK3FY13udxsIkVs3nOwkTvANARQncAeABBDEkamIhjNCdI7geQljsdRojO31xEE4wkbCxnGICAA5O4A4A99jX43dJ0E5CNuIg1IlWOwrdOYRKhO33MqODRI1sTgcAcDgCdwCIDNMjUZUbpCd05wAqGbbvF4P3ZbMJSMz2vor3GzYPAMZP4A5A9gTtJKpyQft+QnceovJh+37t7mAxfkcI3knNWvyeELwDwBgJ3AHIlhCFRCUToAjduY+kwvb94ndGMdPjpeq8KjgQwTsAjJHAHYDsCNpJVJKBidCdfYpreCXFsH0/p6JIWKVPRgFAXQjcAciGfrwkqOjFu16HysRmq78qoMzaWq/TWK7TAgjeSZjgHQBGSOAOQO3FoL0IRU7bbRJRBO2X49C7pKuB92u2+sV7+qvqvCLG5Hu9TuNyXRe73R3MxVYzxd+pCrwkOKjr8Xtm1YoBQHkE7gDUlqCdBNUyaN+v2eoX/17+sDqviBHaji1ksgjzBO8kbDNWvAveAaAEAncAamVf4LEsaCchm/Hh0Hpdg/b9mq3+QuzrLpSsr+KaXup1Gtdye+Pxe2jJA18StBkf+q7m8F0EAKMicAegFlQWkqhsqwrjMNV1MxVq6Urx0DP14ahlcNKKRNX+tBUAjJLAHYCkxaF1y4J2EuP4fqSve+280us0Lua+CPcytJtEbe+reE96cDcAjJPAHYAkxaC9CHXO20ESshGD9qs27X9qtvqLsdrdQ7N0ZdtC5jDa3cFi/O4SvJOatfj9JXgHgEcQuAOQFEE7iRK0P0JsMVNU/L9U6RfK/azF4ahaTxxQDN5XXO8kSPAOAI8gcAcgCcIJErUWj+IL2g+o2eovxeBdtXv1bcde7eu5L8RReYhMwjxIBoAHELgDUGmO35MoFYDHoNo9CaraSyR4J2GCdwC4h8AdgEoStJMoQXuJYrV7MbDvdG3eVPo2Y1W7cG0E2t3BXDzNZRA4qblefF4bBg4AAncAKqbdHSzHoF3ARiq2YyhcBA2qfUsWq90FkJP30XXe6zQu5r4Q4yB4J2Gb8cGz4B2AbAncAagEQTsJErSPUbPV13JjcrSPmZAYvC/5fiRBm/E7ctV3JAC5EbgDMDExSFiOFXyCBFKxGfuLC9onoNnqL8QQR7up0fuoRVKv09AiqQI8mCZRHk4DkB2BOwBj56g8iXJMvkKarb45D6OzEYN2fdorKAbvy659ErO9r+LdQzwAak3gDsDYCNpJlKC9wmLwXnymvJT7WpRARXtCDBcnYQaMA1BrAncARq7dHez1Xl4StJOQjXgEft2mVZ8e70e2vdciSdCephi8e+hEigTvANSSwB2AkdkXtAvASMlGDAC000hQs9U3G+Jgrsf2DuuGodaD71wS5nsXgFoRuANQunZ3sBDDLjf9pMQNf83EdjPLTtd8rKhmX4/V7Ncq8poomeCdhPkeBqAWBO4AlEY/WRLlSHvNxar3pfiXW9uNvZC9qGTXHikj5qaQsOuxpZvZKQAkSeAOwLEJ2kmUoD1D+8L3xRpXvgvZ+ZjgnYQZWg5AkgTuABxZuztYju0aBO2k4uMBkYJ2wr8F8Av7AviUP8s2Ysh+VbsY7icG70vxAbn5BqRkM86cWL10Yd7MCQAqT+AOwKHFoN0NOynZjjfrl92s8zCx73vxtxD/qvg5V4RPRahe9Dm+1us09DvmUHyPkyjf5QAkQeAOwIG5QSdBbs45ltiCZi98P7Pvn+P4HCz6GG/FYH1LuE7Z4vd60WrmrMUlIdv7Kt6dVgOgcgTuADyU3q8kSt9XRq7Z6p+J4XuIQfzcvv/Ne//zvbZilfqe/f+5CNY9IGJszGIhYeaxAFA5AncA7kvQTqIE7QBHJHgnYYJ3ACpD4A7AJ7S7gzMxZF8WtJOQ67FtjKAd4Jjib4EieD9vLUnMRgzetd8CYGIE7gB8xM01iXJjDTAifhuQML8PAJgYgTtA5txMkyg30gBjEn8rLGszR4KcgANg7ATuAJmKfVqLG+eXXAMkZC3eOF+zaQDjZb4LCTPjBYCxEbgDZMZANBJlGBpARcTgfa/i/bR9ISFF8H45hLB66cL8lo0DYBQE7gCZaHcHS/HGWNBOSgTtABXW7g6W44N8wTsp2Y7B+2XBOwBlE7gD1JwbYRLkJhggMfH3RvFg/6y9IyHb+yrePdwHoBQCd4CaErSTIEE7QOK0riNhTtUBUAqBO0CN6KlKovRTBagZwTsJE7wDcCwCd4AaiEH7Svw7ZU9JxGa8oV21YQD11O4OzsTg/bwtJjFX4qm7qzYOgMMQuAMkTNBOogTtAJkRvJOwjfi7RfAOwIEI3AES5KaVRLlhBchc/A2zrFiABG3E9ncKBgB4KIE7QEIE7SRK0A7AJzilR8Kc1APgoQTuAAmIg8eWBe0kRu9TAB7KwHcSthkLYdYNfQdgP4E7QIXFoL34IX/OPpGQtVj5dcOmAXBQ7e5gOf7uEbyTku2iwCAWGQjeARC4A1SRoJ1ECdoBOLYYvBcV72etJgkRvAPwEYE7QIW4wSRBezeXq4J2AMqkAIGEKUIAyJjAHaACHKEmQaq4ABgLwTsJE7wDZEjgDjAhcUjYkqCdxAjaAZiIdndwJv5uMkSe1BgkD5ARgTvAmMWgfSX+nbL+JGIzVmit2jAAJknwTsI24u8pwTtAjQncAcZE0E6iBO0AVFIM3pf9tiJBG3H+jd9XADUkcAcYsXgzuBJvCN0Mkgo3ggAkQVEDCVPYAFBDAneAEXHcmUQ56gxAkmLwvlfxbj4OKdmM9w3rZuQApE/gDlAyQTuJErQDUBvt7mDZYHoSZDg9QA0I3AFK0u4OFuON3TlrSkLW4k3dNZsGQN3E4L2oeD9rc0mI4B0gYQJ3gGMStJOotVjRfsMGAlB3fq+RML/ZABIjcAc4onZ3sBQrpty4kYqiWmrdTRsAuRK8kzDBO0AiBO4Ah6QnKAlyLBkA9jFzh4Rdib/pzN0BqCiBO8ABCdpJkKAdAB5C8E7CDLwHqCiBO8BDtLuDudg2ZlnQTkI2Y3iwLmgHgEeLwfvegNVTloyEFMH76qUL86s2DaAaBO4A97EvaHfTRUo2Y6WTGy4AOAK/AUmY34EAFSFwB9hHdROJcoMFACWKwfveb0KnHEmJk44AEyZwB9C/k3Tp3QkAI2aOD4kyywdgQgTucAzNVn8x/l+fiX+Fohpm4RD/X/cHZUOOLXIAACAASURBVDfiX+h1GgK0MRC0kyhBOwCMmeCdRAneJ2xfbrAQ84JwzNzgWgih2MutXqdxrRaLBDUjcIdHaLb6Z+IX4cK+L8hzY1q37fhluhfEF1+yN3qdxg37djzt7mAxHhMWtJOStTgUS9AOABMSf0deHOM9AZRlLRZtuJ8sWbPVX4hFeHIDQOAO+zVb/eJLcTF+Qe79s4p9vPe+UK/Gv2u9TkO1wgG4QSJRbo4AoGL8riRhflsew77cYC8zqOpnwCdyA6foYXwE7mSv2eov7fuyPJvwelyPX6Trvkg/zQ0RiXIzBAAV1+4OFuJwVScnSc2V2GrG/eND3BOwLyXeVmpDAA+jJ3AnO7FFzN4X5Us1ff/be+F7DOCzrX7Xa5ME7fXZXBW0A0A6zAYiYeYD3SPmBkvxr65FW3IDGBGBO1mIT6SXYuVJylXsR3Ulty9RQTsJMtAKAGogBu8rcV5QFdtTwoNsxKKP1RxXaF/Iviw3EL7DcQjcqbXYLma5xpXsR7EWv0DX03vpD9fuDvYerAjaSclmcWMjaAeAeom/TVfin+CdlGzGivcsgvdmq79c8xPwh7Udg/dVbWfgaATu1E58Kr3sh+0jfRzypf702s0MicrqRgYAcrXvt+qyohASsxmLmdbrVhgScwMnUR5tc6/dpap3ODiBO7XRbPUX45elnomH99Fgxl6nkVS/aEE7iRK0A0CmtD0kUbVpfRhzg4s17ss+KntV78nlBjAJAneS5wuzVBvxC7TSx8b2DaRaErSTkI14k1K7dk4AwOEI3klUssF7bBuT60y3sl2JJ+W1m4EHELiTLEH7SFUyeN8XtDvFQEo2YkW7H6QAwCe0uwP3NKRqLf7GrXS1cwzaPdwajSQK9mASBO4kR9A+VpX4Am13BwuxGkHQTkoE7QDAgQjeSVglg/dmq78Uq/EF7aNX3PcsazUD/5PAnWTEoSarfoROxER6vLvxIFFJVPsAANWj0ISEFb+BVyddbKJAb6KSnA0HoyBwp/Karf5c/ML8K7s1UR/36xv1dHJBO4kStAMApdBKkYRN5JRnzA0u+3dm4rZjZnAx83UgcwJ3Ki32W7tsMGalbBZVN71Oo/TBj3F41LKgnYRsx5M3lwXtAEDZYvC+En8juyciJRvxN3Lp9433arb6K/EBlX9HqmMztpnRXpMsCdypJO1jknAlfoEeu9o9Bu0G2ZCSj098XLowP9ITHwAA7e5gLgbvK0JFErMZK95Xy37ZzVZ/IeYGZ10UlbUWC/bcM5EVgTuV4+l0UrZj6H6kqgVBOwkStAMAE7MveF/2G5rElBq8N1v94j7y+y6CJBwrN4AUCdypDFXtSTtwtbvqHBK1GR8OrQvaAYAqULxCoo5VwKKqPWmlnZKHqhO4UwnNVn8pfmkKYNNV/HBaelCPNkE7iRrZEVgAgDII3knUoYN3p+FrQW93siBwZ6JMEq+lV/ZPJI+DnpYF7STmevzxL2gHAJLQ7g4WYxjpxDApKYL39VjkcuN+rzvmBsXv8pfsbG18IjeAuhG4MzGxhcy6o2C1tPG1L860Pj831fYwhcRsxB/7Ki4AgCQJ3knY2r3Be2whs+4ERy1txFPyWsxQOwJ3JkILmfqbmgq3//TLMydOnpjKfSlIg6AdAKiVdnewEE+ZKoAhNUXwvrrxk7tn4ol4uUF9bcbQ/VruC0G9CNwZu9h37b9Y+Ty88Mz07caT0ydyXwcqay22jvEDDwCopdji8aLgnZT8/K3dm7+5tfuUTctC0VZopddpaOdJbQjcGatmq7/qh15+vvDk9M2vPjPtxxJV8qnjqgAAdRaD95U4X0nFMJV0dyeEVzd3bm69N3T/mJ/v9TqNy7kvAvUgcGcs4pCTdX0E8zV/aurW10/PPJn7OjBxgnYAIGvt7mAuBu8rgneqpAjbe7+4e+vOB8F9Y77Wep3Gcu6LQPoE7oxcDNuvGo7K44+FW82vzD45O5P9UjBe27H3Y9E6xkAeAIBPBu/LBlIyae/dHob/78bOzT98GFS2sxZbzLh3I1kCd0ZK2M69hO6MkaAdAOAA2t3BcuzzLnhn7Iqw/X/8cuf2cBjM/mLP9RDCotCdVAncGZlmq78Qw3bHFPkEoTsjthmD9lVBOwDAwQneGTdhOw8hdCdZAndGQtjOowjdGYHN2J/ddHsAgGNodweLMXg3g4uREbZzAEJ3kiRwp3TCdg5K6E5JBO0AACMgeGdUhO0cgtCd5AjcKVXs2X7NEUQOSujOMWzE/uzrFhEAYHTa3cFCHLB63jJzXMJ2jkDoTlIE7pTGgFSOSujOIW3EivarFg4AYHza3cGZWPEueOdI7nwwDH//c2E7R7LR6zQWLR0pELhTCmE7x3Xy8ambzRdmnrKQPMSVWNEuaAcAmKAYvBcV78taiXJQd3dC6P3i7q07H4QnLRpHtNbrNJYtHlUncKcUzVa/aOnwktXkOOZPTd36+ukZP76411qsaL9hZQAAqqPdHczF4H1F8M7DCNsp0Q96ncaKBaXKBO4cW7PVX3WkkLI894Xpd774+eknLCiCdgCANOwL3pfN8+J+frq5c2uwPRS2U5aXe53GqtWkqgTuHEuz1S9+UP3QKlKmF56Zvt14clpPvzxtF21jQgirgnYAgPS0u4Pl2Odd8M5HXu/vbr852HUCgrJ9t9dpaDdKJQncObJmq19Mqv+xFaRsU1Ph/T/98sznTp6Ysrb52Avaix7tJs8DACRO8E5hsD18/6ebO5+zGIxAcQ+50Os0FGpROQJ3jiQOSb2hTx+jMjsTtr/94uyp2RlLXHOCdgCAGmt3B4sxeD9nn/Py3u1h+B+/3Lk9HAanlxmV6yGExV6n4V6SShG4cyTNVv9aCOGs1WOU5k5O3Tz7/MxTFrmWNmN/dn33AAAyIHjPSzEk9R9eu3vzDx8G93OM2lqv01i2ylSJwJ1Da7b6RTXqX1k5xuH5xvSdZ+enH7fYtSFoBwDIWAzei3DsvOugvgxJZcwMUaVSBO4cSrPVL34c/Y1VY5yaX5kJ+rknbyMOQvUjCACAIng/EyveBe8107+1e/u1t3a1kWGc9HOnUgTuHJi+7UzKZz8Tbv6HF2af0s89SRuxot30eAAAPmVf8L7kXjN9dz4Yhr//+c77w2EwKJVxu97rNBasOlUgcOfAmq3+egjhJSvGJHzhyembX31mWv+/dAjaAQA4sHZ3UBR4rcQ/wXuieq/t3HzvztB9G5PySq/TuGj1mTSBOwfSbPWLaoO/tlpM0tnnZ4pBqvag2tZCCJcvXZi/lvtCAABweIL3dL052L3zen/X/C0m7Vu9TsP9KBMlcOeRtJKhKmZnwva3X5w9pbVMJa3FinY98wAAKEW7O1iO7WZOW9Fq00qGCtFahokTuPNIzVZ/1SAbqkJrmUopBtOsC9oBABglwXv1aSVDxWgtw0QJ3HmoZqu/GEL4G6tElTS/MhNOntBaZoKKoP1ybB2zle0qAAAwVu3uYCm2mjln5aujf2v39mtv7Z7IfR2olOKedaHXaSgMYyIE7jxUs9W/oYqAqvlfHp96+z+8MPO0jRk7QTsAABPX7g4WY8W74H3C7u6E8Hc/vXtndxj0bqdqrvQ6jSW7wiQI3HmgZqtf/ID5vhWiil54Zvp248lpVRTjsRmD9lVBOwAAVRGD92UtUCfn9f7u9puDXfPeqKrv9jqNq3aHcRO4c18GpVJ1BqiOxWbsz76awXsFACBR7e7gTKx4F7yPUTEo9Uc/28nm/ZKkzV6nccbWMW4Cd+7LoFRS8Oz89PbzjWkPhconaAcAIDn7gvclxWOjd/31nZtb7xmUSuW93Os03NsyVgJ3PqXZ6hc/Ut6wMlTd1FS4/Rdfnz2hyr00GzFod+QOAIBktbuDuThcdUXwPhpb7w2LwL2Ob436KWaRnel1GtqjMjbTlpr7uGhRSMFwGE78c3/3ps06tiJo/+6lC/OLwnYAAFJXzB26dGG+uK8tisleiYEbJfrlr3fftp4k4lR8+AZjo8KdT1DdToq+/eJMePyxKXt3eGtxEKqQHQCAWmt3B8uxuOy0nT4e1e0kSJU7Y6XCnXupbic5/6y64rCKoP25Sxfml4XtAADkoJhPdOnCfFFg9nKcWcQRqW4nQarcGSsV7nxMdTsp+843ZoNe7o+0Fnu036j46wQAgJFqdwdLMYA7Z6UPTnU7CVPlztiocGc/1e0k619+u6sv4/1tx76VexXtwnYAALJ36cL8ejHDqJhlFGcacQCq20lYUeW+bAMZBxXufKTZ6hdT3N+xGqRqairc/ouvz55Q5f6xImi/XPwVQ6Mq8poAAKCS2t3BYgzjztuh+7vzwTD86Geq20naZq/TOGMLGTWBOx9ptvpFdfv3rQYpe+GZ6duNJ6dPZL6JRT/KVUE7AAAcXrs7OBNPfwve7/HqjZ23b747fLpSLwoO7+Vep7Fq3RglgTsfabb6W/F4DSRrdiZsf+cbs7lex5uxP7sfDgAAcEz7gvcl98oh3N0J4b/+9O7t4TDkXuBE+jZ6ncaifWSUBO4UYXtxbO6HVoI6OPv8TJg7OZXTXgraAQBgRNrdwVwcrrqSc/D+L7/dfeeN3+w+UYGXAmX4Vq/TuGYlGRVDUwmGRlAnbw5238xkQ4vBTi9fujB/RtgOAACjUbRpvHRhvqh0LyreX4mzkrLz5mBXfkSdrNhNRkmFe+aarX7xo+GN3NeBevnON2ZDjYenbsSK9qsVeC0AAJCddnewHNvNnM7hvW+9NwzXXzcslVrZ7nUac7aUUfGEEk/1qJ1f/273nRq+rSJo/+6lC/OLwnYAAJic4oRpcdK0OHEaWzzWWkaniMnHqdheGUZC4M5S9itA7fz6d7t1Kr9YCyE8J2gHAIBq2Re8/2UskKmld94bPuXSo4bkYYyMljIZa7b6CyGEH+e+DtTTt1+cCY8/lvTw1LXYOuZGBV4LAADwCO3uYDG2mjlXl7W6+e4wvHpDOxlq64lep7FleymbCve8OT5Dbf12a5hiW5liANMPYkX7srAdAADSUZxILU6mFq0gYwFN8vq/006GWlPlzkgI3PPmg4XaSqytTBG0vxJCOHPpwvyKoB0AANIVg/eiwO251IN37WSoObkYI6GlTKa0kyEHCbSVKYL2y8XfpQvzjrEBAEANtbuDM7HVTBHunUrlHWonQya0laF0s5Y0W57iUXtFW5kvfn7qiQq+z834g3td0A4AAPUWT7Aut7uDuRDCSvyrfPAe28k8W4GXAqNU5GOrVpgyCdzzJXCn9n737vC9L34+VClw34yDUH2ZAwBAZmKxzcV2d3A5heD93feHJyvwMmDUFgXulE1LmQw1W/3iqXqKAyXh0M59sxLPFa/HtjG+xAEAgI+1u4PlePr1dJVW5b3bw9D7hXYyZGG712nM2WrKZGhqnlS3k42t9yb6UHEjhPDdSxfmF4TtAADAvYr7hEsX5ose7y/HE7GVcOv3Q0V65OJUnHMIpRG452kx9wUgH7/7/fDtCbzZvaB98dKF+asuNwAA4GH2Be9/Ge8nJqpoz2nDyIicjFIJ3PPkg4Rs3Hp3eHeM73VN0A4AABzVpQvz68X9RHFfMcng/fe3h0/ZRDIiJ6NUerhnRv92cjSGPu5rcRjqDRcYAABQlnZ3sBiHq740rkXVv50M6eNOqQTumWm2+kX/9r/OfR3Iy9nnZ8LcyalRvGdBOwAAMHLt7uBMHK56ftT/W/1bu7dfe2v3hF0lM8/1Og339pRCS5n8GARBdt59v9SBP9shhFdCCE9cujC/LGwHAABGrbjvKO4/ilAwFv6MzM3t4U0bSobkZZRm5H0WqBx9qcjO9r9+NPDniWO+7yJov1z8Xbowv+UqAgAAxi0W/Cy3u4OV2Gqm+DtV5st4787wMRtLhorAfd3GUwaBe348sSM7x/zBuBmD9lVBOwAAUAXx3uRiuzu4XHbw/sGH4WmbTIYUqFIaPdwzYmAqOTvC4NTN2J991YUDAABUWbs7KO73l2Kf99NHfakGppIxg1MpjcA9I81Wv3ha9ze5rwN5an5lJpw8caDBqYJ2AAAgWe3uYPmowfvNd4fh1RsCd7L1RK/TcLKdYzM0NS/ayZCtOx8+8p1vhBD+8tKF+TPCdgAAIFXF/UxxXxNCeDne5xzY1nvDTRtPxuRmlEIP97w4GkO2ih+OT/3R1P0qPDZiRftVVwcAAFAXsZBotd0dLMaK93OPemu/f3+oMJOcnbH7lEHgnhcDIMjW3Z3hvZ93V4phqIJ2AACgzuI9z2IM3ovhqi896O1+eDfsuhjImMCdUgjcgSy8+6/hbnyfa7Gi/YadBwAAchGD96vt7uBMrHg/f+9bv/Ph8PMuCDImcKcUAve8PPL4GNTVBzvDInB/TtAOAADkLN4TLbe7g4v3Bu/DYTjh4iBjAndKoTcXkIWdnfAlYTsAAMC/Ke6PLl2YXw4hPBFCeOXOB8PfWxoyZ/YhpVDhnolmq+8pHQAAAPAJly7MbxWV7v/7//mbfwgh/N9Wh4ydtfmUQYV7PgTuZM+DJwAAgPt7/w/D9ywNwPEJ3IGcCNwBAADuz/0S2Wu2+trKcGwCdwAAAAAE7hDCgjXguATu+fCBAQAAAAAwQgL3fDgSA/49AAAAAGCEBO5ATpz0AAAAAGBkBO4AAAAAAFACgTsAAAAAAJRA4A4AAAAAACUQuAMAAAAAQAkE7gAAAAAAUAKBO5CTLbsNAAAAwKgI3IGcXLPbAAAAAIyKwD0fV3NfAAAAAACAURK4AwAAAACEcMMacFwCdwAAAACcjCd7vU5D4M6xCdzzYVgk2et1Gn5AAgAAADAyAvdM9DoNwyIBAAAA4P62rQtlELgDufDFCQAA8ABOBENQrEopBO55uZ77ApA1X5wAAAAAjJTAPS/6uAMAAAAPolCPnDnlQSkE7nlR4UvOfHECAAA8nEI9gGMSuOfFFyc5c/0DAAA8nEIlcub6pxQC97z44CBnTngAAAA8nEIlcnbD7lMGgXtefHCQM4E7AADAw7lvIlu9TkNuRikE7hnxwUHGtnudhkoNAACAhxO4k6sNO09ZBO758QFCjvxoBAAAeIRYqLRpnciQIlVKI3DPj+CRHJlfAAAAcDByA3Lkuqc0Avf8+AAhR657AACAg3H/RI5c95RG4J4fHyDkyHUPAABwME4Ik51ep+G6pzQC98z0Oo0ieNzOfR3IyqaBwQAAAAemYIncmHdIqQTuefLUjpy43gEAAA4oDk69br3IiNyAUgnc8+SDhJy43gEAAA7HfRQ5cb1TKoF7nnyQkBPXOwAAwOG4jyIb+rdTNoF7hmIf983c14Es6N8OAABwSL1OY92akQn92ymdwD1fnt6RAz8SAQAAjuaKdSMDcgNKJ3DPlw8UcuDBEgAAwNG4nyIH8jFKJ3DPlONhZGDbdQ4AAHBk7qeoO21oGQmBe94cD6PO/DgEAAA4ohhEXrd+1JjcgJEQuOfNBwt15voGAAA4nlXrR425vhkJgXveikByO/dFoJa0kwEAADg+91XUVdFO5prdZRQE7hnrdRpbvjypKdc1AADAMcW2MhvWkRq6bFMZFYE7gknqyBcnAABAObTdoI7kYYyMwD1zse3GZu7rQK04FgYAAFAe7Wipmyvx9AaMhMCd4Gk1NaO6HQAAoCTa0VJDrmdGSuBOELhTI9uuZwAAgNIpbKIuilPxcgNGSuDO3hCUNStBDazH6gsAAABKEtt2Gp5KHQjbGTmBO3t84FAHF+0iAADASMgNqAOnNRg5gTsf6XUaVz2tJnEbhp4AAACMRmzDsWl5SdiaU/GMg8Cd/TzlI2Wq2wEAAEbLfRcpc/0yFgJ3PtbrNNY9rSZRG/GUBgAAAKNT5Abb1pcErTkVz7gI3LmXp32kyHULAAAwYrEdh9PxpEhuwNgI3PkEPdlIkOp2AACA8bmsyp3EqG5nrATu3M+yVSEhnlIDAACMSaxydx9GSlyvjNXUcDi04nxKs9UvKobPWRkqrqhuX7RJAAAA49Vs9YuK4dOWnYorqtsVljJWKtx5EE//SMGKXQIAAJgIuQFVt+06ZRIE7txX7Im9ZnWosOIp9TUbBAAAMH5xBtyGpafCLuvdziQI3HmYiwahUFHbqtsBAAAmzn0ZVbUZB/zC2AnceaD4FNCHE1V0MQ7qAQAAYELiqeMfWH8qaEVuwKQYmsojNVv94gv0rJWiIq73Oo0FmwEAADB5zVZ/LoRQFOydsh1UxJVep7FkM5gUFe4chCNiVInp4gAAABURq4jdp1EVWtAycQJ3HikOUHVEjCp4xaBUAACAaul1GutFVbFtoQIuGpTKpAncOaiLceAETErRSuai1QcAAKik5VhdDJOy0es0zCJk4gTuHIgjYlSA6w8AAKCi5AZM2Lbrj6oQuHNgsbXMK1aMCfieVjIAAADVFlvLrNkmJmBZKxmqQuDOocSWHtetGmPkSBgAAEA6VrSkZczW4sMeqASBO0expC8bY7IdrzcAAAASEFvLuI9jXK7HhzxQGQJ3Di0e0fHlyTgsxR9rAAAAJCK2BH3ZfjFi27GVjNyAShG4cyT6uTMG34vXGQAAAInpdRqr+rkzYivmvVFFU8Ph0MZwZM1Wv+iR9ZIVpGRF/zXTxQEAABLXbPWLQPSsfaRkP+h1GlrJUEkq3DmuZUNUKZn+awAAAPWxaA4cJbsibKfKBO4cS+yT5cuTshST7Bf1XwMAAKgHuQElux6LP6GyBO4cmy9PSrJtSCoAAED9xD7bQlKOa1uRHikQuFOK+OW5aDU5or0vTcNOAAAAaqjXaRQz4F62txyRsJ1kCNwpTQxLfXlyFMvCdgAAgHrrdRqrcgOOQJEeSRG4UypfnhzBy7HSAQAAgJqLucH37DMHJGwnOVPD4dCuUbpmq1/0ZvuhleURXo4/tgAAAMhIs9Uv7gXP23MeQthOklS4MxIq3TkAYTsAAECmep1GUaj3A/vPAwjbSZYKd0ZKpTsPIGwHAABAbsD9CNtJmgp3Rmpfpfu2lSZeB98VtgMAABCckOfThO0kT4U7Y9Fs9RdCCFdDCKeseLZ8aQIAAHBfKt0JIWyGEJbkBqROhTtjET8sF+OHJ/m5LmwHAADgQWKl+7eckM9WkRssyA2oA4E7YxM/NBfihyj52BC2AwAA8Cj7ivXkBhmZng7/V8wNtnJfC+pBSxkmotnqF0+uz1v92luLk+cBAADgQJqt/lwIYT2EcM6K1duz89PbzzemVy5dmDfrjdpQ4c5ExBDWUJT6Ko4AvixsBwAA4LCKSudep1FUuv/A4tXT1FS4/fXTM+8/35g+FU81QG0I3JmYff3Z9HWvl814FMzTaQAAAI6s12mshBD+Ul/3evnsZ8LNP/3yzIn5U1Ofi29M4E6taCnDxBVHxR77TPh/PvgwfMduJO9KCGFZ3zUAAADK0mz1z8QWM2ctatq+8OT0zS81pp+anfnU23ju0oX5G7mvD/Wgwp2JK8LZP//a7M3nG9N3pqbC+3YkSXstZJaE7QAAAJSp12nc6HUaCyGEVyxsmqanwp2ihcxXn7lv2F5YyH2NqA+BO1Wx8Oz89ON/9tWZz518fOqmXUnKRrF/WsgAAAAwSr1O42JsTXvdQqdj7uTUzT//+uzj+1rI3I+2MtSGljJMXLs7KI6GvbH/dbw52L3zxm92d4fD8LAPYyarqGq/2Os0LtsHAAAAxqVoTRtCKPq7f9+iV1dR1f7iF2d2HxG077l+6cK8KndqQYU7VfCpp5iq3SvvSqxqF7YDAAD/P3t39xvXmd8J/pCy3e3unqZ6YsZhkg7VOzdZ7AUV1MXuHRVg7625EAYIdiEZy80gQFBmE3MxwgYQPQusgQWGTXMwszMYYiwtBhhgfdHyX9DiH0BEvNrFALtRpZPUuKs7FvvN3balWhz5oZuSRbGeejvneZ7Pxzhwp+O2Tp1TdV6+z+/5PTBXdStT1e7t9to3Fz4coar9NP35yYYKdxq3tT+oQ9u3ztqPwfHwl//5bx59+tmjasnZalwvLIp6r/DjAAAAQEt0uv262r0O4OUGDfvKy9WP//DbF167+I2FcXbkj3c2luUNJE+FO23wwj5d9Wjof/uHLy19e3nx2KKqjanbx7x9uLdySdgOAABAm4TZ13W72nedmGYsLFQf/1cri7/67/7rl8YN2yt93MmFCncatbU/qPuufTTqPvzqk2H1//7d4w9//NPh687c3LwberU/LOTzAgAAkKhOt18H73UA/4ZzOHt1YeTvv7b46R/89uLSSxcm/uMOdjaWhe4k7yWnkIZFLYjx1VcWqv/m0oXXBe9zcScE7Q8K+KwAAABkILzDXu10+1dCm5l153U26j7t/+h3F1+vs5opca7Iggp3GrW1P9ieZFVxwftMCNoBAADIguB9+mYQtJ/2Rzsby/fb8UlhPCrcadpEU4WerXj/yc+G3xwOq1ed1Wh1j/bb9bQ7QTsAAAC5COuQXQmtZurg/bqTG6/u0f77ry1+ElrHzLLosc6JBO4kTYU7jdraH0z1C/jZo6r6u588/uiHg8eLnz2yOvkIeuGB464e7QAAAOQuBO83qqrarCq5wXm+8nL149XXF7++vLT46hR6tI/ig52N5atz+ZNgRgTuNGZrf1D3b//LWf35P/7psOr/5PEP//5nw287y19St425HUb6AQAAoDidbr8O3q9aYPVpdTX7t76x8OPv/M7it7/x6kzaxrzI8c7G8sV5/6EwTQJ3GrO1P6hHk7836z+/rnofHD/+uPfh41/8+tPqtYLP+EFoG6OaHQAAAIJQ9X41VL6vlXpcvvm1hR/+zj9ceG2O1exn+c7OxrJ2tyRLD3eaNFH/9lHVN4mVf7j4ar3Vvd5/9HD40d/95PGjQsL3D6qquhdCdjcrAAAAeEZ4X96tt9LC92dC9rZ0CLgSCgYhSSrcaczW/qC+oa029eefVL7/+Hj4449+BDXbLgAAIABJREFUPnwtk8VWeyFgv6eSHQAAAMYXwvcrIYC/kkPP95cuVB9982sLP1/5rcVvX/z6QtVwJftZ7uxsLN9o5Z7BCATuNGJrf1DftP6qTUf/5x8Pq7//2fCjn/x0+PNf/nr4jc8eVd9qwW6d53TAfk8VOwAAAMxGp9u/HIL3K6kE8CcB+2tLC6996xsLr371lbn3ZB9Hb2dj+VIKOwrPI3CnEVv7g3p0+PttPvp1+5mf/6qqHv582PvZL4eLv/p0+Monn1avN7U/iwvV//14WP3nqqruh4D9vgp2AAAAaEaogL8ctjqAv9TkTP5XXq4+/OrLC5988+sLr/zWP1h4vV7wtKUV7KP41s7GssyDJOnhTlPm0r99EvWo71dfqarXvrnw1M2yroSv29H85GfDD4fD6ld1GP/pZ9Xj+v/38SfDsW6s9QrgX3154Uf1f371K9Xiq19ZePzKS9U3v/m1hW/V+xBGoP9kZ2P5fqMHBQAAAHgizDKvt7unj0iohL94kn288nL1319YWPj9ava5QWNFgjNw5dnjCqkQuNOU1gfuZ6lHiGsXv7Ew0o3sJKA/cepGeNqr54yCHwvbAQAAoP0O91ZO3t/r2en1LP/67z84a8enlBvkRuBOshadOhqS/UrfJ+qA/uI3frON2S/t3kx2DgAAAJipnY3lF77TTyk3yE2yhZogcGfutvYHLprxVLcDAABAuo6cuyjFFGqSH4E7TRC4x1PhDgAAAOnyXh9JwSapErjTBBfMSOdNPwMAAABazXt9PPkRSRK404TLjnqUg4T2FQAAAPgygXs8gTtJErgzV1v7gzpsX3LUo+jfDgAAAAnb2Vh+WFVVzzmMsp7QvsIXBO7Mm9HJeEbBAQAAIH3e7yOFwk1IisCdeXOhjOeGDAAAAOnzfh9P4SbJEbgzby6UcXph2hkAAACQNi1j48mRSI7AnbnZ2h9cqqpq1RGPYvQbAAAAMrCzsVwH7sfOZRSBO8kRuDNP2snEM/oNAAAA+VBYF2cpFHBCMgTuzJNRyXhuxAAAAJAP7/nx5EkkReDOPLlAxjkO080AAACAPHjPjydPIikCd+ZpzdGO4iYMAAAAGdnZWFbhHk+LYpIicGcutvYHRiPjuQkDAABAfg6c0yhrW/uDiwntL4UTuDMvAvd4AncAAADIj/f9eHIlkiFwZ15cGCOZZgYAAABZ8r4fT65EMgTuzIt+W3GOUtpZAAAAYGTWbIsnVyIZAndmbmt/UF8UlxzpKEa7AQAAIEM7G8sPFdpFW09sfymYwJ15MO0nnsAdAAAA8uW9P9LW/kC+RBIE7syDaT/xTC8DAACAfAnc4wncSYLAnXlwQYzT29lYfpDSDgMAAABRFNrFky+RBIE7M7W1P7hUVdWqoxzFKDcAAABkLBTa9ZzjKDookASBO7PmYhjPKDcAAADkT8FdnKWt/YGcidYTuDNrpvvEc8MFAACA/Hn/jydnovUE7syaC2Gc452NZRXuAAAAkD/v//HkTLSewJ1ZW3OEo7jZAgAAQAFCwd2xcx1FSxlaT+DOzGztD4w6xjOdDAAAAMohB4izurU/uJTSDlMegTuzJHCP50YLAAAA5ZADxJM30WoCd2bJBTDSzsayGy0AAACUQ2vZePImWk3gzizpqxXnKKWdBQAAACaj8G4s8iZaTeDOTGztD+qL35KjG8VNFgAAAMpz4JxHWdvaH1xMaH8pjMCdWTG9J57AHQAAAMojD4gnd6K1BO7Miuk98fRtAwAAgPII3OMJ3GktgTuz4sIXp7ezsfwgpR0GAAAApkIBXjyFnrSWwJ2p29ofXKqqatWRjWI0GwAAAAq0s7H8sKqqI+c+ynpC+0phBO7MglHGeEazAQAAoFwK8SJt7Q90V6CVBO7MggtePDdWAAAAKJdCvHjyJ1pJ4M4sqHCPc7yzsezGCgAAAOVSiBdP4E4rCdyZBX204gjbAQAAoGA7G8sPqqrq+Q5EUfBJKwncmSr9s8ZiFBsAAACQD8RZ2tofCN1pHYE70yZwj+eGCgAAAJgBH08OResI3Jk2I4uRdjaWBe4AAACAfCCeHIrWEbgzbUYW4xyltLMAAADAbOxsLNcV7scObxQ5FK0jcGdqQt+sJUc0itFrAAAA4IScIM7q1v7gUko7TP4E7kyTaTzx3EgBAACAE/q4x1PlTqsI3JkmF7h4bqQAAADACYV58RSA0ioCd6ZJ4B6nt7Ox/CClHQYAAABmZ2djWeAeTx5FqwjcmYqt/cHFum+WoxnFTRQAAAB41oEjEmUt5FLQCgJ3psVoYjztZAAAAIBnKdCLJ5eiNQTuTIsLWzw3UAAAAOBZCvTi6eNOawjcmRYXtkg7G8tuoAAAAMCzFOjFUwhKawjcmZZ1RzKKfmwAAADAl+xsLD+squrIkYkil6I1BO5MbGt/YBQxntFqAAAA4Cxyg0jyKdpC4M40uKDFc+MEAAAAzqINbTz5FK0gcGca9G+P58YJAAAAnEWhXjz5FK0gcGcajCDGOQr92AAAAAC+ZGdj+UFVVT1HJop8ilYQuDORrf1BPXq45ChGMUoNAAAAnEd+EGcp5FTQKIE7k3Ihi6edDAAAAHAe+UE8Ve40TuDOpFzI4hmhBgAAAM4jP4inMJTGCdyZlMA9Ti/0YQMAAAA4087Gcl3hfuwIRZFT0TiBO2Pb2h9crKpq1RGMYjoYAAAAMCpV7nFWt/YHl1LaYfIjcGcSRg3juVECAAAAo1K4F09eRaME7kzCBSyewB0AAAAYlRwhnj7uNErgziRcwCKF/msAAAAA59rZWBa4x1MgSqME7kxi3dGLcpDQvgIAAADtIE+IsxbWHYRGCNwZy9b+wGhhPKPSAAAAQCyz5ePJrWiMwJ1xuXDFE7gDAAAAseQJ8bRBpjECd8blwhXPiDQAAAAQS+AeT6EojRG4My4XrjhHOxvLD1PaYQAAAKB5IU84ciqiWHeQxgjciba1P6ir25ccuShGowEAAIBxmTUfyfqDNEXgzji0k4nnxggAAACMSyFfPPkVjRC4Mw4jhPHcGAEAAIBxyRXiya9ohMCdcbhgxentbCw/SGmHAQAAgPYIuULPKYkiv6IRAneibO0PLlZVteqoRdFOBgAAAJiUfCHOUliHEOZK4E4so4PxTPsCAAAAJiVfiCdwZ+4E7sQSuMdzQwQAAAAmJV+IJ8di7gTuxDIyGGlnY9mULwAAAGAiIV84dhSjCNyZO4E7sdYdsSgHCe0rAAAA0G6K+uKsbu0PLqW0w6RP4M7ItvYHRgXjme4FAAAATIucIZ5uDcyVwJ0YLlDx3AgBAACAaZEzxFNAylwJ3InhAhXPVC8AAABgKnY2lgXu8eRZzJXAnRguUHGOdjaWH6a0wwAAAEDrWS8uztrW/uBiSjtM2gTujCQsMLHkaEUx6gwAAABMm9n08bRJZm4E7oxKdXs8N0AAAABg2hT4xZNrMTcCd0blwhTPDRAAAACYNnlDPLkWcyNwZ1Sm3sTp7WwsP0hphwEAAID2C+vFHTlVUdYT2lcSJ3DnXGFhiTVHKop2MgAAAMCsyB0ibe0PVLkzFwJ3RuGCFM/0LgAAAGBW5A7xdG9gLgTujMIFKZ4bHwAAADArcod4CkqZC4E7o3BBirSzsWxqFwAAADATYd24nqMbRb7FXAjcGYWFJeIcpLSzAAAAQJIU+8VZ2tof6OLAzAnceSELSozFtC4AAABg1uQP8QTuzJzAnfO4EMUzwgwAAADMmsA9nsJSZk7gznlciOK54QEAAAAzFdaPO3aUo8i5mDmBO+dxIYpztLOx/DClHQYAAACSZZZ9nNWt/cGllHaY9AjcOVO4AC05QlHc6AAAAIB5Mcs+nvbJzJTAnRdR3R7PjQ4AAACYFzlEPHkXMyVw50VcgOK50QEAAABzsbOxLIeIJ+9ipgTuvIgpNnGOdzaWH6S0wwAAAEDyjpzCKGsJ7SsJErjzXFv7g4suQNGMKgMAAADzJo+ItLU/UOXOzAjcOYsLTzw3OAAAAGDe5BHx5F7MjMCds2gnE+9+ajsMAAAAJE/gHk/gzswI3DmLC08kC5UAAAAA87azsfywqqqeAx9lPaF9JTECd87iwhPnIKWdBQAAALKiCDDS1v5AdwdmQuDOl1g4YixubAAAAEBT5BLx5F/MhMCd5zHCF0//dgAAAKApAvd4AndmQuDO87jgxHNjAwAAABqxs7H8oKqqY0c/ivyLmRC48zwuOHGOwgIlAAAAAE1RDBhnaWt/cCmlHSYNAneeEi40S45KFO1kAAAAgKYJ3OMpOmXqBO48y4UmnhsaAAAA0DT5RDw5GFMncOdZLjTx3NAAAACARu1sLJuBH08OxtQJ3HnWZUckynFYmAQAAACgaQfOQJTVrf3BxYT2lwQI3PlCuMCsOSJRVLcDAAAAbSGniKfKnakSuHOaC0w8NzIAAACgLeQU8eRhTJXAndO0k4mnPxoAAADQCjsbywL3eAJ3pkrgzmkuMJHcyAAAAICWOXJComivzFQJ3Dlt3dGIYiESAAAAoG0UB0ba2h8oQmVqBO484cIyFjcwAAAAoG3kFfHkYkyNwJ0T+rfH078dAAAAaBuBezyBO1MjcOeEC0s8NzAAAACgVXY2lh9WVdVzVqJos8zUCNw5ocI9zlG4gQEAAAC0jSLBSFv7A9kYUyFwp76gXKqqatWRiKKdDAAAANBWAvd4uj8wFQJ3KheUsbhxAQAAAG0lt4gnH2MqBO5U2smMxY0LAAAAaKWdjeUHVVUdOztRBO5MhcCdygUl2nG4cQEAAAC0lWLBOEuh7TJMROBeuK39wcWqqtZKPw6R3LAAAACAtpNfxFOUysQE7mgnE88NCwAAAGi7+85QNIE7ExO440ISzw0LAAAAaLWdjWUFg/EUpjIxgTsC90huWAAAAEAiDpyoKGuh/TKMTeDOevFHII4bFQAAAJAKRYPxFKcyEYF7wbb2B6bJxHOjAgAAAFIhx4gncGciAveyuYDE078dAAAASIUcI54CVSYicC+bwD2ekWEAAAAgCTsbyw+rqjpytqJov8xEBO5lM2IXpxduVAAAAACpUDwYaWt/oEiVsQncC7W1P7hUVdVq6cchkhsUAAAAkBp5RjyBO2MTuJfLhSOeGxQAAACQGn3c48nNGJvAvVzaycRzgwIAAACSsrOx/KBuk+usRZGbMTaBe7mM1MU53tlYFrgDAAAAKTJrP87S1v5A6M5YBO4F2tofXKyqaq304xDJjQkAAABIlVwjnmJVxiJwL5MRuniq2wEAAIBUyTXiCdwZi8C9TC4Y8YwEAwAAAEkKbXKPnb0oClYZi8C9TAL3SDsbywJ3AAAAIGWyjTirW/uDSyntMO0gcC/TeukHINJBUnsLAAAA8GUC93iKVokmcC+MFZbHos8ZAAAAkDr5RjyBO9EE7uVxoYhnBBgAAABImna5Y1G4SjSBe3kE7vHckAAAAIAcaJsbZ21rf3AxpR2meQL38hiZi9Pb2Vh+mNIOAwAAAJxBUWE8xatEEbgXJKysvFr6cYjkRgQAAADkQs4RT+BOFIF7WVwg4rkRAQAAALmwcGo83SKIInAviwtEPDciAAAAIAuhbe6RsxllPaF9pQUE7mVR4R7neGdjWeAOAAAA5MRs/khb+wOZGiMTuBcirKi8VvpxiOQGBAAAAORG3hFP4M7IBO7l0E4mnup2AAAAIDfyjngCd0YmcC+HC0M8I74AAABAVnY2lh9UVdVzVqMoZGVkAvdyCNwj7WwsC9wBAACAHMk84ixt7Q+E7oxE4F4OKyrHOUhpZwEAAAAiaCsTTzErIxG4F8AI3FjceAAAAIBcqXCPJ19jJAL3MhiBi+fGAwAAAGRpZ2O5LjQ8dnajyNcYicC9DC4I8QTuAAAAQM5kH3FWt/YHl1LaYZohcC+DKS9xejsbyw9T2mEAAACASNrpxlPUyrkE7pkLI2+rpR+HSEZ4AQAAgNzJP+IpauVcAvf8uRDEc8MBAAAAsrazsSz/iKfCnXMJ3PPnQhDPlCoAAACgBAfOcpS1rf3BxYT2lwYI3PMncI9zHFbqBgAAAMidKvd4sjZeSOCev7XSD0AkNxoAAACgFIoO42nfzAsJ3DO2tT8w4hbPjQYAAAAohcLDePI2XkjgnjcXgHhuNAAAAEARdjaWH1ZVdeRsR1lPaF9pgMA9bwL3SFboBgAAAAojC4mkqwQvInDPm55ScazMDQAAAJRGe914AnfOJHDP1Nb+oA7bl0o/DpHcYAAAAIDSqHCPp8iVMwnc82WkLZ4bDAAAAFCUnY3lB1VV9Zz1KHI3ziRwz5eRtngCdwAAAKBEMpE4S6G7BHyJwD1fRtri9MLK3AAAAACl0WY3nuyN5xK4Z2hrf3CpqqrV0o9DJCO5AAAAQKnkIvFUuPNcAvc8+cHHM5ILAAAAFGlnY7nORY6d/Sgq3HkugXue/ODjGckFAAAASiYbibMaukzAUwTueRK4xzkOI7kAAAAApZKNxJPB8SUC9zytlX4AIrmhAAAAAKVT4R5PW2e+ROCema39gZG1eG4oAAAAQNF2NpblI/HkcHzJSw5JdvzQ47mhcK5Ot5/q9+T+4d7KZgv2o3Gdbr+uPNgt9OM/PNxbudqC/ZhIp9u/UVXVjYQ/Aum4fbi3cjvF81X4tS7G6fv6g7BVh3srnguhhTrdfv08O86zzIPDvRXPDhDnoKqqdcdsZGtb+4OLOxvLDxPZX+ZA4J4fgXskI7iMyANHwjrd/sU6QCu05dZxRveGS36LzEnKzwYX/U5G8txj1On2T/7jUT1YGb4LD0MLwnoQ28s0zFl4jtuuqmppjD95vdPt7x7urWgjCqO751kiWv2+dTexfWaGBO750TsqzlFKOwvECy9p90oO271kAkQ7uWc8FTh0uv3jEL7fOxXCP3B4YaY2xwzbT2yaIQdRvDvEuyxw5zSBe0a29geXJ3wQKZHqdshY4WF7JWwHmLqlEMJ/EcR3uv3eqRD+nusuTE+n278UAvNJXO90+9sGx2BkcpJ4uk3wFIF7XvzA47mRQKaE7dWbQh+AuVgN2xvVb6rg74Z70F1taGAi47aSeda2KncYTd2LfGt/cFTwe9Q4tODhKYsOR1a0k4knjIJ8ldqzvQphe5ILPgJkoA4Hr1dV9V5VVR91uv379YKPYUFbYEShuv36lI7X9fDvA0YjK4m0tT9QBMsXBO558eOO09vZWDatEDLU6fZvn1QaFkjYDtAu9eDv96qq+stOt/+gXsBR8Acj2Z7yYZr2vw9yphtAPAPrfEHgnomt/cGlMJWV0bmBQIZC2D6taqjU3BG2A7Ra/bz+VlVVf3Wq8v2iUwZPm3J1+wlV7jA6eUk8RbB8QeCeDyNp8UyRgswI21f0JgVIx0nle9125m6n27/q3MEXZlVAoModRhC6AfQcqygCd74gcM+HH3Y8I7aQkU63vy1sByBRdRu074eWM6reKVqn278ywwUIVbnD6BQpxlna2h8ohuUJgXs+BO5xjnc2lt08IBOdbr8Om28Vej4PhO0A2VgNVe96vVOyWVehq3KH0ShSjCdw5wmBez7WSj8AkYTtkIkQtr9X6Pk8qqpKCwKA/Cyd6vV+W/BOKWZc3X5ClTuMRuAeTzEsTwjcM7C1P/CDjufGARkQtldXDvdWHrZgXwCYneuCdwqyO6ePqsodzhG6Ahw7TlHkczwhcM+DH3Q8gTskLiwuJ2wHoBSCd7IWCinmNXNblTuMRneAOKtb+wPXFgTumRC4R9rZWBa4Q8I63X7dG+92oeewrjK5IWwHKNZJ8L5rcVUyM++qc2vgwPlkJ/H0cUfgngk/5jhHKe0s8LQQtt8L/W1Lcxwq21WaAPBWWFxVawySF6rbV+f8OTYNWsG5BO7xFMUicE/d1v7gcqGh0yTcMCBRwnZhOwBPqe+Htzrd/oOw2CQkJ4TeTQwc1b+fTd8YOJvuAGNxP0bgngE/5HhuGJCgwsP22lVhOwBnqCuDf9Dp9u/qS02CNhuobj+hyh3Od+AYRVnb2h+4rhRO4J4+7WTiCawgMeFF6HbBYfubh3srBgsBOM8b9bNup9tXtUsSwjNek99XVe5wPhlKPFld4QTu6VPhHqe3s7H8IKUdhtKFF7E6bF4r9FDUYXupC8QCEK8OEL/X6fbvqXYnAZstKKhQ5Q4vpvAnnqyucAL3hG3tDy41OPUuVW4UkBBhu7AdgLGtq3anzVpQ3X5ClTu8mBwlnsC9cAL3tJmiEs9UKEiEsL26I2wHYEKq3Wmz7Ra1C1TlDmfY2Vh+WFXVkeMTZT2hfWUGBO5pM2IWz8gspON24WH7jRbsBwB5OKl2v+p80gZhAOitFp0MVe7wYooXI23tD2R2BRO4p02Fe5zjnY1lNwlIQKfbvx0WfiuRsB2AWagDxe93uv1dR5cW2G7hSVDlDmdTvBhPZlcwgXvaTFGJI2yHBISw/Xqh5+pI2A7AjL3V6fbvazFDU8J3r43Peqrc4WwC93gq3AsmcE+UqSljcYOAlis9bPdQBsCcrIUWM+47NKHNsyxUucNz7GwsP6iqqufYRHGPLZjAPV1+uPEE7tBinW5/u/Sw/XBv5WEL9gWAMtTVvD/odPsqepmbMMjT5raB9e/CWgfwfLoGxFna2h9oK1MogXu6/Ggj7WwsC9yhpTrdft1G5Vah56cnbAegQd8LM8xgHtrYu/1ZKewjNEGmEk92VyiBe7pUuMc5SmlnoSQhbH+v0JN+XFdRCdsBaNj1Trd/TysNZilUt6ewDtlqeD4FniZwjye7K5TAPUFhSspS6cchkhsDtJCw/Ullu6mZALRBHYQK3ZmllCrHVbnDM3Y2lu+HdxhGJ3AvlMA9TaakxBO4Q8t0uv2rwnZhOwCtUi+m+qDT7XvfYKrCc18K1e0nVLnD83l/ibO6tT+4lNIOMx0C9zQZIYvnpgAtEl7kS+4Xe0PYDkBLLYVKd6E707Sb4NFU5Q5fppgxnvtpgQTuaRK4x+ntbCw/SGmHIWfhBf5ewa2x3jzcW7nbgv0AgLMI3ZmaUCm+muARVeUOXyZwjyfDK5DAPTFb+4OLiT6sNMkNAVpC2P4kbC+5sh+AdAjdmZaUK8VVucMpOxvL8pV4AvcCCdzT44caT9sGaAFhe/VdYTsAiRG6M5FOt7+ZeMGYKnf4siPHJMpaQvvKlAjc0yNwj2cEFhrW6fYvhp7tpYbtdw73VlLsXQoAQnfGEp7/cqgQV+UOT5OxRNraH8jyCiNwT48H3Ug7G8sq3KFB4WXrXsEj+3XYrjIKgJQJ3RnHZibFFqrc4WkC93gC98II3NOzXvoBiHSQ1N5CZoTtwnYAsiF0Z2ThGXAzoyOmyh1+Q+AeT+BeGIF7QkxBGYsbATRE2P6kt2FOL5oAcBK6Xyr+SHCeXKrbT9RV7lfbsSvQrJ2N5YdVVfWchiiKZwsjcE+LwD2ewB2ac7vwsP3K4d7KwxbsCwBMUx2i3g0D6/AlYUDmVoZHRiEF/IasJdLW/sAMsYII3NPixxlP/3ZoQKfbr8P2Nwo99sJ2AHK3JmzhBXJtv7Le6fYVwcHn3APiuX4UROCeFj/OOEdhqhMwRyFsv17oMT8WtgNQiLVwz4cvhOr2nJ8D9XKHzwnc48n0CiJwT0SYepJTD7x5cAOAORO2C9sBKMr1TrcvgOS03L8Pqtzh8z7uD8L7D6Nz7SiIwD0d2snE004G5ii8cJcetrvuAFCaWxaTpPr8WfByIc+CBpngc4oc4yxt7Q8sOl4IgXs6jITFc/GHOel0+zcyXRxrFMJ2AEp3O4StlG23kE+vyh0+J3OJ59pRiJdKPwAJ8aOM0wtTnIAZC2H7ewUf501h+3wc7q1sqyqDrL0dfudT0+n2Lz5npujJc3X939f//3Vfq4kthdBda7VChQC6pN/Stnd0ELiPob5uWP+kAAL3BGztD+oXgdXSj0Mk4RfMgbC9evNwb8UDE0BLhfD32UDgSwHBqWD+Svj7Zc/f0dZChfONxPab6ShtQHw9DDAJHCnWzsby/a39gS9AHAN1hRC4p8EPMp4HH5ixUMkkbAcgeaeC+S+eITvd/qXwHF5vV0MVNy9WL6J6z/2xLAVWt59Q5Q5VdWCmWJTVuqh2Z2PZbLDM6eGeBjfxeAJ3mKHQp/Vuwcf4bWECQN4O91Ye1Nf6w72VG4d7K3UF/B9VVfVu3brQqX+h3TBYQTlKfSbSyx1kL+Nw3SiAwD0NFiCKVE9tSmqHISEhbL9XcKXfnWn3GAag/er1Og73Vup1Oy6F8P1OWDibpy0VPihflNBesOT2S54JKZ3APZ7AvQAC9zSYnhPnIKWdhZQI25+E7XrTAhQuhO8nle9vVlV1VPoxecZap9sXRJah9PO8Hp6PoUg7G8sC93gC9wII3Ftua3/ghxjPBR9mIEwPF7YDwCmh7UwduP1xqHrnc7cEkXlT3f6FzZbsBzTFoHOctZR2lvEI3NtP4B5P4A5T1un2L4bp4aWG7UdepgB4kcO9lXthYPY7gvcvWO8kU+HZcLf04xBct24BhZPBRFJcmz+Be/upComnfztMUXihulfwSHwdtl853FuxkjwA5wqLrZ4E76W3OqxbyxiwztNmwYUYz1N6ax3KJnCPJ3DPnMC9/fwI4xztbCwLxWBKhO3CdgDGE4L3K6HVTMnT7bdV/+YlPB8aSHmaKndKJnCPJ+vLnMC9xbb2B5dVDURzoYcpEbZXx1VVXRW2AzCJ0Gqmfq7/bri3lGZJ65HsqG5/PlXuFCkUPfac/SjrCe0rYxC4t5t2MvG0k4Hp2S08bK8r2x+0YF8AyMDh3kp9X60rYD8o8Hy+0en2VfNlQHX7C6lyp2SKHyOFIlsyJXBvNw+l8VzkYQo63X69yNn1Qo/lSdhuAA+AqapnTR3urVytquofF1jtbgHVPOyqbn8hVe6UShYTT+aXMYF7u/nxxentbCyrRoUJFR62V8J2AGbtcG9wvfjKAAAgAElEQVTlbpjNWtKiqqudbv9GC/aDMYXq7ZKfEUehyp1SCdzjyfwyJnBvqa39QT1Vb7X04xBJQAYTErZXbwrbAZiHU4uqvl3QAd8NLUlIk+rt0ThOFCcUP5a4TskkBO4ZE7i3lx9ePCOqMIFOt78pbF8x3R2AuTrcW9kuqMXMkv7faVLdHkWVO6WSycRZ2tofuFZkSuDeXgL3eC7uMKYwxft7BR8/YTsAjQktZurn/14BZ2FTlXuSPCfFUeVOiWQy8WR/mRK4t5fViiPtbCxrAwFjCGH7ewUfu3eF7QA0LbQ0q98BjjI/GarcE9Pp9utAaL304xBJlTslksnEE7hnSuDeXh5o4pS04BRMjbC9unO4t+KlH4BWONxbeRhevj/I/Iyock+Lau3xWCSYouxsLKtwjydwz5TAvYW29gd+cPFc2CFSqFYqPWz3IgRAq9Sh++HeytX6PpXxmVHlngjV7RMxsESJFEPGWd3aH7hOZEjg3k7aycQTuEOETrdfX2fuFnzMPhC2A9Bm4T6Vc+gucE/DbukHYAIGliiRbCaeotsMCdzbyY8tnl5hMKIQtt8LLwElOjLFF4AUZB66L4XWdrRUOD9rzs9EVLlTGoF7PBlghgTu7eTHFudoZ2P5YUo7DE0Rtj8J26+EHrkA0HohdM+1p7ve4O3m/ExOlTulUQwZT5eLDAncW2Zrf3Cp4CBsXEZQYQSdbv+SsF3YDkCSboT7WG5WQ49wWiZUt686L1Ohyp1ihGLIHO9Xs2SdjAwJ3NvHA2c8I6hwjvCQf7fgsP24qqqrwnYAUhTuX/V7Qi/DE6j6t51Ut0+PKndKoygy0tb+QBaYGYF7+/iRxXMxhxcIYfu9gntwHofK9gct2BcAGEsI3a+G+1pO3giz8GiJTre/rbp96lS5UxIZTTxZYGYE7u2jd1Oc3s7GshANziZs/zxsNxMGgOSF+1mOC42q/m2JEAo7H9Onyp2SePeKJ3DPjMC9Rbb2BxetAh/NhRxebK3w68pVYTsAOTncW6lbxL2d2ce6ofq3NTatKTYzqtwpQiiKzLEF2iwpvs2MwL1djGjFM1UJOMubh3srrhEAZOdwb6Vu+XGQ0edaCu1yaJDq9plT5U5JvIfFWdraHwjdMyJwb5HhsLo8HD75u230zUUceJ46bL/tyACQsRuZ9XPPsVVOarZVt8+cKneKUGc1cq3oTRFuRgTuLTIcDq8Mh8PKNvr2vf95WasI4FnCdgCyFxYDz6ladt3iqc0Jx/6tUj//HJnNQRGGw+F92Vb0JnDPiMC9TYbVejV88nfbaFtO02iB6bgjbAegFOGe90FGH1eVe3O2S/3gDXCsyd7un/72/WpYHcu2ojYtZTIicG+Jt/7tj66YPhO9aScDnFaH7V7UASjNZkatZdzHGxCq268X98Gbs9rp9n3XyZ62MtHb6lv/9kdmemVC4N4S+rePtWknA5wQtgNQpNBaZjeTz14HkSr85i+X709KVLmTPYH7WJu2MpkQuLfEsBpeGVb+ivxLhTtQOxC2A1Cyw72VOrzrZXII3NPnqNPt1+HOG8V84PZQ5U72htXwvpQr+i+BeyYE7m1Rj2LpVxWzHf2rP3v9YelfG6A6svAUADyRS3jnvj5fKq2b49iTtX/1Z6/fk11Fb2Z5ZULg3gJ//q8/vDQcVkumzkRt2skAddh+5XBvxeAbAMU73FupZ38eZHAcVkNPcWYsVLevO86NUeVO9obD6kB+FbWt/fm//vCiX0b6BO4tUPdoclGJ3rSTgbIJ2wHgy3KpmFXlPh8qrJvnHJA1fdzH2rSVyYDAvQ2GwyulX03G2ATuUK7jetq8sB0AnpZRlbuwYcY63f5V1e2toMqdvNXZjfwqdnMPzMBLpR+ANhjq0RTr+N90f+dBWrsMTMlxqGzXVgoAnq+umP1B4sfGIp6zt5v7B0xI/Zu9XfpBIE/aAY9FRpgBFe4N+7O9/3JxWFVr1oWI2lS3Q5mE7QBwjlyq3EN/cWZzbOuK6lXHtjVUuZOtf9P9nYfDqjqSY0VtZh9lQIV70/RmGofAHcp0VdhetvAy6oW0YId7K56bYDS3M2gXcsVz/8zoG94+qtzJ1+dr8K05w6P7s3f/y5X/463fcQ9MmMC9YdrJjEXgBuX5bqjYo2yX9JsFON/h3srtTrdftwxZSvhwGWCbgU63v6m6vZXqKve6uORu6QeC/Aw/D9zfcmqjGHROnMC9YUOLIUT7d98VukGBLjnpABDlduIBhwHWKet0+xdVt7daPRgicCc7w+FQ0WQ8WWHi9HBv2rBaL705VeSWfD9KYCxvdbp9M4IAYHTJL4rp3j91m4nPesjdurULyNG/++7Kg2pY9eRZUZv7X+IE7g3603/ZvzIcPpleYxt9U90O5Uo+OACAeTncW3lQVdVR4gdc4DAlobp9M4sPkzczEMhSneXIvaK2pT/9lwadUyZwb9Cwqi4btIveTEWCcq2HRTMBgNGkvgijsGF6VLenQZU7WaqzHHlW9OZakDCBe5Pq/u2G7WI3Fe5Qtt1QoQUAnC/1ftAC9ynodPv1Wji3kv8g5VDlTn7qLEeeFbsJ3BMmcG/QcFhpKRO3Hf37f/a7D4v9wgBVqMzSWgYARpBBWxkLp06HADctqtzJzr//Z797fzisjuVaUZtB54QJ3BvyP/3vf3ep7snkAhK1aScD1K57CQGAkSU9QzRUZzPZ8bvu+CXHIAnZ0cc9eluts0O/hDQJ3Buiun2sTTsZ4IQqdwAYTeptZYQNkxHcpkmVO9mpiyjlWtGb60CiBO5N0b99nE3gDpxY63T7m44GALzY4d5K6s/QptSPqdPtX1bdnjSDJeRFH/dxNvfARAncGzKsqstWXI7ajv/DP/+9B0V+WYCzbJtmDgAjOUj4MFksfXxmBKZNlTtZ+Q///PfuybaiN9eARAncG3Djnb+9OBxWawbqojbV7cCzLKAKAKNJ+Vla2DCGENRadDZ9qtzJynBYHci3ora1OkP0K0iPwL0JdQ8mw3Sxm8AdeJ43VP4AwLnuO0TFEdTmYT20BoI81NmOfCt2876boJdKPwBNGOrBNA4vCcBZbltQDQBeKOVnaVXakQqvbj8OsyBzUq9bdCOzz0ShhsOhbCfe5QwWQC+OCvcG1KsMmxYTt935X35fhTtwltVOt6+KCwDOcLi3Yi2kstz22bNy3bpF5KJuF1x6vjXGpsI9QQL3JgyrdVNioraUF3kC5uOWFxEAeKFkn6k73b7+tSPqdPt1JfRqEjs7fR9UVfUwtw8VKC4hC//nX/z+w2pYHcm5ojYzvRIkcJ+z//F//ZsrrhXRm+p2YBQlV3MBwHlSDiK15BxdycHsZsZtBlW5k40645FzxW11lugXkBaB+5wNh9Vl02GiNz2+gFHUi0pddaQA4Lk8U2eu8Or2d0PrpJxDaVXuZKHOeORc0ZvAPTEC93kbDq+UfpUYY1PhDoxq17RzAKA04flnt9ATf3wqjM55NoQqd/JQZzxyrtjNTK/ECNznTIV79Hb0H299O9c+fMD0rar+AYDnSrmIRch4vrqdylLbd3JGdg/3Vk7eGXM/Bp5zSd5/vPXtB8Nh1ZN3RW0q3BMjcJ+jP7n1w0vDYbXqQhG1mfoKxHqr0+2rAACAfAjcXyBUt2+2dgdnq3e4t/IkhO50+yUEUqrcycJwWN2Td0VtS39y64fecRMicJ+nekSq9JUe4jftZIBxlDqlGgAoT8nV7acrvktpK6jKnfTVxZXyrthNlXtCBO5zNKyGl4eVvyL/ErgD41gPC4cBAGSr8Or2g8O9ldun/u9Sqj9VuZO8OuuRjkX/pcI9IQL3Oap7LpkGE7Ud/6d/8QcPivmCANNmAVUA+A2tGvO0q7r9CyWFUarcSdp/+hd/cL/OfOReUZsK94QI3Ofkn/zFX18cDqs1F4ioTXU7MIklrWUA4HOnFpUkE6HK+Xqh57Oubn/2fbGkQgtV7iRPH/fobfWf/MVf+90nQuA+L8Pqsn5T0ZvAHZjU9UIW0AIAylNylfPzWgeuN7AfTdI+kbTp4z7O5t02EQL3ORkOh1eGw2Fli9pMewWmQZU7AMXTZi0vhVe33zncW3mq9Wih3+9Nv2tSNhwO78nIojd93BMhcJ8T/dvjt//rf1tV4Q5Mw1qn2y91MTEAOOElPS+3S/qwpxyfsUhsid/vpYIXzCUDdeZTeu41xqbCPREC9/kpbXrbpA7S3n2gZbb1uQQAchDa5ZX6frl7xnoEpT7nqXIndbKfOGvXbvb85hMgcJ+Dazd7qkniqW4HpskCqgBALkrt3d57wfNcqYG7KndSJ/uJp8o9AQL3+fBjiKd/OzBtb1hAFYCCpVwR92CEf6YIhVe3b59R3V4V3jJJlTspk/3EU9SbAIH7fAh44hnlBGah1H6nAJDyC7rA/TdKnbF3dLi38qLnuJIDZ1XupEz2E0/GmACB+3wYfYrTe/+d1bMqFwAmsdrp9kudhg0AJKzT7d+o+/cWeg7PC5RLXzNNlTtJCtnPkbMXpfTrXRIE7jN27Wav7iW3mvWHnD4jnMAs3bKAKgAFUgSUvlKLBg4O91bOfEcUND+hyp2UaSsT6drNnir3lhO4z54fQTyBO7TPcWbnRGsZAEqTcihZfBgTqttLLeQ6L0g2mPQ5Ve6kSgYUT9bYcgL32XPzj1f8AzW0zJ2qqq5mdlLWO91+bp8JAF4k2SnoL1gosySlVrffOdxbOe/90MzFz6lyJ1UC93iyxpYTuM+eUac4x++/sypwh/aoX3JuhGm8dzI7L7uqgAAogVZqaQvrz5RY3X484kCD7/dvqHInOe+/s1ovjN1z5qLIGltO4D5D1272Lha8qM24jGxCezwJ20/tzXZmrWVWC64WA6AsKVfCHbRgHxoTwtNSq5Z3D/dWHozwz6n0/I26yv3GqP8wtIjCyzhL1272XPtaTOA+W7788VxkoR2eDdur8MKzm9n5eavT7btWA5A797p0bYYQtTTHEc+dKrqfpq0MKVJ8Gc+9vcUE7rNlikc8F1lo3pfC9hOHeyvbGU73y20QAQCelfJ7SbEFOYVXt29G9O5Pdn2CGVkNi+xCSmRB8WSOLSZwny1f/kjvv7PqIgvNOjNsPyW3F791LyUAZC7lQLLkBVO3C61u7x3urdwe5R+0PsGZtE0kKWEtv5zal86DzLHFBO6zZaQ9TtH9GaEFRgnb6yr3uxn+Xi2gCkCWOt1+6i/kRRbkhCD5rRbsShNiijsE7s+nyp0UaTEcZ/XazZ5rYEsJ3GfE4gVjcXGF5owUtp+S2wP8ktYyAGTqauIfq9QK91IrlA9CcceovHefTZU7qdHxIJ5rYEsJ3GfH1I54Lq7QjNiw/WQB1XczO1/XM6gCBIBnJX1vO9xbKa4oJ1S3X2/BrjQhNiQ2Q/FsqtxJjUwonvfXlnqp9AMwQ7708VxcYf6iw/ZTtkOle069RXdVCbTabfcKgNGF4HYt4UN21IJ9aEKps+7q59LY+7z37hfbDs9P0Hr1mn7XbvacqDiugS0lcJ8dgU2c3vvvrJa8IBI0YZKwva44e9jp9uuH+O9ldPbWOt3+5uHeivYyLRRmVjwo/TgAREi9nUyJ1e11ePJGC3alCeO0QFHh/mJPqtxHXYQWWuDAeohR1q7d7F2Up7WPljIzEBYtWM3ug82WikWYr4nC9hMhmM6t+mw7VAQCQOpSbydR4hpPpfbdfjsMrMdKeQbHvOjlTkqs7RdPwW8LCdxnw5SOeAJ3mJ/vTiNsP2Uzs3NnAVUAkpdBO5mqtOAlVLeXWNl5PM6zlwKJkenlTkpkQ/FkkC0kcJ8No0vxjGLCfLw57XYpodfmB5mdvzcsoApA4pIfEB+jn3fqSq1E3q5bFY7xvxO4j06VO6kQuMfz3tpCAvfZ8GWPc/z+O6sCd5i9N2fYvzG3KvfKAlMAJC71itaiFkztdPtXC61u701QDKLQbXSq3ElC6EVe6oLZ49LzvoUE7lNWL1agj1w0I5gwe7MM208Ws3w7s/O4GhaFBYCkhGBtKfGzVto7Qqnt7CZ51rJgahyBO6lQkBnp2s2ewt+WEbhPn1H2eC6mMFszDdtPqV8Ue5mdy1v6gwKQoByCtWIC9zBAstqCXZm3gwmfUQVMcda1TCQRijLjySJbRuA+fW5g8VxMYXYmfZEZWei9mWNFuNYyACQjo4U3S3pHKLZ3+4T/exXu8czeJAUyoniyyJYRuE+fL3mk999ZdTGFTIRw/yCz87ke+qoCQApyCNSOxlxEMzmdbn+z0Or2D6awKK5WrvFUudN677+z+iDDmdOz5nfdMgL36bNYQZzcgjkgzwVUdzvdvioqAFoto+r2uy3Yh5kLzxalVhxP9Lyo5d9EVLmTAq2H4yxdu9nTVqZFBO5T5Ms9FhdRyMzh3kr9u76T2cda9XICQAJyuVcVEbiH0Dn1xW3H8W5YcH8SAvfxqXInBTohxJNJtojAfbrctOK5iEKe6hfI48w+2Vudbt9DDACtlFF1+3EYvM9aqG7PcVbgeY6nNDDk3XsyCkloO1lRPNfFFhG4T5cvdzwXUchQ6Lu6m+FHy/EzAZCHXBb5Vt2et90p9efX6m8yqtxptfffWb2fYQHXrPlNt4jAfbpUPsbpvf/OahGLIUGJDvdWtjNc7KZ+ObnRgv0AgC9ktvBm9oF76D9+qwW7Mm+98Hw4Dd69J6fKnbbTgjjO6rWbPe22WkLgPiXhS13i6vKTUN0O+csxnLaAKgCtkdnCm3U7mRIq3EsNOqf5uYVKk1PlTtvJjOIZjGwJgfv0+FLHc/GEzB3urdS/84PMPuWS1jIAtMjtjFqTlFLdfr0FuzJvR4d7K9Nse6TYbTpUudNmMqN4BtFaQuA+Pb7U8UwPgjLkWOV+XUUQAE3rdPtXq6p6I6MTkUsf+hcpNeCc2gKxFrGfKlXutNb776wK3OP5PbeEwH16fKnjHIdFMIDMHe6tPKiq6u0MP6UqdwAaE1rJ5BRQ98LMuGyFoLjE6vaDKZ9brf2my/pEtNmRsxNl7drNnmtkCwjcp2ctlw8yJ0YqoSy7Ga4yvxYWqQOAJtzNqJVMVUh1e6mD9dMOdBW7Tdf10OoI2kh2FM8soBYQuE/BtZs9N/x4qtuhIId7Kw+nOZW4Rba9oAAwb51uv25Lsp7Zgc86cA9tO3I7Z6O4E2Y7TpPqzenTy522ErjHk1G2gMB9OnyZ47loQmHCQlm5TQm0gCoAcxWC21uZHfUPZhDKtk2JgebxjAouVG9Onyp32kp2FE9G2QIC9+nwZY5k8QsoVo5V7m9YbAqAeQiB2N0MD3bWg9cFV7fvhlmO0yYYng1V7rTO+++s1teQnjMTpcT7TesI3KfDCHucg5R2FpiesGDWnQwPaQl9ZwFoUFgkNbe+7VUJi6UW+pzQm+FAyuqM/r2lU+VOWynYjHTtZk9O2TCB+4TClzi3h95Z078dyrad4QKqq6GfLgDMSh22r2V4dLO+f3a6/RuFBsTbs6hu73T7QqTZ8jxLGwnc45mB3TCB++R8ieO5WELBQo/WHKeO31IVBMAsdLr925lOET8Oa7zkrMQAszfD82rB1NlS5U4byZDiySobJnCfnBH2eC6WwG6mvfi0lgFgqkLYfj3To5p77/ZSq9tvzPDfLUSaPVXutMr776w+yHCG9Ky5VjZM4D45X+I4vbDoBVCwMMU4xwVU1zvd/tUW7AcAGcg8bK9yDtxDz/2sBxTOcDDjnvwq3GdPlTttpHAzztK1mz2/4wYJ3CcQvrwWbInjIgk8cbi3cjfTRZR3w0s2AIytgLD9zix6fLfIZqFrfc26oMIM8/lQ5U7byJLiKRBukMB9Mm728SyYCpyWY5X7qpcUACZRQNhe5XyvDAPvOT7jnKceRJn1+5538PlQ5U7bCNzjCdwbJHCfjC9vPBdJ4AvhpezdDI/IW51u3wshAFHqoLaQsP1OWEQ9VyVWtx/PaRClxFkDTSlx0IiWev+dVcWb8WSWDRK4T8aXN86xiyTwHNuZLoJTYt9WAMYUqqLvFRC2V6rbs7Q760GUTrfv/Xu+bmiTSMvk2I50llav3ez5DTdE4D6ZtZR3vgHCduBLQv/WHF+86wVUb7RgPwBouTAr6n4h7xe5V7fvFlrdPo9CA8HRfC2pcqdldEyIZ6CyIQL3MV272fOljefiCDzX4d5K/ZLWy/DoWEAVgBcKg7P3whogJci5uv1SITMUnrU5pwVwteubv03PsrSITCme7LIhAvfx+dLGc3EEXiTHavAlrWUAeJ5T/drfK6gi+u3Mq9tLXDS9d7i3cntOf5ZFPOdPlTut8f47qzKleLLLhgjcx+dLG8nFEXiRw72V+hrxQYYH6bqeowCcdqqFTEnV0PNqO9KIkqvb5/hnCdybocqdNjlyNqJohd0Qgfv4TGeL46IIjCLXChpV7gA80en26yrovyyohcyJ7Tm1HWnKvKq82+TgcG/l7hz3xzt4M1S50yYKOSNpid0MgfsYrt3sXS5wIZxJuSgC5wrTzN/O8Eitdbp9LyoABatnO3W6/fo+d6vAo3AU1mvJUpjJtp7r53uBebfQ8Q7eHFXutIVsKZ7AvQEvFfeJp2NuX9bPhgvVp48Xqs+G1cefPF74Uf3f/fLRYn3ePqv/86PhwjcfD6tvnffvWaiqj19aHP7o5P/+6uLwpcWF4WcXFqpvfmVx+K0LC8PqlcXhLD+KiyIwqt3Qzz23yr/tTrd/N/PetQA8I7Qa2S603ciJ3AedS+zdfie0A5wL7fkad1LlXuJ3nXZpVbb0eFhVv368WD2uqupXjxZ61ZO/Ly4+rp78V098+nhhpPfaCwvDDxcXql9Vn1dHL371wuMn/46vXhiu1tXSX1l8XC0ujLWbrp8NELiPZ+pT2epg/dePF578QOsf52fD6pVHw4XXT/0jr04SPg2r6tXTP/I6xH+exYXqowsLw19+7cLjz15ZHP72VxaHr04piL8/jX8JkL96unmYbv9eZh/2ZAHVqy3YFwBmLFSDboat5Mrcd+cZzM6b6va5UV3dvLrKfTfz1lC03PvvrD68drPXm3dx1kmw/uvHCx/96tHCzz8dLjx+TpA+0T7VGeCjU/Hbrx9fePL340+f/udeXhz2Xl4YLr68OHzlaxeGr48QxJd4j2qcwH08E48Offxosfrlo4UPf/Vo8RefPF5YGX4eqFdNV3TW1fKPhwvfOg4/7BP1D7quiv/aS49/79X4UbXe+++squgERna4t3K70+3fyPDh4I36xTzn4AGgdIL2pxwXUBFb4jotbzcwY0//9uapcqct7s161lhdFPvxo4WPf/HZ4o9/9XjxG6c6S3wrbI2pg/5P6z4Wj34TxtfFs19dfPzzr730+GtfXRz+1rOFs3Vr7PffWVUIO0cC90jXbvYujROKf/J4oW4F89HPPlv85aePF34v/Nevn/M/a40nP+jHC9XPPvu87X891eVrF4YXvvHS49devfD4vN0ULAHjqB/mf5DhkasXVbvUgv0AYIoE7c91I+dq2FAcsNaCXZmn44YGGTw7tYMqd9pg6oF7XcH+i0eLzwbsdWHst1M44/X+/vLRYr09+b/rttKvXnj846+/9Pi1r194/OriwpPCYYH7HAnc4408sl5Xsf/8s8Uf/+LR4oXwY218JGxa6qkuP/vs8wD+OT/kZ/lRA9HqKvBOt38nw563q3XLnMO9FdVBABk41aP9qqD9KR8c7q3cbdH+zEKJ9/KmwlaBezsshbWWSpzZQXtMpaizrmL/+WeLH/3008VHnw0XXkspYD9P3UXjl48Wv10H8IPPK+D/vNPt1/8ra4rNicA93gvbydSV7MefXqhD9oXHw+q3qqp6raWfY2qe/SF/7cLjH/6Dlx9/++u/qXxX4Q6MazPTAONWp9u/7WEHIE2hmv1qCJ70Rv2y43BsshWq23Nb4P08vQYLBrSUaY9NgTtNqlsWX7vZOx7nHfE5IXsWRbHneTys/lFVVd+rt063fxRmXQvfZ2gx2082O18K3OupJw8/vfDRg1++cvw3H79cV32/FsL2ItXh+4e/eqn6q1+88vHg1y/97f/3i1dKPRTAhEIFVa4P9LdbsA8AROh0+1frAdOqqh6Exb2F7c93tYCWEyVWtzfymcMAl9kj7bEaBpygSVGFnb94tFj97ccv//Cvf/ly9fefXPhWCNtLtRbC97/qdPt3/Z5nQ4V7vC969NUtY44/XfxhHTCXMioWo658/9lni3W/+r/sdPsHdbhUL4SYzicA2qCupMq0imy9Dm4KmG4PkKzQLuZKqGa/IvQbybu5Lw5et4YrsLr9oMF3OdXt7bOteISG1feZN160C3U1+08/XTz+6WcXPgtFsVm0i5my+hi+Ua/NEArdzMKeEoF7hGs3e0+q23/22eLHH31y4RdhRMwPdjTrIVw6uTFbaAWIUU9d/X6GR+x2Hea4HgK0Q6fbvxLCvcshYC8tVJ3U0eHeymbaH+HFTi2OW5omK/r1b2+fJ1XuCupo0JlrBdatnj/65MKHv3i0+LqB8pHVx+lWaH16JwTv2kNPQOAeYfDrl/6HXzxaPH48fPJFfDWZHW+X1fAj3gzTcXeNngHnqavAw0yZ3KbuL4UX2BJf3AEa0en26zD9YgjxLoVw/dLpmayM5fi89a4ysVlggPNBw8GLwL2dVLnTmPffWb137WbvqT++7kLxk08ufPjJ44U6aH/d2Rnb9XoL79/bgvfxLAyHwxT3e65CK4MSpw3OSz16tqnCkzbrdPupXizr6b9ZvPyGaf1/1YJdmYU/OtxbObNKg8+F+7Eeg8xa0i3wQoX2D1qwK+Pohd7o03bJc/xc/HEBrWQuhu9oaYH7d5oskqp7DJ/XOoLGvKnKnaZcu9mr7znrzwTtTJ/gfQwq3F9A0D439ejZ1ZOeUYJ34HnqF71Ot/9uVVVvZXiAdgupCpzUJQsUMgdeJkIZ5OUAACAASURBVJqz6rk7Wd8t5EV8u8Cw/d0WzEi+2PCfz9lUudOYXzxa/H8++uTCH6pon7n6/esHKt7jLKa0s/NSVwZ1uv260vA9D/1zc9Ivqg7UtFYAzrIdpqznZt21D4BE3TncW9nN/eSFmXY5Dvq/yHHDvdtPGGxvr9VQqAhzU1+P6xbFH/7qpX+qqn2uToL32+GeyAsI3E8JP9q7YRquHo7NqIP373W6/QdhSjTAF8IMmFyD6e0wVR0AUlEvklpK2NaG4HneGp997NkoCSX+NmhIp9vfDgumXncOGlMf+/vhXHAGgXtw6kerN1w7rIaRs7sesoDTQp/IowwPylJoLQMAKTgqpR1aqOQrLdzpteS55HIL9oEXU+XOzIVOFA9CZ4TSWnu10ZMuFYplz1Z84N7p9i+H9jF+tO30hjYzwHPkek247oEFgATUrUauFrT2UokD4tstOb/aFqRBpSszURdghvX+fqDlcysplj1D0YF7qGr/S+1jWu+kzcw9faKA6vMq93qhlg8yPRiq3AFoszpsv9KChTTnIgyElzYL+ijMKGwD739pUOXO1IXr7/0C189I0Umx7NXSD8SJIgP3Z6raScd66BPlBwxUoco9xwVU1/TDA6ClTsL2+wWdoBLvyW2aSailTDoE7kyFqvZk1cWy3w+LqhZf7V5c4B5ak6hqT5cfMPBEqKzLtRp804weAFqmuLA9VFeut2BX5ukgzCRsC+986VjXGpFJ1QWyVVXdU9WetJNFVYseMC0mcA8jZHfr1iQt2B0m5wcMVCFw72V4JCygCkCblFjZXhVa3d62KuXSBjxSZ5YmY1Mgm5V6ZsJflrweYxGBewhl7xfYey939Q/4nl5xUK6wmFeuN/E3VAkB0AJFhu2hjWVpYe+dNvXmN6M5SarciRYKZG8rkM3S90pdUDX7wD2Esff0fcpWXQX6Xrg4AwU63FupZy8dZPrJtc8CoEmlVrZXBc40O25hEYPZzGlS5c7IQhvNe6GLAXl6IxTLFnVNzzpwD4vOvRdCWfJ2vV4IVzAFxcq1yn01488GQLsVG7aHoq3SCrZ2w8zBNrGeTZpUuTOSU90otJDJ31oI3Yu5NrzUgn2YuhC67hohK87JD/hGoVU4UKz6N9/p9u9ket2/Vc/iadMUbwCyV3Jle1Vghe5xiyv6U5nFeMms+qfUvyGhO2cKA5vvOUJFqYuhf9Dp9t883FvJvktFdoF7CNvvGSEr1hejZkJ3KE5dCX4101lNt720ADAnR/XCmaU+S4cF3koLTjdbWN1ehUAmiVCm0+0rjHjaengnv9emnaIdwnVWv/Zy1W2hLx/urWQ9kzurljLCdoKlELpfdUCgHOFFMdeKtHXXNADm4KjkyvbwPlladXuvhErDWSq0BdEo9HLnSyyOSvBW7msxZhO46/3EM+rQ/fvh4QcoxOHeSj0dupfpp7WAKgCz9EEI21tX6TxHmwWu/+V9aQKn2tnyZXq585QQsGr9zInrOYfuWQTuIWy/Z1SZ53hP6A7FyfU3v6RSCIAZuXO4t3K15LA9BKelLVR+oOXHxEocpInh2ZUnhO2c4UnonmNhWfKB+6mw3U2OswjdoSDhxTGVBbZivRXuewAwLfXiZZ6VywxOSxtgmKpCB2liqXJH2M55roe20FmF7kkH7sJ2IgjdoSw5/95NWwZgGo6rqvpj/bufvFdeKjA4vVNqr/4p2pVFjMR7eMGE7YxoLbf33GQD91MLpLrBMSqhOxTicG/lQVVVb2f6adfDyv4AMK56cdTL2ol8Ybuw98pjrT4mEwZphIijuR6OF4URthMpq57uSQbuwnYm8J4pbVCM3fBCmaNtC6gCMKa6svlyGJwuXqHB6a7zP7HiZ4ZEMsBTGGE7Y8omdE8ucD8Vtq+1YHdI0109kCF/YeG3XCvBl7SWASDSsX7tz1VaEHjsGWIyoYBrPeXP0ABV7gUJs3GF7Yyrvl4kf59KscL9trCdCS2FBRnc8CFzoS9trguoXjdjB4ARnbSQUZV7SijCKS0U2g5FCYzPgMV4VLkXILTx/V7px4GJvZV6S+ikAvcwreCNFuwK6VsKle5aMkD+cn6498IHwHne1kLmTKXdR3uHeyueHSYQAiAFgONR5Z65MIj5XunHgalJuiV0MoF7uLGZksI0rem9B/kLC8LdyfSDrnW6fdVCADxPXdX+R4d7K+4Tz1FoWxCLrk8gFGv5PU3G8ctUGEyxEDfTlmxL6CQCd6NkzNAbwioownbGC6huqhYC4BknVe33HZgzlfYOcHC4t3K3BfuRsnrAYrX0gzAhVe4ZCoNRd0MnAZim+jt1O8XuFK0P3E8tkgqzcqvT7V91dCFfYRp9rlOoLaAKwIkDVe3nK7S63XdiAiGXMENgOnwX87Or1RIzlGR3ihQq3I2SMQ+3jbRD3kL40Mv0Q75hAVWAotWzuN483Fu5oqp9JKW1lbwTWuwxvm25xNSocs+I9s/MSf2+m9SgZ6sD99Dqo7TKA5qxFAZ3gLzlXJmU5FQ7ACb2blVVlw73VqxNNIIQDpXWFkRF8QRCOPxWsh+gnXwnMxDaP5tpy7x8L6V+7q0N3EOl3q0W7ArlqBcfdLOAjIXepQeZfsJVU50BilIvCP6dw72VzcO9lYdO/chKC/reDq31GJ93xOlT5Z64UOhz28wP5uxuKkVmrQzcT/1wYd7e0pYBsncj4w94y8sLQPbqgeM/PtxbuSFIjVNgdfuxsHgy4d3wjZQ/Q4spFEnbtr7tNGA1lftaWyvcd63+TYO0ZYCMhXDi3Yw/ogFrgDydBO1X9OOOF57vS6tu3zX7YWJan8zODe/daQoDUdos0ZR6hszVth/91gXu4aBZcIEmrXqwguxth6qvHK2n8AACwMg+ELRPxWZhRV29sGA8YwozIqwpNztLqtzToyMFLdH6QtlWBe7hYJnyRhtoLQMZC9VeOb+EmqkDkLbjUz3arwraJxPuiaUFe8L2yTmGs7fpmTU52zpS0AJLbR/4aVuFux8ubSKwgowd7q3UA7xHmX7CJS+JAEnqVVX13aqqLunRPlWbhS3sd3C4t6ICdQKdbl82MR+q3BOilQwt80abC2VbE7h3uv3Lfri0zKqbP2Qv59/4W+HeCkD73QltY+qgXd/tKVLdTqxCvzNNUuWeDh0paJvWDi63qcLdD5c2utXp9i85M5CnMEX/g4xPr3srQHudVLN/J1SzaxszG7uFVbd/4Ls0sdJmRDRNlXsCOt1+fY7WSj8OtM5qmJHUOq0I3C1GQsuZjgl5y/kBfz08HAPQDie92f/oVDW7tjEzEgpnrmf54c7mvj+B8J25lewHSJcq9xYL58bMGdpqs42Fso0H7hZKJQHrFlCFfIWg4+2MP+K2FxiARp2E7P/4cG/lYqhmv++UzEVpAdEdAzgTEyo2Q5V7u5U2U4i0tHL9sjZUuJuuRQpUuUPedsPU/hwtGdgGmLt6Ue53QyX7Sch+12mYnwKr248FlpMJRValzYhoE1XuLVToTCHSc71thbKNBu4WIyEhq6H1EZChsDhdzhVNrXsAAchML1Sxvxl6sv//7N1PcxVXmi/qJSGwcd0qaLerfXT79Enu9E6gQx8A+QOcQBU3cizxBWQxzJFhtIeW+QIW4xxYRNy5YX4Jw52cKdn/1O6iXVbXtTG2kG4se1FFuTAgtPdembmeJ6Ki+vhElHeutbV35m+/630v3bu5vKWSPavSCmYM2z051e15qXLvJ4U7DEWvPsNzV7g7lsKQuAGDEbt3czk+mN8d8SW6WQaYnrupgv13KWC/kKrYd7T0yC/9yFzSjLDO9/zJrGzurZkr1wuq3HskfZZeKX0dGIxetYNeyvUvdiyFAfqxyj2FcsA4xaqaL0Z6bRfjBPd7N5f9eAjw+mKwHquG7z/7j0B9EEr7rruuuv3E/GDRD7Egc8N+9IbnBoYmvmd7EbpnC9z94TJQ1/VzL9ZQK58dZT+GePR/ZXPvRl++pGfg0uiuCPi5r6f4nRWrDC+OdIVjRfCz4Pzr574v7z/7fwswh6nA6vYHCoJOZmVzLxZcVEO+hpHZErjnV+BnKePwY5X7vZvLd3JfzcLR0dHc/6XpiNBD7WQYqKtuagEAoN9WNvd2C2iH8EEfgoWhkk30Svwh9JIfO/uhkM9PxunuvZvL2QvocvVw3/KFxoA5nQEAAD2WenKPPSy6K2w/MdlEf1SetfshtYAWtjNUvejlPveWMukXZJOnGbLYy33t3s3lXbsIAAC9FKuWPxj51mgdeHLxmc6PFvCX/PDB0G3k/myfe0uZOHQyhPDpXP+lMH29OKICAAAAMA2pSPYPFpMR+D9yDrrP0VLGL2WMweV0zAoAAABgDHSkYCw2cl7HXAP31EPH9G/Gwo9HAAAAwFhkDSlhirL+eDTvCnd/uIzJmt0EAAAAhi4Nm1Yky1icS23Ns5hb4J76QK172zIiWf94AQAAAKZEUSFjk+09Pc8Kd3+4jJH3NQAAADBYimQZqSu55i/OM3A3eIExyvbHCwAAADAFigkZqyzv7bkE7imQvDiPfxdk4IsJAAAAGCrtchmrLO/teVW4CyQZM19MAAAAwOCkItnLdo6RupijM8W8AneBJGOW5Y8XAAAA4IRWLSAjN/dC8JkH7mnwgnYyjJ1THAAAAMDQyDMYu7kXgs+jwt0fLiXwizAAAAAwGKlI9oodY+Qupvf63AjcYTp8QQEAAABDoniQUsw1n55H4O6PlyKsbO75cQkAAAAYCpkdpZjre32mgfvK5t6lEMK5Wf47oEd8UQEAAABDoXCQUowncBdAUhjvdwAAAKD3Vjb3LoQQKjtFIapUGD4XAneYnrkPYQAAAAB4AzI7SiNwh4Ga2x8vAAAAwBuSX1CaueXUMwvc9W+nUH5kAgAAAPpOfkFphh+4+6WMQnnfAwAAAH130Q5RmGperaAF7jBd3vcAAABAb61s7qlup1Rzye0E7jBdc/u1DAAAAOANXLBoFErgDgPlvQ8AAAD0ldyCUg03cE8VvgamUipfXAAAAEBfyS0o1VxOd8yqwt0fLiVzNAsAAADoK7kFpbo8j+ueVeDuD5eS+cEJAAAA6KvKzlCqecxeFLjD9BmaCgAAAPTOyuaeIkFKN/O/AYE7TN9FawoAAAD0kCJBmDGBOwAAAACUQYU7pVud9fXPKnD3axlFW9ncm/kfLwAAAMAxyexgxmYVuGupAQAAAABAn8y8M8usAnconV+MAQAAgL5xIp/SCdxhoPREAwAAAIDCTD1w17saAAAAAIASqXAHAAAAAKAEM+9KIXAHAAAAgDLMvH819Ny5Wb88gTsAAAAAlKGyzzBbAneYjfPWFQAAAADKInCH2Zh5PygAAAAAoF8E7gAAAAAAMAUCd5iN+9YVAAAAAMoicIfZ+Nq6AgAAAEBZBO4AAAAAUIbOPsNsCdwBAAAAoAwP7TOF25/15c8icNdKAwAAAACAvpn53MWpB+73bi4bFgkAAAAAQHG0lIHZ8MMTAAAAABRG4A6zobUSAAAA0Dd37AiFm/kcg1kF7g9m9L8LAAAAAABvYrCBu+peinbv5rJfjAEAAIC+mXnYCKWbVeDujxcAAAAA+kVmR+lmXiQrcIfp01IJAAAA6CNdKWDGBO4wfb68AAAAgN65d3P5vl2hZPNoAy1wh+nTvx0AAADoq87OUKj9eVz2rAJ3v5ZRMhXuAAAAQF8plKVUc8msZxK437u5/PW8fjGAHvKDEwAAANBXTuZTquEG7onQkVJ57wMAAAB9pcKdUs3lvT/LwN2vZZSoSyc8AAAAAPpIoSClUuEOA+R9DwAAAPTWvZvLsguKdO/m8lwKxAXuMF3e9wAAAEDf3bVDFObBvC53ZoH7vZvLDw1OpUBaKQEAAAB9p2CQ0sztPT/LCvcgfKQ08zqaAgAAAHAC8gtKM7f3vMAdpsdxLAAAAGAIZHaURuAOA+T9DgAAAPTevZvLX8+zpzVk1qX253Mx08A9TT3Wx51SCNwBAACAoZBjUIq5vtdnXeEe7c7h3wG57evfDgAAAAyIHINSjC5w98dLCbzPAQAAgMG4d3NZkSylmOt7XYU7TIf3OQAAADA0t+0YI3c3zSyYm5kH7umC/PEydgJ3AAAAYGjkGYzd3N/j86hwD9ptMHK35/1LGQAAAMAUCNwZu9EG7v54GTPvbwAAAGBwdKZg5B7cu7n8cN6XOJfAPV2YP17GSuAOAAAADJVcg7HayXFd86pwD/54GSntZAAAAIAhi5ndvh1khIoI3P3xMjZZ/nABAAAApiEVEiqUZWyyFcnOLXD3x8sI7d+7uew9DQAAAAydgkLGJtt7ep4V7tH2nP99MEu+jAAAAIDBu3dz+U4IobOTjESXs0h2roH7vZvL9+N02Hn+O2GG/IAEAAAAjIWcg7HIWiQ77wr34I+XkYh9oB7aTAAAAGAkdsxfZCSy5s9zD9zv3Vz2x8sY+OEIAAAAGA3zFxmJW7mGpT6To8I9CCsZuAeptxkAAADAmFy3mwxc9vdwzsBdlTtD5QcjAAAAYHRS+9xbdpaButuHFtBZAvdU1i+0ZIi61BYJAAAAYIxUuTNUvXjv5qpwD6rcGShfOgAAAMBoqXJnoO72pQV0tsBdlTsDpLodAAAAKIGCQ4amN+/ZnBXuQZU7A7NlwwAAAICxU+XOwPSmuj3kDtxVuTMg8Q9314YBAAAAhVDlzlBs9Ol15q5wj6F7/OPtcr8OeAVfMgAAAEAxUpX7DTtOz91K79XeyB64J1p10Ge3+nQsBQAAAGBOtIOmz/b7mCv3InBPrTru9uClwM/tq24HAAAASpTaQSuUpa+up/dor/Slwj3446Wntvt2LAUAAABgXu7dXN5RKEsPPbh3c7mXs0F7E7jfu7l8X18oeuZBmjEAAAAAUDKFsvRNb9+TfapwD6kvlAGq9EWvJhwDAAAA5KBQlp75pM/zFnsVuKeeO0JO+uCT9GUCAAAAgEJZ+qHr+7zFvlW4h/TrxCc9eCmU64FBqQAAAAB/Fgtll98++H8tCZlt9HFQ6vN6F7gn11PoCTn0/g8XAAAAYJ7qpts4e+rwf54//XTfwpNJr1vJPNPLwF1rGTK6oZUMAAAAwJ/VTbcaQvg0/oN3zzw9t7Rw9JXlYc4G05Fi4ejoqAcv48VWNvfitNmP+/jaGKW7924ur9paAAAAgJ/UTXchhBCLE889+2cHRwvhn789/fgohLOWiTmIpypWh1Ik29eWMj+6d3M5DmO43YOXwvjFP9w1+wwAAADwk7rpzocQdp8P26OlhaPwd28d9LeKl7HZGlJHil4H7smGCcjMwZq+7QAAAAB/YSeEcPFFS/KrpcN3fr10+MhyMWO37t1c3hnSIvc+cE8h6FqqQIZZuDaEgQsAAAAA81I3XeyXfeVl/7rfvnXwnn7uzFDs2741tAXudQ/3561s7m08G84AUxR/JTOgFwAAACCpm+61c7jDoxD+6fGZ/cOjv2w7AycUi68v3bu5/HBoCzmYwD38FLrHX9Y+6sFLYQQWQvhf/8/N5f/TXgIAAAD8pG66SyGEOz/v2/4y3x8uhH99bIgqUzOoIak/N4Qe7n9y7+ZyDNxv9eTlMGBLC0ePqne+//s0/AMAAACgeL80JPVVziwaospUDWpI6s8NKnAPP4Xu8UjL3R68FAZqIYTH/+3tg/cWF8Jv4i+2QncAAACAH8WwvXqTpYhDVH/71sFjy8gJXR3akNSfG1zgnqylpvlwLDFs//uzP5yNv7wmcdL2tlUEAAAASlY3XQw5L59kCX69dHj2/Omn+95IvKFbQw/bw1AD93s3l7+OfXyE7hzXz8L2Z9brphvcxGMAAACAaUhDUten8b/17pmn5361dPiVjeGYbqXOJoM3qKGpP7eyuXc+DXG42K9XRh/FY03xl9aXvLTftZNq1+YBAAAApUhDUr+Y9uV++WTpq28OFt/1RuI1jCZsD0MP3IPQndf0GmF7eDYBuZ1Ugx3KAAAAAPC66qa7EEK4f9whqa9L6M5rGFXYHgbcw/1PtJfhVV4zbA/py2XHEFUAAABg7FL+sTursD16/62Dd7WX4SVGF7aHMQTuQejOL4gDUpffPgivGbY/czF92QAAAACM2fY8OkYI3fkFowzbw1gC9yB052di2B4HpJ49dfgmS3O5brptawoAAACMUd1016c1JPV1xND9b888/c6biWS0YXsYQw/3n0s93XdCCFf69cqYl8WFsP+/v/3DuTOLJ35vX20n1Y6NAwAAAMaibrq1EMJnOS7njweLj3//ZOk4nQgYn6v3bi6POm8bXeD+zMrm3s48f6mjH5YWjr7672d/eHdxYSovxxBVAAAAYDTqprsUQrgzy77tr/LNweK3//FkaeEoBMF7WWLOtjX2sD2MOXAPP4Xu8WjCpz14KczBr04dfvnbtw7en1LY/kz8MLjQTqqv7SEAAAAwVGlIaiwqrHJfwveHC+Hfvju9f3iUL/hnrn4sar13c7mIotbR9HB/kfSLyQdpUxmx86ef7r//9tTD9pB+8b3jvQMAAAAM3G4fwvYotgH+H2e/j+2AH/Xg5TBbcd7mhVLC9jD2CvdnVjb3LqQPlZlPXma+4nDUv3vr4OhXS4fvzPhffKudVKMd5gAAAACMV910vW29/PsnS4/+eLD4Xg9eCtM36uGov2TUFe7P3Lu5/DAeW4ib3I9XxDTEfu3/8M4PZ+cQtkfrddNt2TgAAABgSOqm2+jznMPfvnXw3vtvHXwbiyp78HKYjv00HLXI4tUiKtyft7K5Fycx7+QcDsHJ/Xrp8FH8QM6wlB+0k0qLGQAAAKD30pDUL4bwWg+OFsK/PV766uBo4d0evBzeXGwhs1FSC5mfKy5wD39uMRND98s9eDkcw0II3/23tw/ePnvqMNey/TjkoZ1UxX5oAAAAAP2XhqQ+HFrR6Vffn9r/+odTCmWH6ZN7N5eL7xBRZOD+zMrmXnwDXFftPgxnTx0+ev+tg/dmMBj1uB6k0P3r0S0yAAAAMHgpbL8z1HmG3x8uhH//bunRwdGC3u7D0KWq9uK7QoRSerj/kns3l7dDCPFozd1+vkKixYWwH3t5Lb/di7A9pC+rnR68DgAAAIAX2R5q2B6dWTwK/+OdH947f/rpfg9eDi/3ScxXhe1/VnSF+/NWNvc20oeRavceib3a//ZMb4L2n/uknVTFH5MBAAAA+qNuuphVfDyWLYnV7v/xZOnL7w8X3u/By+HPiu/V/ksE7s9Z2dw7n0L33k5uLsWZxaMv/+6tg/fjL5o9d7WdVKrdAQAAgOzqplsLIXw2xp3448Hi40dPlhaOQni7By+nZPHUwfXUOYQXELi/wMrm3qUUvBuqOmexfczfnjk48+ulw7MDecmGqAIAAADZ1U13KfVtH233hsOjEL7+4dT+/g+nTh+F8E4PXlJpPklhu7mGLyFwf4mVzb3V1Ku76u2LHImFEB6fO/30+3fPPB3il0IM3S8YogoAAADkMPQhqcd1cLQQ/vPJqS+/ebqozcx83EpB+8MSLvaklob98mcrNfu/kPq7Xxe8T9+zoP386afnFhfCUKraf+5c+lK71K+XBQAAABRit5SwPYqNZd5/++B9wfvM3U1Bu4Gox6DC/RgE79Pzs6B9LG61k2pjNFcDAAAA9F7ddLEt8ocl75TgfepiRfu2gahvRuD+BlKrmet6vB/fsx7tvzp1eHZEQfvzrrWTytAIAAAAYObqpouFf59a6Z/E4P2/fliMPd7PHIXBdlLIZT+dlNA65oQE7iewsrl3IQXva2MeSDENby0e/fP5M0//4VenDod/Ma/2QTupHLUBAAAAZiYNSf3CCv+1OFz1m6eLj//w/alvDo4W3uvb6+uZLlazxzmWhqFOh8B9ClY2986n0H1D1fufLS6EP/xm6enib04fnou9tQoSfxG81E4qvwYCAAAAU5eGpD5UAPpq3x8uhD98f+rLb58u/kbV+1+4lUJ2RaNTJnCfslT1HsP3rRJ7vcfe7GdPHT46d/rwH86WUc3+Sx6EEFbbSeWXQQAAAGBqUth+p6QhqdPyx4PFx//1w6lHTw4X/mEcV3Rst1PbmF3V7LMjcJ+hlc29eLRnNVW+j/ZDMFay/+rU4bfvLB3+fSEtY17X7XZSrQ3jpQIAAABDUDfdTghh3Wa9uWctZ745WHz0+OnieyOvfBeyz5nAfU5S5ftq+s/ge76fXjz6118vHb7zzqnDvzmz6D30EjfaSXW9t68OAAAAGIy66WJHhY/t2HQ9froY/r+DxUffPl14+vRo4f2BX86DdALizr2by7s9eD3FEbhnkqrfn1XAX+pzBXxsE3Nm8ejR26cOz7xz6uj9wlvFvImr7aTaGd7LBgAAAPqibrqYIX1uQ2YrVr8/OVwM3z5diH3fDw4OF97teQX83RDC/edCdlXsmQnce2Rlc+9Z+H4h/feleVfCn1486hZDWHwWrp9ePAqFDTydhf3Uz/3++C4NAAAAmLW66S6lQNWQ1AwOjhbCNweL//d/fn/q3nPZ3byLZ7s0KPdO+u/7924uy5p6SOA+ACmID+kP+nz6v1d/9sov/MKQ1hj23l8I4e2lxaP/Fv/B24tHS4sLRwfx/4yhevxnby0exl7szE78ULxkiCoAAABwHIak9sIL5/SlFtIXUl53Kf3jZ//seZd/4SLu/uz//XWqVg8pVP/xP/duLj8czUoWYKn0BRiCezeX76SXeeckL7duujsv+QNntqq0f5esMwAAAHAMO8L2rGJP9I0XvYAUhD8Lw/VL50eLlqEoa+lDgjwupkniAAAAAK9UN912COGKlcomdo7Y0LGA4xC4FyR9OGykDwvyWK+b7oW/igIAAAA8k/KDDy1IVhtm8nFcergXqG66WOn+WenrkNkH7aQ6UYsgAAAAYJwMSe2Fa+2k2i59ETg+gXuh6qbbCiF8XPo6ZLSfhqgaegEAq2HwDAAAIABJREFUAAD8SRqS+lDYntWtdlLpUMAb0VKmUOkXululr0NG8UtzN32JAgAAADyjsj2vOP9wq+QF4GQE7mXbMkQ1q4tp0jgAAABArG7fSXkBecSOBKuGpHISAveCpQ+PVUNUs7pSN931gq8fAAAA+HP733VrkZWwnRPTw51ngzi+sBJZ/a6dVLsFXz8AAAAUq266WBD5uXdAVlfbSaUTASemwp1Y6X4/fqhYiax20g8fAAAAQEFSHqAIL69PhO1Miwp3/qRuujhI9UMrkk0XQrjk6BIAAACUoW6682lIqr7t+dxtJ9VqqRfP9Klw50/aSRV7hd21ItlUftEGAACAohiSmteDEMJayQvA9Anc+bm1VGlNHpfTRHIAAABgxFKngSv2OJv9EMKGTgNMm8Cdv5A+ZNbShw55rNdNt2HtAQAAYJzSc7+2vnltpLmGMFV6uPNCddPF0P0zq5PVP/rgBwAAgHFJQ1Jj3/Zztjaba+2k2i702pkxFe68UDupYi/xG1Ynqzt1010o+PoBAABgVNKQ1F1he1a3hO3MksCdX9ROquvxQ8gKZRO/fHfTlzEAAAAwfLGyvbKP2cQhqVuFXjtzInDnVbbShxF5xEnlfnUFAACAgaubbic955NHnFe4ZkgqsyZw56UMUe2FOET1eumLAAAAAEOVhqSu28CsVttJ9bDg62dODE3ltaSBHl9Yrax+l3rrAwAAAANRN91qCOFz+5XV1XZS7RR8/cyRCndeSzup7scPJ6uV1U764QMAAAAYgLrpLqQhqeRzS9jOPKlw51hSvzFHoPLpQgiX9BsDAACAfqub7nwakqpvez5320m1WurFk4cKd46lnVSx59hdq5ZN5ZdxAAAAGARDUvPq0lxCmCuBO29iLX1okcfluum2rT0AAAD0U91010MIV2xPNvsxv9IhgBy0lOGNpF7i8VjUOSuYjYEfAAAA0DN108XuAJ/al6x+104qHQLIQoU7byQNUd2yell9aogqAAAA9Ed6TncqPa8bwnZyUuHOiaQjUh9ZxWziEakLjkgBAABAXmlI6v00f408bqX5g5CNCndOpJ1UMXC/bRWziS197qQvdQAAACCfO8L2rB7oxkAfCNyZho30oUYeFx1XAwAAgHzqpttJz+fkYUgqvSFw58TSh9la+nAjj/W66fyKCwAAAHOWhqSuW/esVttJ9bDg66dH9HBnauqmWw0hfG5FszKFGwAAAOYkDUn9wnpndbWdVDsFXz89o8KdqWknVexVdtWKZrWTvuwBAACAGaqb7kLq204+t4Tt9I0Kd6Yu9S1zlCqfB+kolb5lAAAAMAN1051PYbu+7fk8aCeVokN6R4U7U9dOKkNU84pf9trKAAAAwOxsC9uz6mKxYcHXT48J3JmV1fThRx6X66bbtvYAAAAwXXXTXXeyP6v9EMKak/30lZYyzEzqJR6PV52zytkYHAIAAABTUjfdWgjhM+uZlayDXlPhzsy0k+p+CGHLCmf1qSGqAAAAcHLp+VrQm9cNYTt9p8KdmUtHrT6y0tnEo1YXHLUCAACAN5OGpMbCwsoSZnO7nVRrhV47A6LCnZlrJ1UM3G9b6WzOpdY+AAAAwJvZFbZn9SCEsFHw9TMgAnfmZSN9OJLHxbrpHLkCAACAY0rP05etWzaGpDIoAnfmIn0obqQPSfJYr5tOT30AAAB4TXXTxSxj3XplFcP2hwVfPwOjhztzVTfdagjhc6ue1QftpNJiBgAAAF4iDUn9whplddWQVIZGhTtzlYLea1Y9q9100wAAAAC8QN10F8xDy+6WsJ0hUuFOFqn/mSNZ+cR++qv6nwEAAMBfqpvufArbL1qabB60k0qxIIOkwp0s2klliGpe8abBr8QAAADw17aF7Vl1sUiw4Otn4ATu5LRqiGpWV+qm2y74+gEAAOAv1E235UR+VvtpSKoT+QyWwJ1s0oen0D2vD9PEdQAAACha3XRrIYSPS1+HzLbaSXW/6BVg8ATuZJU+RLfsQlbbhqgCAABQsvRcrPVqXp8YksoYGJpKL6TWJh/ajWziKYMLjmwBAABQGkNSe+F2O6nWSl8ExkGFO73QTqpY5X7bbmRzLt1cAAAAQGl2he1ZPQghaHfLaAjc6ZON9CFLHhfrpnN0CwAAgGKkE/eX7Xg28cT9hhP3jInAnd5IH64bhqhmtZ4msgMAAMCo1U23ob1tdmuGpDI2erjTO2kq+Gd2JqsP2kmlxQwAAACjlIakfmF3s7rWTqrtgq+fkRK400upyvpju5NNPGVwqZ1UDwu9fgAAAEYqDUl9mOaZkcetdlLp284oCdzprdRPfN0OZRP76a/qowYAAMBYpLD9jiGpWT1oJ9Wlgq+fkdPDnT7bMkQ1q3jzYYgqAAAAY7ItbM8qnqhfLfj6KYDAnd5KldWrhqhmdaVuuusFXz8AAAAjkdrXOkmfz76T9JRASxl6zyCTXrjaTirV7gAAAAxS3XRrIYTP7F5WsgWKoMKd3msn1f34oWynstpOP3wAAADAoKTnWUFvXp8I2ymFCncGo2662GftQzuWTRdCuOToFwAAAENhSGov3G4n1Vrpi0A5VLgzGO2kir3W7tqxbKp0kwIAAABDsSNsz+pBCGGj4OunQAJ3hmYtfViTx8W66RwBAwAAoPfSSfkrdiqbOCR1w0l5SiNwZ1DSh/RG+tAmj/W66fw6DQAAQG+l51ZtafPaSHP5oCh6uDNIpov3wgftpNJiBgAAgF5JQ1Lj8+o5O5PNtXZSbRd67RRO4M5g1U13PYTwkR3MZj8NUX1Y6PUDAADQM2lI6kNhe1a32knlZDzF0lKGwWonVQzcb9nBbOLNy266mQEAAIA+UNmeV5y7t1XyAoDAnaHbMkQ1q4tp4jsAAABkVTfdTnpOJY94En7VkFRKJ3Bn0NKH+JohqlldSe19AAAAIIu66WJB3rrVz0rYTvGCHu6MRRqI8oUNzep37aTaLfj6AQAAyKBuutUQwufWPqur7aRyAp7iBRXujEU7qe7HD3cbmtVO+uEDAAAA5iI9hyr+yusTYTv8mQp3RiX1a3OELJ8uhHDJETIAAABmrW6682lIqr7t+dxtJ9VqqRcPL6LCnVFpJ9VG/LC3q9lUKgsAAACYE0NS83qQ5uoBzxG4M0ZrqdKaPC6nkwYAAAAwE3XTbYcQrljdbPZDCBtOuMNfE7gzOunDfi19+JPHet10G9YeAACAaUvPmx9a2Kw20jw94Gf0cGe06qaLoftndjirf/QFDAAAwLSkIamxb/s5i5rNtXZSbRd67fBKKtwZrXZSxV7iN+xwVnfqprtQ8PUDAAAwJWlI6q6wPatbwnZ4OYE7o9ZOqushhNt2OZt4E7SbbooAAADgJGJle2UFs4lDUrcKvXZ4bQJ3SrCRvhTII06M9+s3AAAAb6xuup30fEkecU7emiGp8GoCd0bPENVeiENUr5e+CAAAABxfGpK6bumyWm0n1cOCrx9em6GpFKNuutUQwud2PKvfpd76AAAA8Eqe5XvhajupdkpfBHhdKtwpRjupYq+3q3Y8q500UR4AAABeqm66C2lIKvncErbD8ahwpzip75ujaPl0IYRL+r4BAADwS+qmO5+GpOrbns/ddlKtlnrx8KZUuFOcdlIZoppXpUIBAACAVzAkNa8uzcMDjkngTqlW05cHeVyum27b2gMAAPBzddNdDyFcsTDZ7Mew3cl0eDNaylCs1Es8Hk87512QjcErAAAA/EnddPFU+qdWJKvftZPKyXR4QyrcKVY7qe6HELa8A7L61BBVAAAAwp8L45yGzuuGsB1ORoU7xUtH1T4qfR0yikfVLjiqBgAAUK40JPV+mvtFHrfS3DvgBFS4U7x2UsXA/Xbp65BRbOlzJ91cAQAAUKY7wvasHugCANMhcIefbKQvF/K46NggAABAmeqm20nPheRhSCpMkcAdfqpy/zqF7vvWI5v1uun8mg4AAFCQNCR13Z5ntdpOqocFXz9MlR7u8Jy66VZDCJ9bk6xMQwcAAChAGpL6hb3O6mo7qXYKvn6YOhXu8Jx2UsWecdesSVY76aYLAACAkaqb7kLq204+t4TtMH0q3OEFUv84R9ryeZCOtOkfBwAAMDJ1051PYbu+7fk8aCeVYjeYARXu8ALtpDJENa9406WtDAAAwDhtC9uz6mKRW8HXDzMlcIdftmqIalaX66bbLvj6AQAARqduuutOlGcVc441J8phdgTu8AvSl4/QPa8P08R6AAAABq5uurUQwkf2MautdlLdL/j6YeYE7vAS6Utoyxpl9akhqgAAAMOWnusM6MzrhiGpMHuGpsJrSK1NPrRW2cRTBhcceQMAABieNCQ1FrRVti+b2+2kWiv02mGuVLjDa2gnVaxyv22tsjmXJtgDAAAwPLvC9qwehBC0a4U5EbjD69tIX1LkcbFuOkffAAAABiQ9x122Z9kYkgpzJnCH15S+nDYMUc1qvW46PfUBAAAGoG66+Ay9bq+yimH7w4KvH+ZOD3c4pjRV/TPrltUH7aTSYgYAAKCn0pDUL+xPVlcNSYX5U+EOx9ROqth77pp1y2o33bwBAADQM3XTXTCHK7tbwnbIQ4U7vKHUh87RuHxiP/1VfegAAAD6o2668ylsv2hbsnnQTipFapCJCnd4c1uGqGYVb978Wg8AANAv28L2rLpYnFbw9UN2And4Q6myetUQ1ayu1E23XfD1AwAA9EbddFtOgme1n4akOgkOGQnc4QSeC93J58M0+R4AAIBM6qZbCyF8bP2z2mon1f2Crx96QeAOJ5S+zK5ax6y2DVEFAADIIz2PafmZ1w1DUqEfDE2FKUmtTT60ntnEo3MXHJ0DAACYH0NSe+F2O6nWSl8E6AsV7jAl7aSKveruWs9szqWbPAAAAOZnV9ie1YMQgjar0CMCd5iutfRlRx4X66ZzhA4AAGAO0knvy9Y6m3jSe8NJb+gXgTtMUfqS20hfeuSxnibjAwAAMCN1021oq5rdmiGp0D96uMMMpOnsn1nbrD5oJ5UWMwAAAFOWhqR+YV2zutZOqu2Crx96S4U7zEA7qWIPuxvWNqvduukuFHz9AAAAU/fckFTyuSVsh/5S4Q4zlPqJr1vjbGI//VX97AAAAE7uubDdkNR8HrST6lKpFw9DoMIdZmvLENWs4k2gIaoAAADTsS1szyrOi1st+PphEATuMEOpsnrNENWsrtRNd73g6wcAADixuum2nODOat8JbhgGLWVgDgyU6YWr7aRS7Q4AAHBMddPFQrLPrFtWnmlhIFS4wxy0k+p+/HK01lltpx8+AAAAeE3pOUrQm9cnwnYYDhXuMEeGqGbXhRAuOYIHAADwaoak9sLtdlKtlb4IMCQq3GGO2km1EUK4a82zqdLNIgAAAK+2I2zP6kEIYaPg64dBErjD/K2lSmvyuJhOGgAAAPAL6qbbDiFcsT7ZxCGpG05ow/AI3GHO0pflWvryJI/1uulUCQAAALxAel760NpktZbmwQEDI3CHDNKXpsA3r0/rplsteQEAAAB+Lg1J3bYwWV1rJ5V2qDBQhqZCRnXTXQ8hfGQPstlPQ1QfFnr9AAAAf5KGpMbno3NWJZtbaf4bMFAq3CGjdlLFwP22Pcgm3kTupptKAACA0t0RtmcVh6RuFXz9MAoCd8hvI32pksfFNHkfAACgWHXT7aTnI/KIJ7BXDUmF4RO4Q2aGqPbCldTeBwAAoDh108Wq6nU7n5WwHUZCD3foiTTA83P7kdXVdlKpdgcAAIrhWbQXPIvCiKhwh55IE8iv2o+sttNEfgAAgNFLzz+7djqrT4TtMC4q3KFnUt88R/ny6UIIlxzlAwAAxqxuuvNpSKq+7fncbSfVaqkXD2Olwh16pp1UhqjmVanwAAAACmBIal4P0jw3YGQE7tBPq6nSmjwup5MGAAAAo1M33XYI4YqdzWY/hLDhZDWMk8Adeih96a6lL2HyWK+bbsPaAwAAY5Kecz60qVnFsP1+wdcPo6aHO/RYuhH61B5l9Y9uhAAAgDFIQ1Jj3/ZzNjSba+2k2i702qEIKtyhx9Kk8hv2KKs7ddNdKPj6AQCAEUhDUneF7VndErbD+AncoefaSXU9hHDbPmUTb0Z3080pAADAUMXK9sruZROHpG4Veu1QFIE7DMNG+nImjzi5XxUCAAAwSHXT7aTnGvKI89lWDUmFMgjcYQDSl/KGIapZxSGq1wu+fgAAYIDSbLB1e5eVsB0KYmgqDEjddKshhM/tWVa/ayfVbsHXDwAADIRnyF64muazAYVQ4Q4D0k6q2HPvmj3LaidN9gcAAOituukupCGp5HNL2A7lUeEOA5T67zkSmE8XQrjkSCAAANBHddOdT0NS9W3P5247qVZLvXgomQp3GKB2UhmimlelUgQAAOgxQ1LzikVaayUvAJRM4A7DtWqIalaX00kDAACA3qib7noI4YodySY+p685EQ3lErjDQKUvb6F7Xutp4j8AAEB26fnkIzuR1UY7qe4XfP1QPIE7DFj6Et+yh1l9aogqAACQW3ou2bYRWd1oJ5X2o1A4Q1NhBOqmizdVH9rLbOIpgwuODAIAADmkIan307wp8riV5q0BhVPhDiPQTqpY5X7bXmZzLoRwJ93kAgAAzNsdYXtWD5w+B54RuMN4bKQvefK46PgmAAAwb3XT7aTnEfIwJBX4CwJ3GIn05b5hiGpWcYiqqgYAAGAu0pDUdaud1Wo7qR4WfP3AzwjcYUTSEFU94/L6uG66tZIXAAAAmL266VZDCJ9a6qyupudwgD8RuMPIpIno1+xrVjt1010q+PoBAIAZqpvuQghh1xpnFYek7hR8/cAvWDg6OrI2MEKpj5+jhfk8SEcL9fEDAACmpm6682lIqr7t+dxtJ9VqqRcPvJwKdxivLUNUs7qo4gQAAJiBbWF7Vl0cklrw9QOvIHCHkUqV1auGqGZ1uW667YKvHwAAmKK66a47yZxVfL5ec5IZeBktZWDkUi/xL+xzVlf19gMAAE6ibrpYVf2ZRczKsx3wSircYeTSxPSr9jmrTw1RBQAA3lR6nhD05nVD2A68DhXuUIjU2uRD+51NPHp4wdFDAADgONKQ1FhIVVm4bG63k0rfduC1qHCHQrSTKg5RvWu/szkXQriTbpYBAABe166wPasHIYSNgq8fOCaBO5RlLd0skMfFEIIhqgAAwGupmy62MLlstbIxJBU4NoE7FCTdJGykmwbyWK+bbsvaAwAAL1M3XXx2W7dIWcWw/WHB1w+8AT3coUCm2/fCB+2kulP6IgAAAH8tDUn9wtJkddWQVOBNqHCHArWTKvYAvGHvs9pNN9EAAAB/UjfdhTj/yYpkdUvYDrwpFe5QsNQP0BHFfGI//VX9AAEAgPDTM9r5FLZftCDZPGgnleIo4I2pcIeybRmimlW8iVY1AQAAPLMtbM+qi0VRBV8/MAUCdyhYqqxeM0Q1qyt1020XfP0AAMBP1e3XnUDOaj8NSXUCGTgRLWUAA3n6wUAeAAAoVN10sRDqM/uflWcyYCpUuAOx0v1+vLmwElltG6IKAADlSc8Bgt68bgjbgWlR4Q78iSGq2cUjjBccYQQAgDIYktoLt9tJtVb6IgDTo8Id+JN2Um2EEO5akWzOpZttAACgDLvC9qwehBA2Cr5+YAYE7sDPraXJ7ORxMZ00AAAARqxuuu0QwmV7nE08YbzhhDEwbQJ34C+km421dPNBHut1021ZewAAGKe66WJV9Ye2N6u1NM8MYKr0cAdeyJT8XvignVRazAAAwIikIalf2NOsrrWTarvg6wdmSIU78ELtpIq9BG9Ynax20804AAAwAs8NSSWfW8J2YJZUuAMvVTddDN6vWKVs4hCfVX0FAQBg2J4L2w1JzedBO6kUNQEzpcIdeJWNFPqSR7wZN0QVAACGb1vYnlWcU7Za8PUDcyJwB17KENVeuFI33fXSFwEAAIaqbrqtEMK6Dcxm38lhYF60lAFeS910sRLgc6uV1dV2Uql2BwCAAambLhYwfWbPsvIsBcyNCnfgtbSTKvYavGq1sto2RBUAAIYj3b8LevP6RNgOzJMKd+BY6qbbcRQyqy6EcMlRSAAA6DdDUnvhdjup1kpfBGC+VLgDx9JOKkNU86rSTTsAANBvu8L2rOJz60bB1w9kInAH3sRqqrQmj4vppAEAANBDddNthxAu25ts4pDUDSeDgRwE7sCxpZuWtXQTQx7rddOp1gAAgJ5J9+kf2pes1tpJdb/g6wcyErgDbyTdvGxZvaw+rZtuteDrBwCAXklDUrftSlbX2kmlDSeQjaGpwInUTXc9hPCRVcxmPw1RfVjo9QMAQC+kIanxvvycHcnmVpo7BpCNCnfgRNpJFQP321Yxm3gzv5tu7gEAgHzuCNuzeuAUNtAHAndgGjbSzQ15XAwhGKIKAACZ1E23k+7LySOe/F01JBXoA4E7cGLppmbDENWsrqT2PgAAwBzVTRerqteteVbCdqA39HAHpiYN8PzcimZ1tZ1Uqt0BAGAOPAP1gmcgoFdUuANTkybBX7OiWW3XTXep4OsHAIC5SPfdu1Y7q0+E7UDfqHAHpi71L3SkMp8uhHDJkUoAAJiNuunOpyGp+rbnc7edVKulXjzQXyrcgalrJ5UhqnlVKm0AAGCmDEnNKz5vrpW8AEB/CdyBWVk1RDWry+mkAQAAMEV1022HEK5Y02zic+aGE71AXwncgZlINz9C97zW66bbKHkBAABgmtL99YcWNasYtt8v+PqBntPDHZipdEP6qVXO6h/dkAIAwMmkIamxb/s5S5nNtXZSbRd67cBACNyBmUtHLlWB5LOfhqg+LHUBAADgJNKQ1IfC9qxupXlhAL2mpQwwc+2k2goh3LbS2cSHgt30kAAAAByfyva84pDUrZIXABgOgTswLxvpJok8LoYQHL0EAIBjqptuJ91Pk0c8sbtqSCowFAJ3YC7SzdGGIapZxSGq1wu+fgAAOJY0k2rdqmUlbAcGRQ93YK7qplsLIXxm1bP6XTupdgu+fgAAeKW66VZDCJ9bqayutpNqp+DrBwZIhTswVynovWbVs9qpm+5SwdcPAAAvVTfdhTgHySpldUvYDgyRCncgi9QH0dHMfLoQwiVHMwEA4C/VTXc+DUnVtz2fu+2kWi314oFhU+EO5LJliGpWlYodAAB4IUNS84rFQWslLwAwbAJ3IItUWb1qiGpWl9NJAwAA4Kfq9ushhCvWIpv4fLjmJC4wZAJ3IJvnQnfyWa+bbsP6AwBQunRf/FHp65DZRjup7he9AsDgCdyBrNLN1FW7kNWnhqgCAFCydD+87U2Q1Y12Uml7CQyeoalAL9RNF29uP7Qb2cSjmxcc3QQAoDRpSOr9NOeIPG61k8rJW2AUVLgDvdBOqjhE9a7dyOZcCOFOetgAAICS3BG2Z/UghLBV8PUDIyNwB/pkLd1skcdFx2gBAChJ3XQ76T6YPAxJBUZH4A70RrrJ2kg3XeQRh6iqLgEAYPTSkNR1O53VajupHhZ8/cAICdyBXklDVPXuy+vjuunWSl4AAADGrW661RDCp7Y5q6vp+Q9gVATuQO+kyfQ37ExWO3XTXSr4+gEAGKm66S6EEHbtb1ZxSOpOwdcPjNjC0dGR/QV6KfVTdMQznwfpiKd+igAAjELddOfTkFR92/O5206q1VIvHhg/Fe5An20ZoprVRZU/AACMzLawPasuDkkt+PqBAgjcgd5KldVrhqhmdbluuu2Crx8AgJGom+66E7RZxee6NSdogbHTUgbovdRL/As7ldVVPRYBABiquuliIc9nNjArzxRAEVS4A72XJtdftVNZfWqIKgAAQ5TuYwW9ed0QtgOlUOEODIYhqtnFI6AXHAEFAGAo0pDUWMBT2bRsbreTSt92oBgq3IHBaCfVRpxob8eyORdCuJMeWgAAYAh2he1ZPQghbBR8/UCBBO7A0KylyfbkcTGEYIgqAAC9l07IXrZT2RiSChRJ4A4MSrpZW0s3b+SxXjfdlrUHAKCv6qbb0I4yuxi2Pyx8DYAC6eEODFLddDF0/8zuZfVBO6nuFHz9AAD0UBqS+oW9yeqqIalAqVS4A4PUTqrYi/GG3ctqNz3MAABAL9RNdyHOHbIbWd0StgMlU+EODFrddDF4v2IXs4lDkFb1ZQQAILc03P9OmjtEHg/aSaUoByiaCndg6DZS6Ese8WFG9QoAAH2wLWzPqovFOAVfP8CPVLgDg5eOjd4PIZyzm9l80k6qQQ5SXdnci5VQL6rCefbPv07vr79y7+ay48oAAC+wsrkX79EvvOD/ayb3WHXTXQ8hfGQvstlPJ19fuKcAJRG4A6NQN12spPjcbmbVy8FIK5t7l9LD3rP/vpAe9KZd/XQ3/fed5/774b2byw+n/O8BAMhuZXNv9bl7q1ndY+0/F8rfeS6k/4t7rLrp1kIIn3lXZGVIKkAicAdGo2662F7mUzuaTfaqlvTgt/pcuN6XI8UxjH+YHhDv3Lu5rPIHABiE504DPrvHiv+pevLa7y4uhP/17pmD+u3Fo789syjfyORGO6muF3nlAC8gcAdGpW66WFWxbleziaH7hXkMUU0Pf6vP/Wdo/TrvpkqtO1rTAAB9kVrBPF/EMJh7rIUQHp9ZPHr0q6XD/+2dU4d/I4Cfi9vtpFor4DoBXpvAHRiduunuG5aU1YN2Ur2oJ/qJpfYwa+k/Y9rj/RS+76YAXhsaAGBu0j3WRhhmEcMvigH82VOHMYB/71enDs8uLvT0hQ7Xg3TCdebFNgBDInAHRqduuvOpdUdfjrqW6FY7qTamcd3PPQCuFbSn8eElntbYFb4DALOwsrm39lwhw7kSFvn04tG//nrp8J3fLD39G+H7iRmSCvALBO7AKNVNdylVDBfx8NBT19pJtf0mLy0dZd4qLGT/JTF8307hu+ohAOCNPVfIsFH6ffJbi0f//JvTT1W+v7kP2kmlLSLACwgTrf6pAAAc1ElEQVTcgdEyRLUXjnUjvrK59+wB8PK4l+WN3YqV73q+AwCvK829eXaPpe3iz8S2M++cOvyvvznz9H0931/bGxfWAJRA4A6MWt10cVr+R3Y5m1ceNU3V7Bupot2JhNfThRCuq3oHAH5Juse6XlLLmJM6s3j05bnTT3/z66XDs8O+kpmaWutIgLESuAOjVzddHER5xU5n88JhSs89BK6XtRxTtZ/azWwL3gGA8NM91mq6x3Ji8A0tLoT986efHur1/lcetJPqUs9eE0DvLNkSoAAbqZ+7I7R5XEwDQGN1lYfA6TqXTnBsrWzuCd4BoGDusabn8Cic++r7U+EP3596fO700+/Pn356TvD+08nVHrwOgN5T4Q4UwRDV/L47XPjk3x6fvuQhcKZUvANAYQTtsxf7vBcevL+yTSQAfyZwB4pRN118GPncjs/XwdFC+M8np7785uni+yVdd2aCdwAYuZXNvUvp+17QPicLIXz33lsHRwX2eL/aTqqdHrwOgEEQuANFqZsuDub82K7P3uFRCF//cGr/6x9OOVWQz4/DVe/dXPaABAAjsbK5dz4F7ebgZBJ7vL//1sG5s6cOS7jcT9pJtdWD1wEwGAJ3oDh10+14QJmtbw4Wv/3990s/xP6XY77OAbkb+7zfu7nsGDAADNjK5t5Wah/jHqsHzp46fPTbt56+t7Qw2lzldjup1nrwOgAGReAOFKluuvuGqE5fbB/z798tPfr+cOG9sV3bSNzQZgYAhie1j9lx/9o/CyF8++6Zp4vnTj99e2SX9iD1bXffCHBMixYMKNRq6nPNlOz/cOq7f/729LfC9l77KIRwPw1XAwAGYGVzL1a0fyFs76ejEN75z+9Pvf1P356ORSdjuaz4nLQhbAd4MyrcgWLVTRcrhe44knsyqtoH65PU392DFAD0kKr2YTp/+un+u2eeDv354oN2Ut3pwesAGCQV7kCx2kkV28oYAHQCfzxYfKyqfbA+jD84pYd5AKBHVLUP19c/nDr3L49PP4pFKQN1TdgOcDIq3IHi1U23ncJHXtPhUQhfPll69PjpoqB9HK7du7m8XfoiAEBuK5t750MIuyGEyzZj2BZCePx3bx0c/Wrp8J0BXcitdlJt9OB1AAyawB3gp9A9PthcsRavFntTxhYyB0eq2kfmduzVqcUMAOSRZqzsanc4Lr9eOnz027cOhnDfbEgqwJRoKQPwk410k8lLxBYy//r49LfC9lG6osUMAOSxsrkX2xx+Lmwfnz8eLL73T9+e/uqw37WO+8J2gOlR4Q6QGKL6cr9/svQoPjD0+TUyFfup0n3XcgLAbKUWMrGt27qlHreFEL77+7M/vH1msZcZzD+m+VYATIEKd4Ak3WTqWfgzsRpn7zthe0HiD06fpUo7AGBGUth+R9hehqMQ3v6Xx6d/PDHaswu+KmwHmC6BO8Bz2kkVq3qvWZOfxLD9Xx6f/spw1CJ9vLK5t1P6IgDALKQWbg9DCBctcFl+/2Tp7Fffn9rvyUV/0k4q93sAU6alDMAL1E23U3q1URyO+q+PT38Xq3F68HLIxzBVAJiiFLZrY1i4Xy0dfvX+WwfvZlyFu+2kWi19HwBmQYU7wIttlTxENYXtj4XtPDdM9bzFAICTWdnci+0LvxC2883B4rtfPln6KtNCxOecteI3AWBGVLgD/IK66c6no75FPRA9F7af7cHLoT/ig9mqSncAeDMpbP/U8vG8pYWjr/772R/eXVyY27LEdjar+rYDzI4Kd4Bf0E6qGCwWdcxS2M5LXFTpDgBvRtjOLzk4Wng3zkw6nF8t5IawHWC2BO4AL5FuRq+WsEbCdl6D0B0AjknYzqvMMXS/1k6qXRsCMFsCd4BXSJP7PxnzOgnbOQahOwC8JmE7r2sOofutdlJt2xCA2RO4A7yGdlLFIap3x7hWwnbegNAdAF5B2M5xxdD999/PZJBqnMWzZUMA5kPgDvD61tLN6mgI2zmBH0N3CwgAf21lc+9SCEE1Mcf2zcHiu18+mWro/mxIqsH3AHMicAd4TekmdSPdtA5ePK76b9+d3he2cwIXVzb3diwgAPxZCtvjj9LnLAtvIobuv3+y9GhKiydsB5gzgTvAMaQhqhtDX7MYtqcekR4EOan1lc09FXwA8FPYHtut7QrbOak/Hiy+98eDxccn/J+5mp5fAJgjgTvAMaXJ/jeGvG6xN2TsEdmDl8I4fJj61AJAsVLYHivbK+8CpuH3T5bOPn76xrHNJ+2kchIRIAOBO8AbaCfV9Tjpf4hr99X3p/bjMdUevBTG5dN0hB4ASrWdZpzA1Pz7d0uPD44Wjvs/d7edVIakAmQicAd4c1tDG6L6zcHit1//cMoRZ2blTqruA4CirGzuxfvCdbvOtMV5S//2eCm2gnxdXQhhzUYA5CNwB3hDafjQ2lCGqMbKmP94snTs8hg4hnOpby0AFCOd8PrYjjMrsRVkbAn5Gv/z8blkzZBUgLwE7gAn0E6qh3Hy/xDWMFbGxAqZHrwUxu2yIaoAlOK5vu0wU7El5GsMUd0wJBUgP4E7wAmlm9qrfV7H3z9ZemRIKnMUh6gO4ocoADihnXTCC2bu0ZOlo+8Pf/HA6o12UjlpCNADAneAKWgn1U5fh6jGvu1/PFh8rwcvhbLs6ucOwJilvu1XbDLzchTCO//+3dKjF/zrbrWT6rqNAOgHgTvAlLSTaiOEcLdP6xmHK/3HkyWf9eRwLlX9AcDopL7tAk7m7uBo4b14evW5f++DEMKWnQDoDyEMwHTFIapdX9b0yydLj45CeLsHL4UyXVnZ3Fuz9wCMkFYyZBNPrz5++mOcY0gqQA8J3AGmKN3srqWb36xiK5nHT7WSIbsdrWUAGJOVzb1Y2X7RppLTl0+W/vD46eL/bCfVQxsB0C8Cd4ApS0NUN3Kuq1Yy9IjWMgCMxsrm3oUQwkd2lNwOj8Lf7H239H/ZCID+EcYAzEA7qXZDCDdyre3vnyx9qZUMPaK1DABj4Udk+uTDNE8AgB4RuAPMSDup4nHj2/Ne39jP8Zuni+/bV3pmW2sZAIZsZXMvnmC8bBPpmW0bAtAvAneA2YoPZg/muca/f3LqkT2lh6oQwpaNAWCI0o/Ggk366HL6MQiAnhC4A8zQvIeo/vFg8fHB0YJBqfTVR6n3LQAMzVaaSwJ95CQhQI8I3AFmrJ1UD1PoPlNxUOqjJ0sL9pOeu26DABgSg1IZgHNOEgL0h8AdYA7aSXUnhHB1lv+mr384tW9QKgOwvrK5t2qjABgQPxYzBFtOEgL0g8AdYE7aSbUTQrg1i39brG7f/+HUGXvJQAguABiElc29S/HHYrvFAJxzjwXQDwJ3gDlqJ9VMhqj+5/dLj45COGsvGYjLqtwBGAiDUhmSdVXuAPkJ3AHmLwaN3bT+rQdHC3FYqkGpDI0KLAB6Lf04fNkuMTDusQAyE7gDzFk7qb5OQ1T3///27mY3riM9A3D1D0nRsk3ZluN0AoO6AwloIFsxVyDNImvLuYAeeZnVyCstQ/cNRFprI11BqAtoRLwDCsGg4YkxFj2xNZbI7uBoShOPIVt/dc6pc+p5AEHwxqbra4BVb3/1VYr/8ndPh0n+PdAwXe4A5M4jlHSRLneAlgncAVpw5+bugxSHOLPb6TgdWABkKQaWV1SHjrLHAmiRwB2gJfER1S/f5r/+6Ono2Ox2OuxyfIwOAHIjsKTLqi73cyoI0A6BO0CL7tzcrQ5z9970J9DdTg+4rg9AVmJQ+Zmq0HH2WAAtEbgDtO9aCOHwdX+KP50MH+tupwd0YAGQG0ElfeBzDNASgTtAy+Ijqtde9xHVb5+Mvlc7esKBEICcXFMNemBnOlv6LAO0QOAOkIH4iOrVV/1JnqwG4WQ9OK929ITDIABZiAHlrmrQE/ZYAC0QuANk4s7N3YMQwhev8tN8+2T0tbrRI7vT2fKVv3ACgBr5fUSfVA/UX1BRgGYJ3AEycufm7n4I4fbLfqIfTofvqxs9I+AAoFUxmLyiCvSM0X0ADRO4A2Tmzs3dX31E1WOp9JTHUwFomy9/6SOfa4CGCdwB8rT3S4+ofvd09I2a0VMOhAC0ybxr+sjoPoCGCdwBMnTn5u6jF4Xuq3UIP64Gn6oZPeUwCEArprPlpRDCRatPT9ljATRI4A6QqTs3dx/8fObi96fDx+pFj10xVgaAlggk6TOfb4AGCdwBMnbn5u6tEMJXz39C42QogAMhAG3w+4c+2zFWBqA5AneAzN25uVt1ud+rfkrjZCiAwyAAjZrOlheMk6EAe4oM0AyBO0A3XPvfk+GRWlEAh0EAmubLXkrgcw7QEIE7QAdUj6j+4cfxPbWiANWVZ6E7AE3ye4cS7MbbHADUTOAO0B26UiiFzzoATbpitSmEPRZAAwTuAB0Qu1F21YpC6DQEoBFuVVEYn3eABgjcAbrB5piSXJzOludUHIAG2GNREp93gAYI3AG64ZI6URifeQCaIICkJNVbOfZYADUTuAN0g8MgpfGZB6AJwkdK4zMPUDOBO0A3XFQnCiNwB6BWsdN3xypTGHssgJoJ3AEy5zEvCqX7CoC6+V1DiXzuAWomcAfIn00xJapmjF5QeQBqZI9FidycBaiZwB0gfw6DlErgDkCd7LEokhu0APUSuAPkT+hIqRwGAaiTwJ1SOV8A1GhscQGyd1mJKNE7o9W//su/Pfyd4gOQ2mpd/Qs3rSulErgD1EiHO0DGzLCmZE/Xg5UPAAB1+HHlKEzR3CIEqJFdBkDeBO4U6+lqsKv6ANThZB0eW1gAoA4Cd4C8CdwBABJ7shr8wZpSMCMrAWokcAfIm8Cdoj0+tVUBIL2nq4FfMABALWwyAPJ2Tn0AANLyTgilm86W5rgD1ETgDpC3S+pDyczYBQAAoEsE7gBAtszYBaAOHuYGN2kB6iJwB8ibGe4AAEBqbtIC1ETgDpA33VcUbbUejEtfAwAAALpD4A4AZOvPq8GJ6gCQ0mptOQGA+gjcAQAAKMaPK8dgAKA+dhoAAAAAZdlTb4B6CNwBAAAAACABgTsAAAAAACQgcAcAAAAAgAQE7gAAAAAAkIDAHQAAAAAAEhC4AwAAAABAAgJ3AAAAgLIcqDdAPQTuAAAAFGNjuFZsAKA2AncAIFsbg7W9CgBJjQcCdwCgPg6xAHk7Vh9KtjFcr3wAAAAA6AqBO0DeHqgPAACQ2JEFBaiHwB0AyNZoEN5XHQBSGw3WX1tUCidwB6iJwB0gbzbCFG1ruP6g9DUAIL3hIPzZsgIAdRC4A+RN4A4AkNjQWRiMrgSoiU0GQN4eqQ8l2xp6MxWA9M6MVn7BULTFfOKcAVATgTtA3nSeULThoPQVAKAO3gihcIelLwBAnQTuAHnTeUKxPGgHQF28EULhnDEAaiRwB8jYYj7R4U6xxoPwRPUBqMPGcG1dKdmB6gPUR+AOkD9XPimS+boA1GU8ELhTNB3uADUSuAPk70iNKNGZ0XpX4QGoy8Zw/dDiUii3aAFqJHAHyJ8NMUXa0H0IQI02BmvnYYq0mE+MlAGokQ0GQP5siCnSpvm6ANTozGj9rvWlQG52ANRM4A6QPx3uFMc1fwDqtjVcf2CRKZCzBUDNBO4AmVvMJ490olCaM8P1WNEBqNP2yNvcFMntWYCaCdwBukEnCkV5Z7z6RxUHoG5uVFEg5wqAmgncAbpBJwpF2TK/HYAGuFFFaTyYClA/gTtAN9gYU4zhIHw7HgjcAaifG1UU5r6CA9RP4A7QAYv5pLr6eaxWlODsaPWDQgPQhO2hOe4URRMPQAME7gDdcVetKIFuQwCaMhw8m+P+ewtOIZwnABogcAfoDh0pFEG3IQBNem+8eseCU4DjeGsWgJoJ3AG6Q0cKvVd1GVbdhgDQlHdGqw8sNgVwlgBoiMAdoCMW88mjEMKhetFnugwBaNrmcP3swW4LT88J3AEaInAH6JZb6kWfvTvWZQhA886OVqeWnZ4znhKgIQJ3gG7RmUJvjQfrb8aDtQID0LidjdPzVp0euxdvywLQAIE7QIcs5pMjY2Xoq/c3ViPFBaANxsrQc5p2ABokcAfoHmNl6CXjZABok7Ey9NTxYj5xfgBokMAdoHtsmOmdreH6v42TAaBNH2waK0Mv6W4HaJjAHaBj4vzFe+pGn7xvdi4ALau++K3eE1EHekazDkDDBO4A3WTjTG8MQnj83ni1raIAtO2DzdOzikCPPFzMJwcKCtAsgTtABy3mk+pq6EO1ow/eHa++V0gAcnB2tNquvghWDHpiXyEBmidwB+guXe70gpm5AORiOAjhndHqOwWhB46dFwDaIXAH6K79uJGGzvJYKgC5+Wjr9BNFoQfuxrefAGiYwB2go+IG+q760WUfbp5+qoAA5KT6Irj6QlhR6LgbCgjQDoE7QLfZSNNZm8P119ujlQICkB1fCNNx9xbzyZEiArRD4A7QYXEjfVsN6aKdjdP3FQ6AHFVfCFdfDCsOHeWxVIAWCdwBuk+XO50zHITj98arbZUDIFcfbZrlTifdX8wnB0oH0B6BO0DH6XKniz7aPNlUOABypsudjtKMA9AygTtAP9hY0xnjwfob3e0AdIEudzpGdztABgTuAD2gy50u+Xjr9LyCAdAFutzpGE04ABkQuAP0hw022atCiyq8AICu+LutE13udMFt3e0AeRC4A/RE7HL/Uj3JmdACgK7ZHK7D2dFKlzs5O9Z8A5APgTtAv+zHDTdkpworqtACALrm462TTwYhPFY4MrUfm28AyIDAHaBHFvPJoxDCdTUlN1VI8bHudgA6ajgIYWfj9In6kaGHsekGgEwI3AF6ZjGf3Aoh3FdXcvLh5umgCisAoKs+3DzdGQ/W3yggmbkem24AyITAHaCfrqkrudgcrr/Z2Tg9oyAAdN3HW6fnFZGM3FvMJ3cVBCAvAneAHvKAKjn5+zMnwgkAemF7tArvjVe63MnBsSYbgDwJ3AF6ajGf3AghHKovbTq3cXo8HngoFYD++Gjz5Pxw4JF6WnfDKBmAPAncAfpN1wutGQ/Wf6zm3aoAAH1SvUnyydaJ32+0qRol46FUgEwJ3AF6bDGfPAghfKHGNG0Qwg//sH3yoYUHoI+q0TLVLS7FpQVGyQBkTuAO0HOx++W+OtOk81snA6NkAOiz6hZXdZtLkWnYNaNkAPImcAcow9XYDQO1Ozte/fG98WrbSgPQd9VtrkEIjxWahny1mE/uWmyAvA3Wa91nACWYzpZ7IYT/VGzqNByEo0+3n/x+NAgnFhqAEvzpZLj9Pz+O/0mxqdnhYj65ZJEB8idwByjIdLa8HkL4dzWnJtUtir34dgAAFGM6W1Yj/H6r4tSk2mNdMEoGoBsE7gCFmc6Wt0IIn6k7NfiNa84AlGo6Wx6EEC77AFCDf17MJwcWFqAbzHAHKE/V5X6o7iT2pbAdgMJdtceiBp8L2wG6RYc7QIGms+W5EMJRCGFH/Ung9mI+uWYhASjddLasZmwf2GORiD0WQAcJ3AEK5UBIIh7wAoCfiHus/7ImvCVhO0BHGSkDUKj4sOVV9ectVNfm9ywgAPy/uMf63JLwFg7jGEgAOkjgDlCwOA/SgZA38bAK2xfzySOrBwB/azGf3LLH4g0d2mMBdJvAHaBwDoS8gePqdoSDIAD8srjH+sIS8RqE7QA9YIY7AM9MZ8tqRuR/WA1e4jgeBB9YKAB4uelsWQXvn1kqXqK6PXhJ2A7QfTrcAXhGpzuvQNgOAK8pPnx527rxKw7dHgToD4E7AH8ldOdXCNsB4A3F0P1L68cLHNpjAfSLwB2AvyF05wUcBAHgLS3mkxv2WPyMme0APWSGOwAvFGe674cQdqxQ0RwEASAh7+YQ2WMB9JQOdwBeKHa678VRIpTpvoMgAKQV91i/sccq2m17LID+0uEOwK+azpaXQgjVwfCilSrK7ThvFgCoQdxjHbhNWJyvFvPJ9dIXAaDPBO4AvNR0tjwXQrgbQrhstYrwxWI+2S99EQCgbnGPdaCxoRifxxsOAPSYwB2AVzadLasQ9rdWrLeqq+1XF/PJQekLAQBNms6WVQj7mUXvrWMP0AOUwwx3AF5ZvP5q5mg/VQ93XRK2A0Dz4hi3zy19L1Vv4lwQtgOUQ4c7AK/NXPfeMUsUADIQ91jVGL9d9eiFLxfzyY3SFwGgNAJ3AN6YETOdV91UuLaYT+6WvhAAkIs4133fiJlOM6YPoGACdwDeynS23Ivd7jqxuuV+PAg+Kn0hACBH09nyatxj7ShQp9yLDQ32WACFErgD8NZ0YnVK1XF1YzGf7Je+EACQu7jHqkL3K4qVPTcHAXhG4A5AMrrds1d1XF1fzCdHpS8EAHSJbvfs3Y57LF3tAAjcAUgrdmJVD3D+ztJm42E8BOq4AoCOinusG97PycrD2NVuVjsAfyVwB6AW09nyQuzEumyFW3McR/3s67gCgH6YzpaX4u93e6z2HMf91Y1SFwCAXyZwB6BWccxMdSi8aKUbdTvOajc+BgB6KI6Z2TfKr3HGxwDwqwTuADRiOltei9egHQrrdT8eAh/0+X8SAPgLe6zGaGYA4JUI3AFolENhbe7HQ6AZogBQIHus2gjaAXgtAncAWuFQmMztOENURzsAYI+VjqAdgDcicAegVXHG+/UQwhWVeGXH8UHafYdAAOBF4oz36x5XfS3PH5y/ZY8FwJsSuAOQhelseSEeCquurB1VeaHDeAi866EuAOBVxD1W1fF+1R7rF92PIfutTH8+ADpE4A5AdmJH1jVd788872a/ZWwMAPCmprPluRi6X7XHeuZh1cTgxiAAqQncAchWwQfD43gArDrZ72bw8wAAPRK73p83OFwsqLbP91i3PDQPQF0E7gB0ws/C970eXol+3mV1IGQHAJoSw/e9Hjc4VCP5DtwWBKApAncAOik+tvr8TxcfAzuOh7/nIburzABA63qwx3oY91gH9lgAtEHgDkAvxMPhpZ/8ye16dPUY14P4x+EPAOiEn+yxnv+9m9HPffzT/VX1tz0WAG0TuAPQW/GAeCH+qQ6I5+LfdY2jqTqqjuKh71E8+B05+AEAfdLCHusw7q3ssQDInsAdgCLFmfCXfvL/vvca6/D8wPeMR7cAAP4izoS/EP/x5/utlzmKf56xxwKgiwTuAAAAAACQwNAiAgAAAADA2xO4AwAAAABAAgJ3AAAAAABIQOAOAAAAAAAJCNwBAAAAACABgTsAAAAAACQgcAcAAAAAgAQE7gAAAAAAkIDAHQAAAAAAEhC4AwAAAABAAgJ3AAAAAABIQOAOAAAAAAAJCNwBAAAAACABgTsAAAAAACQgcAcAAAAAgAQE7gAAAAAAkIDAHQAAAAAAEhC4AwAAAABAAgJ3AAAAAABIQOAOAAAAAAAJCNwBAAAAACABgTsAAAAAACQgcAcAAAAAgAQE7gAAAAAAkIDAHQAAAAAAEhC4AwAAAABAAgJ3AAAAAABIQOAOAAAAAAAJCNwBAAAAACABgTsAAAAAACQgcAcAAAAAgAQE7gAAAAAAkIDAHQAAAAAAEhC4AwAAAABAAgJ3AAAAAABIQOAOAAAAAAAJCNwBAAAAACABgTsAAAAAACQgcAcAAAAAgAQE7gAAAAAAkIDAHQAAAAAAEhC4AwAAAABAAgJ3AAAAAABIQOAOAAAAAAAJCNwBAAAAACABgTsAAAAAACQgcAcAAAAAgAQE7gAAAAAAkIDAHQAAAAAAEhC4AwAAAABAAgJ3AAAAAABIQOAOAAAAAAAJCNwBAAAAACABgTsAAAAAACQgcAcAAAAAgAQE7gAAAAAAkIDAHQAAAAAAEhC4AwAAAABAAgJ3AAAAAABIQOAOAAAAAAAJCNwBAAAAACABgTsAAAAAALytEML/AeU7kdBx3zyvAAAAAElFTkSuQmCC;" parent="1" vertex="1">
          <mxGeometry x="650" y="-80" width="89.94" height="90" as="geometry" />
        </mxCell>
        <mxCell id="c-DlsIj0Viizq32SzEkp-21" value="" style="sketch=0;html=1;dashed=0;whitespace=wrap;fillColor=#2875E2;strokeColor=#ffffff;points=[[0.005,0.63,0],[0.1,0.2,0],[0.9,0.2,0],[0.5,0,0],[0.995,0.63,0],[0.72,0.99,0],[0.5,1,0],[0.28,0.99,0]];shape=mxgraph.kubernetes.icon;prIcon=deploy;labelPosition=right;verticalLabelPosition=middle;align=left;verticalAlign=middle;" parent="1" vertex="1">
          <mxGeometry x="233" y="111" width="50" height="48" as="geometry" />
        </mxCell>
        <mxCell id="c-DlsIj0Viizq32SzEkp-57" style="edgeStyle=orthogonalEdgeStyle;rounded=1;orthogonalLoop=1;jettySize=auto;html=1;entryX=0.502;entryY=0.074;entryDx=0;entryDy=0;entryPerimeter=0;fontColor=#000000;strokeColor=#666666;exitX=0.966;exitY=0.617;exitDx=0;exitDy=0;exitPerimeter=0;curved=0;" parent="1" source="c-DlsIj0Viizq32SzEkp-25" target="c-DlsIj0Viizq32SzEkp-10" edge="1">
          <mxGeometry relative="1" as="geometry" />
        </mxCell>
        <mxCell id="c-DlsIj0Viizq32SzEkp-25" value="" style="sketch=0;html=1;dashed=0;whitespace=wrap;fillColor=#2875E2;strokeColor=#ffffff;points=[[0.005,0.63,0],[0.1,0.2,0],[0.9,0.2,0],[0.5,0,0],[0.995,0.63,0],[0.72,0.99,0],[0.5,1,0],[0.28,0.99,0]];shape=mxgraph.kubernetes.icon;prIcon=deploy;labelPosition=left;verticalLabelPosition=middle;align=right;verticalAlign=middle;" parent="1" vertex="1">
          <mxGeometry x="391" y="110" width="50" height="48" as="geometry" />
        </mxCell>
        <mxCell id="c-DlsIj0Viizq32SzEkp-29" style="edgeStyle=orthogonalEdgeStyle;rounded=0;orthogonalLoop=1;jettySize=auto;html=1;entryX=0.036;entryY=0.628;entryDx=0;entryDy=0;entryPerimeter=0;dashed=1;dashPattern=1 1;strokeColor=#666666;" parent="1" target="c-DlsIj0Viizq32SzEkp-10" edge="1">
          <mxGeometry relative="1" as="geometry">
            <mxPoint x="670" y="270" as="sourcePoint" />
            <mxPoint x="692.25" y="229.22400000000016" as="targetPoint" />
            <Array as="points">
              <mxPoint x="670" y="230" />
            </Array>
          </mxGeometry>
        </mxCell>
        <mxCell id="c-DlsIj0Viizq32SzEkp-33" style="edgeStyle=orthogonalEdgeStyle;rounded=0;orthogonalLoop=1;jettySize=auto;html=1;dashed=1;dashPattern=1 1;strokeColor=#666666;entryX=0.04;entryY=0.565;entryDx=0;entryDy=0;entryPerimeter=0;" parent="1" target="c-DlsIj0Viizq32SzEkp-12" edge="1">
          <mxGeometry relative="1" as="geometry">
            <mxPoint x="620" y="270.5" as="sourcePoint" />
            <mxPoint x="690" y="271" as="targetPoint" />
            <Array as="points">
              <mxPoint x="650" y="271" />
            </Array>
          </mxGeometry>
        </mxCell>
        <mxCell id="c-DlsIj0Viizq32SzEkp-34" style="edgeStyle=orthogonalEdgeStyle;rounded=0;orthogonalLoop=1;jettySize=auto;html=1;dashed=1;dashPattern=1 1;strokeColor=#666666;entryX=0.026;entryY=0.616;entryDx=0;entryDy=0;entryPerimeter=0;" parent="1" target="c-DlsIj0Viizq32SzEkp-11" edge="1">
          <mxGeometry relative="1" as="geometry">
            <mxPoint x="619.77" y="270.5" as="sourcePoint" />
            <mxPoint x="680" y="325" as="targetPoint" />
            <Array as="points">
              <mxPoint x="670" y="270" />
              <mxPoint x="670" y="324" />
            </Array>
          </mxGeometry>
        </mxCell>
        <mxCell id="c-DlsIj0Viizq32SzEkp-46" style="edgeStyle=orthogonalEdgeStyle;rounded=0;orthogonalLoop=1;jettySize=auto;html=1;entryX=-0.004;entryY=0.444;entryDx=0;entryDy=0;strokeColor=#666666;entryPerimeter=0;" parent="1" source="c-DlsIj0Viizq32SzEkp-32" target="oUWiN9TWW6F-JH5Mjuff-2" edge="1">
          <mxGeometry relative="1" as="geometry">
            <mxPoint x="575.0000000000282" y="270.5" as="targetPoint" />
            <Array as="points">
              <mxPoint x="495" y="271" />
            </Array>
          </mxGeometry>
        </mxCell>
        <mxCell id="c-DlsIj0Viizq32SzEkp-32" value="&lt;font style=&quot;font-size: 13px;&quot; color=&quot;#000000&quot;&gt;Kyma &lt;br&gt;Eventing&lt;/font&gt;" style="outlineConnect=0;dashed=0;verticalLabelPosition=bottom;verticalAlign=top;align=center;html=1;shape=mxgraph.aws3.queue;fillColor=#1ba1e2;strokeColor=#006EAF;fontColor=#ffffff;" parent="1" vertex="1">
          <mxGeometry x="367" y="246.5" width="73.5" height="48" as="geometry" />
        </mxCell>
        <mxCell id="c-DlsIj0Viizq32SzEkp-79" style="edgeStyle=orthogonalEdgeStyle;rounded=1;orthogonalLoop=1;jettySize=auto;html=1;fontColor=#000000;strokeColor=#666666;curved=0;" parent="1" source="c-DlsIj0Viizq32SzEkp-37" target="c-DlsIj0Viizq32SzEkp-2" edge="1">
          <mxGeometry relative="1" as="geometry">
            <Array as="points">
              <mxPoint x="416" y="-210" />
            </Array>
          </mxGeometry>
        </mxCell>
        <mxCell id="c-DlsIj0Viizq32SzEkp-80" value="targets" style="edgeLabel;html=1;align=center;verticalAlign=middle;resizable=0;points=[];fontColor=#000000;fontSize=12;" parent="c-DlsIj0Viizq32SzEkp-79" vertex="1" connectable="0">
          <mxGeometry x="-0.147" y="3" relative="1" as="geometry">
            <mxPoint x="1" y="-13" as="offset" />
          </mxGeometry>
        </mxCell>
        <mxCell id="c-DlsIj0Viizq32SzEkp-37" value="" style="sketch=0;html=1;aspect=fixed;strokeColor=none;shadow=0;align=center;verticalAlign=top;fillColor=#3B8DF1;shape=mxgraph.gcp2.bucket_scale" parent="1" vertex="1">
          <mxGeometry x="638.58" y="-240" width="86.42" height="70" as="geometry" />
        </mxCell>
        <mxCell id="c-DlsIj0Viizq32SzEkp-38" value="scaledObject CR" style="text;html=1;align=center;verticalAlign=middle;resizable=0;points=[];autosize=1;strokeColor=none;fillColor=none;fontSize=13;" parent="1" vertex="1">
          <mxGeometry x="725" y="-230" width="120" height="30" as="geometry" />
        </mxCell>
        <mxCell id="c-DlsIj0Viizq32SzEkp-44" value="" style="shadow=0;dashed=0;html=1;strokeColor=none;fillColor=#666666;labelPosition=center;verticalLabelPosition=bottom;verticalAlign=top;align=center;outlineConnect=0;shape=mxgraph.veeam.magnifying_glass;pointerEvents=1;" parent="1" vertex="1">
          <mxGeometry x="500.00000000000006" y="259.25" width="45.33" height="43.5" as="geometry" />
        </mxCell>
        <mxCell id="c-DlsIj0Viizq32SzEkp-49" value="http-proxy-fn" style="text;html=1;align=center;verticalAlign=middle;resizable=0;points=[];autosize=1;strokeColor=none;fillColor=none;fontSize=13;" parent="1" vertex="1">
          <mxGeometry x="150" y="-190" width="100" height="30" as="geometry" />
        </mxCell>
        <mxCell id="c-DlsIj0Viizq32SzEkp-52" value="HTTP trafic" style="text;html=1;align=center;verticalAlign=middle;resizable=0;points=[];autosize=1;strokeColor=none;fillColor=none;fontSize=13;" parent="1" vertex="1">
          <mxGeometry x="-5" y="238" width="90" height="30" as="geometry" />
        </mxCell>
        <mxCell id="c-DlsIj0Viizq32SzEkp-58" value="scalable-worker-fn" style="text;html=1;align=center;verticalAlign=middle;resizable=0;points=[];autosize=1;strokeColor=none;fillColor=none;fontSize=13;" parent="1" vertex="1">
          <mxGeometry x="280" y="-190" width="130" height="30" as="geometry" />
        </mxCell>
        <mxCell id="c-DlsIj0Viizq32SzEkp-61" value="" style="editableCssRules=.*;shape=image;verticalLabelPosition=bottom;labelBackgroundColor=#ffffff;verticalAlign=top;aspect=fixed;imageAspect=0;image=data:image/svg+xml,PHN2ZyB4bWxucz0iaHR0cDovL3d3dy53My5vcmcvMjAwMC9zdmciIHhtbG5zOnY9Imh0dHBzOi8vdmVjdGEuaW8vbmFubyIgd2lkdGg9IjE2MCIgaGVpZ2h0PSIyNDAiIHZpZXdCb3g9IjAgMCAxNjAgMjQwIj4mI3hhOwk8c3R5bGUgdHlwZT0idGV4dC9jc3MiPiYjeGE7CS5zdDB7ZmlsbDojNDY2YmIwO30mI3hhOwk8L3N0eWxlPiYjeGE7CTxwYXRoIGNsYXNzPSJzdDAiIGQ9Ik02MCAyNDBMMCAyMTBoMTYwem0wLTE2MEwwIDIwMGw2MC0xMHpNNzAgMHYxOTBsOTAgMTB6Ii8+JiN4YTs8L3N2Zz4=;fontColor=default;fillColor=#D7DCE2;gradientColor=none;" parent="1" vertex="1">
          <mxGeometry x="509.99999999999994" y="265" width="13" height="20" as="geometry" />
        </mxCell>
        <mxCell id="c-DlsIj0Viizq32SzEkp-63" value="" style="sketch=0;html=1;dashed=0;whitespace=wrap;fillColor=#D6D6D6;strokeColor=#ffffff;points=[[0.005,0.63,0],[0.1,0.2,0],[0.9,0.2,0],[0.5,0,0],[0.995,0.63,0],[0.72,0.99,0],[0.5,1,0],[0.28,0.99,0]];shape=mxgraph.kubernetes.icon;prIcon=pod" parent="1" vertex="1">
          <mxGeometry x="735" y="217" width="45" height="48" as="geometry" />
        </mxCell>
        <mxCell id="c-DlsIj0Viizq32SzEkp-64" value="" style="sketch=0;html=1;dashed=0;whitespace=wrap;fillColor=#D6D6D6;strokeColor=#ffffff;points=[[0.005,0.63,0],[0.1,0.2,0],[0.9,0.2,0],[0.5,0,0],[0.995,0.63,0],[0.72,0.99,0],[0.5,1,0],[0.28,0.99,0]];shape=mxgraph.kubernetes.icon;prIcon=pod" parent="1" vertex="1">
          <mxGeometry x="735" y="265" width="45" height="48" as="geometry" />
        </mxCell>
        <mxCell id="c-DlsIj0Viizq32SzEkp-69" style="edgeStyle=orthogonalEdgeStyle;rounded=0;orthogonalLoop=1;jettySize=auto;html=1;entryX=0.498;entryY=0.03;entryDx=0;entryDy=0;entryPerimeter=0;fontColor=#000000;strokeColor=#666666;" parent="1" source="c-DlsIj0Viizq32SzEkp-68" target="c-DlsIj0Viizq32SzEkp-21" edge="1">
          <mxGeometry relative="1" as="geometry">
            <Array as="points">
              <mxPoint x="258" y="50" />
              <mxPoint x="258" y="50" />
            </Array>
          </mxGeometry>
        </mxCell>
        <mxCell id="c-DlsIj0Viizq32SzEkp-70" style="edgeStyle=orthogonalEdgeStyle;rounded=0;orthogonalLoop=1;jettySize=auto;html=1;fontColor=#000000;strokeColor=#666666;entryX=0.498;entryY=0.03;entryDx=0;entryDy=0;entryPerimeter=0;" parent="1" target="c-DlsIj0Viizq32SzEkp-25" edge="1">
          <mxGeometry relative="1" as="geometry">
            <Array as="points">
              <mxPoint x="416" y="110" />
            </Array>
            <mxPoint x="415.85999999999996" y="29" as="sourcePoint" />
            <mxPoint x="415.85999999999996" y="109" as="targetPoint" />
          </mxGeometry>
        </mxCell>
        <mxCell id="c-DlsIj0Viizq32SzEkp-72" style="edgeStyle=orthogonalEdgeStyle;rounded=0;orthogonalLoop=1;jettySize=auto;html=1;fontColor=#000000;strokeColor=#666666;" parent="1" source="c-DlsIj0Viizq32SzEkp-68" target="c-DlsIj0Viizq32SzEkp-1" edge="1">
          <mxGeometry relative="1" as="geometry">
            <Array as="points">
              <mxPoint x="258" y="-50" />
              <mxPoint x="258" y="-50" />
            </Array>
          </mxGeometry>
        </mxCell>
        <mxCell id="c-DlsIj0Viizq32SzEkp-74" value="manages" style="edgeLabel;html=1;align=center;verticalAlign=middle;resizable=0;points=[];fontColor=#000000;fontSize=12;" parent="c-DlsIj0Viizq32SzEkp-72" vertex="1" connectable="0">
          <mxGeometry x="0.0282" y="2" relative="1" as="geometry">
            <mxPoint x="-26" y="2" as="offset" />
          </mxGeometry>
        </mxCell>
        <mxCell id="6c97zTpWRjK3GwrViEyA-3" value="deploys" style="edgeLabel;html=1;align=center;verticalAlign=middle;resizable=0;points=[];fontColor=#000000;fontSize=12;" parent="c-DlsIj0Viizq32SzEkp-72" vertex="1" connectable="0">
          <mxGeometry x="0.0282" y="2" relative="1" as="geometry">
            <mxPoint x="-26" y="263" as="offset" />
          </mxGeometry>
        </mxCell>
        <mxCell id="15RvOEYJ2hnxovd0q5tu-4" value="deploys" style="edgeLabel;html=1;align=center;verticalAlign=middle;resizable=0;points=[];fontColor=#000000;fontSize=12;" parent="c-DlsIj0Viizq32SzEkp-72" vertex="1" connectable="0">
          <mxGeometry x="0.0282" y="2" relative="1" as="geometry">
            <mxPoint x="224" y="203" as="offset" />
          </mxGeometry>
        </mxCell>
        <mxCell id="c-DlsIj0Viizq32SzEkp-73" style="edgeStyle=orthogonalEdgeStyle;rounded=0;orthogonalLoop=1;jettySize=auto;html=1;fontColor=#000000;strokeColor=#666666;" parent="1" edge="1">
          <mxGeometry relative="1" as="geometry">
            <Array as="points">
              <mxPoint x="415.82" y="-90" />
              <mxPoint x="415.82" y="-90" />
            </Array>
            <mxPoint x="415.81999999999977" y="-30" as="sourcePoint" />
            <mxPoint x="415.81999999999977" y="-113.49999999999977" as="targetPoint" />
          </mxGeometry>
        </mxCell>
        <mxCell id="c-DlsIj0Viizq32SzEkp-75" value="manages" style="edgeLabel;html=1;align=center;verticalAlign=middle;resizable=0;points=[];fontColor=#000000;fontSize=12;" parent="c-DlsIj0Viizq32SzEkp-73" vertex="1" connectable="0">
          <mxGeometry x="0.1077" y="-3" relative="1" as="geometry">
            <mxPoint x="-33" y="6" as="offset" />
          </mxGeometry>
        </mxCell>
        <mxCell id="c-DlsIj0Viizq32SzEkp-68" value="&lt;font style=&quot;font-size: 13px;&quot;&gt;Function Controller&lt;/font&gt;" style="whiteSpace=wrap;html=1;rounded=1;strokeColor=#666666;fontSize=13;" parent="1" vertex="1">
          <mxGeometry x="233" y="-30" width="197" height="60" as="geometry" />
        </mxCell>
        <mxCell id="c-DlsIj0Viizq32SzEkp-51" value="" style="shape=singleArrow;whiteSpace=wrap;html=1;strokeColor=#666666;" parent="1" vertex="1">
          <mxGeometry y="257" width="100" height="30" as="geometry" />
        </mxCell>
        <mxCell id="oUWiN9TWW6F-JH5Mjuff-2" value="&lt;font style=&quot;font-size: 13px;&quot;&gt;k8s service&lt;/font&gt;" style="whiteSpace=wrap;html=1;rounded=1;strokeColor=#666666;fontSize=13;" parent="1" vertex="1">
          <mxGeometry x="550" y="252.31" width="88.58" height="39.37" as="geometry" />
        </mxCell>
        <mxCell id="6c97zTpWRjK3GwrViEyA-1" value="1" style="ellipse;whiteSpace=wrap;html=1;aspect=fixed;strokeWidth=2;fontFamily=Tahoma;spacingBottom=3;spacingRight=0;strokeColor=none;fillColor=#0A6EC7;fontColor=#FFFFFF;" parent="1" vertex="1">
          <mxGeometry x="200" y="248" width="20" height="20" as="geometry" />
        </mxCell>
        <mxCell id="6c97zTpWRjK3GwrViEyA-5" value="2" style="ellipse;whiteSpace=wrap;html=1;aspect=fixed;strokeWidth=2;fontFamily=Tahoma;spacingBottom=3;spacingRight=0;strokeColor=none;fillColor=#0A6EC7;fontColor=#FFFFFF;spacing=2;" parent="1" vertex="1">
          <mxGeometry x="310" y="248" width="20" height="20" as="geometry" />
        </mxCell>
        <mxCell id="6c97zTpWRjK3GwrViEyA-6" value="3" style="ellipse;whiteSpace=wrap;html=1;aspect=fixed;strokeWidth=2;fontFamily=Tahoma;spacingBottom=3;spacingRight=0;strokeColor=none;fillColor=#0A6EC7;fontColor=#FFFFFF;" parent="1" vertex="1">
          <mxGeometry x="470" y="248" width="20" height="20" as="geometry" />
        </mxCell>
        <mxCell id="6c97zTpWRjK3GwrViEyA-7" value="4" style="ellipse;whiteSpace=wrap;html=1;aspect=fixed;strokeWidth=2;fontFamily=Tahoma;spacingBottom=2;spacingRight=1;strokeColor=none;fontColor=#FFFFFF;fillColor=#0A6EC7;spacing=2;" parent="1" vertex="1">
          <mxGeometry x="650" y="370" width="20" height="20" as="geometry" />
        </mxCell>
        <mxCell id="6c97zTpWRjK3GwrViEyA-8" value="5" style="ellipse;whiteSpace=wrap;html=1;aspect=fixed;strokeWidth=2;fontFamily=Tahoma;spacingBottom=3;spacingRight=0;strokeColor=none;fontColor=#FFFFFF;fillColor=#0A6EC7;" parent="1" vertex="1">
          <mxGeometry x="760" y="10" width="20" height="20" as="geometry" />
        </mxCell>
        <mxCell id="6c97zTpWRjK3GwrViEyA-9" value="6" style="ellipse;whiteSpace=wrap;html=1;aspect=fixed;strokeWidth=2;fontFamily=Tahoma;spacingBottom=4;spacingRight=1;strokeColor=none;fontColor=#FFFFFF;fillColor=#0A6EC7;spacingTop=1;" parent="1" vertex="1">
          <mxGeometry x="618.58" y="-60" width="20" height="20" as="geometry" />
        </mxCell>
        <mxCell id="6c97zTpWRjK3GwrViEyA-10" value="7" style="ellipse;whiteSpace=wrap;html=1;aspect=fixed;strokeWidth=2;fontFamily=Tahoma;spacingBottom=1;spacingRight=1;strokeColor=none;fontColor=#FFFFFF;fillColor=#0A6EC7;" parent="1" vertex="1">
          <mxGeometry x="645" y="248" width="20" height="20" as="geometry" />
        </mxCell>
        <mxCell id="6c97zTpWRjK3GwrViEyA-11" value="8" style="ellipse;whiteSpace=wrap;html=1;aspect=fixed;strokeWidth=2;fontFamily=Tahoma;spacingBottom=3;spacingRight=0;strokeColor=none;fontColor=#FFFFFF;fillColor=#0A6EC7;" parent="1" vertex="1">
          <mxGeometry x="560" y="-60" width="20" height="20" as="geometry" />
        </mxCell>
        <mxCell id="15RvOEYJ2hnxovd0q5tu-1" value="&lt;font style=&quot;font-size: 13px;&quot;&gt;API &lt;br style=&quot;font-size: 13px;&quot;&gt;exposure&lt;/font&gt;" style="whiteSpace=wrap;html=1;rounded=1;strokeColor=#666666;fontSize=13;" parent="1" vertex="1">
          <mxGeometry x="100" y="254" width="87" height="33" as="geometry" />
        </mxCell>
        <mxCell id="I6AvNDRiaUoFZQW86LYJ-2" value="" style="endArrow=classic;html=1;rounded=0;exitX=0.484;exitY=0.971;exitDx=0;exitDy=0;exitPerimeter=0;entryX=0.491;entryY=0.076;entryDx=0;entryDy=0;entryPerimeter=0;strokeColor=#666666;" parent="1" source="c-DlsIj0Viizq32SzEkp-21" target="c-DlsIj0Viizq32SzEkp-3" edge="1">
          <mxGeometry width="50" height="50" relative="1" as="geometry">
            <mxPoint x="230" y="220" as="sourcePoint" />
            <mxPoint x="280" y="170" as="targetPoint" />
          </mxGeometry>
        </mxCell>
      </root>
    </mxGraphModel>
  </diagram>
</mxfile>
